STARTFONT 2.1
COMMENT $Xorg: $
COMMENT ISO10646-1 extension by Markus Kuhn <mkuhn@acm.org>, 2001-03-20
COMMENT  (c) Copyright Bigelow & Holmes 1986, 1985. Lucida is a registered
COMMENT  trademark of Bigelow & Holmes. See LEGAL NOTICE file for terms 
COMMENT  of the license. 
FONT -B&H-LucidaBright-DemiBold-R-Normal--19-190-75-75-P-114-ISO10646-1
SIZE 19 72 72
FONTBOUNDINGBOX 34 30 -11 -8
STARTPROPERTIES 22
COMMENT Begin LogicalFontDescription
FONTNAME_REGISTRY ""
FOUNDRY "B&H"
FAMILY_NAME "LucidaBright"
WEIGHT_NAME "DemiBold"
SLANT "R"
SETWIDTH_NAME "Normal"
ADD_STYLE_NAME ""
PIXEL_SIZE 19
POINT_SIZE 190
RESOLUTION_X 100
RESOLUTION_Y 100
SPACING "P"
AVERAGE_WIDTH 114
CHARSET_REGISTRY "ISO10646"
CHARSET_ENCODING "1"
COMMENT END LogicalFontDescription
COPYRIGHT "Copyright Bigelow & Holmes 1986, 1985."
FONT_ASCENT 17
FONT_DESCENT 4
DEFAULT_CHAR 0
FACE_NAME "Lucida Bright Demibold"
X_HEIGHT 10
CAP_HEIGHT 14
ENDPROPERTIES
CHARS 756
STARTCHAR char0
ENCODING 0
SWIDTH 798 0
DWIDTH 15 0
BBX 13 13 1 0
BITMAP
AAA8
0000
8008
0000
8008
0000
8008
0000
8008
0000
8008
0000
AAA8
ENDCHAR
STARTCHAR space
ENCODING 32
SWIDTH 333 0
DWIDTH 6 0
BBX 1 1 0 0
BITMAP
00
ENDCHAR
STARTCHAR exclam
ENCODING 33
SWIDTH 265 0
DWIDTH 5 0
BBX 3 14 1 0
BITMAP
E0
E0
E0
E0
E0
E0
40
40
40
40
00
E0
E0
E0
ENDCHAR
STARTCHAR quotedbl
ENCODING 34
SWIDTH 461 0
DWIDTH 9 0
BBX 7 5 1 9
BITMAP
EE
EE
EE
44
44
ENDCHAR
STARTCHAR numbersign
ENCODING 35
SWIDTH 663 0
DWIDTH 13 0
BBX 12 14 0 0
BITMAP
0440
0440
0440
0880
7FF0
0880
0880
1100
1100
FFE0
1100
2200
2200
2200
ENDCHAR
STARTCHAR dollar
ENCODING 36
SWIDTH 623 0
DWIDTH 12 0
BBX 8 18 2 -2
BITMAP
08
08
7F
79
E9
E8
E8
78
3C
1E
0F
0F
0F
8F
CF
FE
08
08
ENDCHAR
STARTCHAR percent
ENCODING 37
SWIDTH 759 0
DWIDTH 14 0
BBX 15 14 0 0
BITMAP
3806
4408
C610
C620
C640
44C0
3980
0338
0644
04C6
08C6
10C6
2044
C038
ENDCHAR
STARTCHAR ampersand
ENCODING 38
SWIDTH 765 0
DWIDTH 15 0
BBX 14 14 0 0
BITMAP
0F00
39C0
39C0
39C0
1F80
0F00
3C7C
6618
E718
E390
E3F0
F1E0
70F0
1F7C
ENDCHAR
STARTCHAR quotesingle
ENCODING 39
SWIDTH 253 0
DWIDTH 5 0
BBX 3 5 1 9
BITMAP
E0
E0
E0
40
40
ENDCHAR
STARTCHAR parenleft
ENCODING 40
SWIDTH 327 0
DWIDTH 6 0
BBX 5 18 1 -4
BITMAP
08
18
30
30
60
60
E0
E0
E0
E0
E0
E0
60
60
30
30
10
08
ENDCHAR
STARTCHAR parenright
ENCODING 41
SWIDTH 327 0
DWIDTH 6 0
BBX 5 18 1 -4
BITMAP
80
C0
60
60
30
30
38
38
38
38
38
38
30
30
60
60
40
80
ENDCHAR
STARTCHAR asterisk
ENCODING 42
SWIDTH 434 0
DWIDTH 8 0
BBX 7 7 1 7
BITMAP
10
52
D6
6C
28
6C
28
ENDCHAR
STARTCHAR plus
ENCODING 43
SWIDTH 623 0
DWIDTH 12 0
BBX 11 12 0 0
BITMAP
0400
0400
0400
0400
0400
0400
FFE0
0400
0400
0400
0400
0400
ENDCHAR
STARTCHAR comma
ENCODING 44
SWIDTH 265 0
DWIDTH 5 0
BBX 3 7 1 -4
BITMAP
E0
E0
E0
60
60
60
C0
ENDCHAR
STARTCHAR hyphen
ENCODING 45
SWIDTH 289 0
DWIDTH 5 0
BBX 4 2 1 5
BITMAP
F0
F0
ENDCHAR
STARTCHAR period
ENCODING 46
SWIDTH 265 0
DWIDTH 5 0
BBX 3 3 1 0
BITMAP
E0
E0
E0
ENDCHAR
STARTCHAR slash
ENCODING 47
SWIDTH 527 0
DWIDTH 10 0
BBX 10 18 0 -4
BITMAP
00C0
0080
0080
0100
0100
0200
0200
0400
0400
0800
0800
1000
1000
2000
2000
4000
4000
C000
ENDCHAR
STARTCHAR zero
ENCODING 48
SWIDTH 623 0
DWIDTH 12 0
BBX 11 14 0 0
BITMAP
1F00
3180
71C0
60C0
E0E0
E0E0
E0E0
E0E0
E0E0
E0E0
60C0
71C0
3180
1F00
ENDCHAR
STARTCHAR one
ENCODING 49
SWIDTH 623 0
DWIDTH 12 0
BBX 7 14 3 0
BITMAP
F8
38
38
38
38
38
38
38
38
38
38
38
38
FE
ENDCHAR
STARTCHAR two
ENCODING 50
SWIDTH 623 0
DWIDTH 12 0
BBX 9 14 1 0
BITMAP
7E00
C700
8380
0380
0380
0300
0700
0C00
1800
2000
6000
7F80
FF80
FF80
ENDCHAR
STARTCHAR three
ENCODING 51
SWIDTH 623 0
DWIDTH 12 0
BBX 9 14 1 0
BITMAP
FE00
C700
8380
0380
0380
0700
7C00
0F00
0380
0380
0380
8380
8700
FC00
ENDCHAR
STARTCHAR four
ENCODING 52
SWIDTH 623 0
DWIDTH 12 0
BBX 12 14 0 0
BITMAP
01C0
03C0
07C0
0DC0
19C0
11C0
21C0
41C0
FFF0
FFF0
01C0
01C0
01C0
03F0
ENDCHAR
STARTCHAR five
ENCODING 53
SWIDTH 623 0
DWIDTH 12 0
BBX 8 14 2 0
BITMAP
FF
FF
80
80
80
F8
1E
0F
07
07
07
87
8E
F8
ENDCHAR
STARTCHAR six
ENCODING 54
SWIDTH 623 0
DWIDTH 12 0
BBX 10 14 1 0
BITMAP
1F80
3880
7080
6000
E000
EF00
F380
E1C0
E1C0
E1C0
61C0
61C0
3380
1F00
ENDCHAR
STARTCHAR seven
ENCODING 55
SWIDTH 623 0
DWIDTH 12 0
BBX 9 14 2 0
BITMAP
FF80
FF80
FF80
0100
0200
0600
0400
0C00
1800
1800
3000
3000
7000
7000
ENDCHAR
STARTCHAR eight
ENCODING 56
SWIDTH 623 0
DWIDTH 12 0
BBX 10 14 1 0
BITMAP
3F00
7380
E1C0
E1C0
F180
7F00
1E00
3F80
63C0
E1C0
E1C0
E1C0
7380
3F00
ENDCHAR
STARTCHAR nine
ENCODING 57
SWIDTH 623 0
DWIDTH 12 0
BBX 10 14 1 0
BITMAP
3E00
7300
E180
E180
E1C0
E1C0
E1C0
73C0
3DC0
01C0
0180
4380
4700
7E00
ENDCHAR
STARTCHAR colon
ENCODING 58
SWIDTH 265 0
DWIDTH 5 0
BBX 3 10 1 0
BITMAP
E0
E0
E0
00
00
00
00
E0
E0
E0
ENDCHAR
STARTCHAR semicolon
ENCODING 59
SWIDTH 265 0
DWIDTH 5 0
BBX 3 14 1 -4
BITMAP
E0
E0
E0
00
00
00
00
E0
E0
E0
60
60
60
80
ENDCHAR
STARTCHAR less
ENCODING 60
SWIDTH 623 0
DWIDTH 12 0
BBX 10 12 -1 0
BITMAP
0040
00C0
0300
0C00
3000
C000
C000
3000
0C00
0300
00C0
0040
ENDCHAR
STARTCHAR equal
ENCODING 61
SWIDTH 623 0
DWIDTH 12 0
BBX 11 5 0 3
BITMAP
FFE0
0000
0000
0000
FFE0
ENDCHAR
STARTCHAR greater
ENCODING 62
SWIDTH 623 0
DWIDTH 12 0
BBX 10 12 0 0
BITMAP
8000
C000
3000
0C00
0300
00C0
00C0
0300
0C00
3000
C000
8000
ENDCHAR
STARTCHAR question
ENCODING 63
SWIDTH 505 0
DWIDTH 10 0
BBX 9 14 0 0
BITMAP
FE00
C700
8380
0380
0300
0200
0400
1800
3800
3800
0000
3800
3800
3800
ENDCHAR
STARTCHAR at
ENCODING 64
SWIDTH 861 0
DWIDTH 16 0
BBX 14 14 2 0
BITMAP
03E0
0C30
1008
2384
4464
4C44
98C4
98C4
99C8
9BD8
8EE0
4000
2080
1F00
ENDCHAR
STARTCHAR A
ENCODING 65
SWIDTH 795 0
DWIDTH 15 0
BBX 15 14 0 0
BITMAP
0100
0380
0380
03C0
05C0
05E0
08E0
08F0
1070
1FF0
2038
2038
601C
F07E
ENDCHAR
STARTCHAR B
ENCODING 66
SWIDTH 639 0
DWIDTH 12 0
BBX 10 14 1 0
BITMAP
FF00
73C0
71C0
71C0
71C0
7380
7E00
7300
7180
71C0
71C0
71C0
7380
FF00
ENDCHAR
STARTCHAR C
ENCODING 67
SWIDTH 711 0
DWIDTH 13 0
BBX 12 14 1 0
BITMAP
0FE0
3C30
7010
7010
E000
E000
E000
E000
E000
E000
7000
7000
3C10
0FE0
ENDCHAR
STARTCHAR D
ENCODING 68
SWIDTH 794 0
DWIDTH 15 0
BBX 13 14 1 0
BITMAP
FF80
70E0
7070
7030
7038
7038
7038
7038
7038
7038
7030
7070
70E0
FF80
ENDCHAR
STARTCHAR E
ENCODING 69
SWIDTH 601 0
DWIDTH 11 0
BBX 10 14 1 0
BITMAP
FF80
7080
7080
7000
7000
7100
7F00
7100
7000
7000
7000
7040
70C0
FFC0
ENDCHAR
STARTCHAR F
ENCODING 70
SWIDTH 584 0
DWIDTH 11 0
BBX 9 14 1 0
BITMAP
FF80
7080
7080
7000
7000
7100
7F00
7100
7000
7000
7000
7000
7000
FC00
ENDCHAR
STARTCHAR G
ENCODING 71
SWIDTH 753 0
DWIDTH 14 0
BBX 13 14 1 0
BITMAP
0FF0
3C30
7010
7000
E000
E000
E000
E000
E0F8
E070
7070
7070
3870
0FF0
ENDCHAR
STARTCHAR H
ENCODING 72
SWIDTH 798 0
DWIDTH 15 0
BBX 13 14 1 0
BITMAP
F8F8
7070
7070
7070
7070
7070
7FF0
7070
7070
7070
7070
7070
7070
F8F8
ENDCHAR
STARTCHAR I
ENCODING 73
SWIDTH 349 0
DWIDTH 7 0
BBX 5 14 1 0
BITMAP
F8
70
70
70
70
70
70
70
70
70
70
70
70
F8
ENDCHAR
STARTCHAR J
ENCODING 74
SWIDTH 452 0
DWIDTH 9 0
BBX 8 18 0 -4
BITMAP
1F
0E
0E
0E
0E
0E
0E
0E
0E
0E
0E
0E
0E
0E
0E
8E
9C
F8
ENDCHAR
STARTCHAR K
ENCODING 75
SWIDTH 747 0
DWIDTH 14 0
BBX 14 14 0 0
BITMAP
F8F8
7020
7040
7180
7300
7600
7E00
7F00
7780
73C0
71E0
71E0
70F8
F9FC
ENDCHAR
STARTCHAR L
ENCODING 76
SWIDTH 584 0
DWIDTH 11 0
BBX 10 14 1 0
BITMAP
F800
7000
7000
7000
7000
7000
7000
7000
7000
7000
7000
7040
7040
FFC0
ENDCHAR
STARTCHAR M
ENCODING 77
SWIDTH 904 0
DWIDTH 17 0
BBX 16 14 1 0
BITMAP
F81F
781C
783C
5C3C
5C3C
5E5C
4E5C
4E9C
479C
479C
471C
431C
401C
E03F
ENDCHAR
STARTCHAR N
ENCODING 78
SWIDTH 788 0
DWIDTH 15 0
BBX 13 14 1 0
BITMAP
F038
7010
7810
7C10
5E10
5E10
4F10
4790
4390
41D0
41F0
40F0
4070
E030
ENDCHAR
STARTCHAR O
ENCODING 79
SWIDTH 810 0
DWIDTH 15 0
BBX 14 14 1 0
BITMAP
0FC0
3870
7038
7038
E01C
E01C
E01C
E01C
E01C
E01C
7038
7038
3870
0FC0
ENDCHAR
STARTCHAR P
ENCODING 80
SWIDTH 614 0
DWIDTH 12 0
BBX 10 14 1 0
BITMAP
FF00
7180
71C0
71C0
71C0
71C0
7380
7E00
7000
7000
7000
7000
7000
FC00
ENDCHAR
STARTCHAR Q
ENCODING 81
SWIDTH 810 0
DWIDTH 15 0
BBX 16 18 1 -4
BITMAP
0FC0
3870
7038
7038
E01C
E01C
E01C
E01C
E01C
E01C
7038
7038
3870
0FC0
0070
003C
001F
0004
ENDCHAR
STARTCHAR R
ENCODING 82
SWIDTH 720 0
DWIDTH 14 0
BBX 13 14 1 0
BITMAP
FF00
7180
71C0
71C0
71C0
71C0
7380
7F00
7700
7380
73C0
71E0
70F0
F8F8
ENDCHAR
STARTCHAR S
ENCODING 83
SWIDTH 556 0
DWIDTH 11 0
BBX 9 14 1 0
BITMAP
3F00
7100
E100
E000
F000
F800
7E00
1F00
0780
0380
0380
8380
C700
FE00
ENDCHAR
STARTCHAR T
ENCODING 84
SWIDTH 714 0
DWIDTH 14 0
BBX 13 14 0 0
BITMAP
FFF8
C708
8708
0700
0700
0700
0700
0700
0700
0700
0700
0700
0700
1FC0
ENDCHAR
STARTCHAR U
ENCODING 85
SWIDTH 747 0
DWIDTH 14 0
BBX 14 14 0 0
BITMAP
F83C
7010
7010
7010
7010
7010
7010
7010
7010
7010
7010
7030
3820
1FC0
ENDCHAR
STARTCHAR V
ENCODING 86
SWIDTH 753 0
DWIDTH 14 0
BBX 14 14 0 0
BITMAP
FC3C
7818
3810
3810
1C20
1C20
1E60
0E40
0E40
0780
0780
0380
0300
0300
ENDCHAR
STARTCHAR W
ENCODING 87
SWIDTH 955 0
DWIDTH 18 0
BBX 18 14 0 0
BITMAP
F843C0
706080
78E100
38E100
38F100
397200
3D7200
1D7A00
1E3C00
1E3C00
0E3C00
0C1C00
0C1800
0C1800
ENDCHAR
STARTCHAR X
ENCODING 88
SWIDTH 702 0
DWIDTH 13 0
BBX 13 14 0 0
BITMAP
FC78
7830
3C20
1C40
1EC0
0E80
0F00
0780
0B80
19C0
11E0
20E0
60F0
F1F8
ENDCHAR
STARTCHAR Y
ENCODING 89
SWIDTH 717 0
DWIDTH 14 0
BBX 13 14 0 0
BITMAP
FC38
7030
3820
3C60
1C40
1E80
0F80
0700
0700
0700
0700
0700
0700
1F80
ENDCHAR
STARTCHAR Z
ENCODING 90
SWIDTH 639 0
DWIDTH 12 0
BBX 10 14 1 0
BITMAP
7FC0
43C0
4380
0780
0700
0F00
0E00
1C00
3C00
3800
7800
7040
F0C0
FFC0
ENDCHAR
STARTCHAR bracketleft
ENCODING 91
SWIDTH 327 0
DWIDTH 6 0
BBX 5 18 1 -4
BITMAP
F8
E0
E0
E0
E0
E0
E0
E0
E0
E0
E0
E0
E0
E0
E0
E0
E0
F8
ENDCHAR
STARTCHAR backslash
ENCODING 92
SWIDTH 527 0
DWIDTH 10 0
BBX 10 18 0 -4
BITMAP
C000
4000
6000
2000
2000
1000
1000
0800
0800
0400
0400
0200
0200
0100
0100
0080
0080
0040
ENDCHAR
STARTCHAR bracketright
ENCODING 93
SWIDTH 327 0
DWIDTH 6 0
BBX 5 18 0 -4
BITMAP
F8
38
38
38
38
38
38
38
38
38
38
38
38
38
38
38
38
F8
ENDCHAR
STARTCHAR asciicircum
ENCODING 94
SWIDTH 623 0
DWIDTH 12 0
BBX 11 12 0 2
BITMAP
0400
0400
0400
0A00
0A00
1100
1100
2080
2080
4040
4040
C060
ENDCHAR
STARTCHAR underscore
ENCODING 95
SWIDTH 500 0
DWIDTH 9 0
BBX 8 1 1 -2
BITMAP
FF
ENDCHAR
STARTCHAR grave
ENCODING 96
SWIDTH 617 0
DWIDTH 12 0
BBX 5 3 3 11
BITMAP
E0
30
18
ENDCHAR
STARTCHAR a
ENCODING 97
SWIDTH 556 0
DWIDTH 11 0
BBX 10 10 0 0
BITMAP
3E00
6380
4380
0380
3F80
F380
E380
E380
E380
7DC0
ENDCHAR
STARTCHAR b
ENCODING 98
SWIDTH 640 0
DWIDTH 12 0
BBX 11 14 0 0
BITMAP
F000
7000
7000
7000
7380
77C0
79E0
70E0
70E0
70E0
70E0
70C0
79C0
7F80
ENDCHAR
STARTCHAR c
ENCODING 99
SWIDTH 541 0
DWIDTH 10 0
BBX 9 10 0 0
BITMAP
1F80
7080
6080
E000
E000
E000
E000
7000
7880
1F80
ENDCHAR
STARTCHAR d
ENCODING 100
SWIDTH 652 0
DWIDTH 12 0
BBX 11 14 1 0
BITMAP
07C0
01C0
01C0
01C0
3DC0
73C0
61C0
E1C0
E1C0
E1C0
E1C0
F3C0
7DC0
39E0
ENDCHAR
STARTCHAR e
ENCODING 101
SWIDTH 568 0
DWIDTH 11 0
BBX 9 10 1 0
BITMAP
1E00
6300
6380
E380
FF80
E000
E000
7000
7880
1F80
ENDCHAR
STARTCHAR f
ENCODING 102
SWIDTH 416 0
DWIDTH 8 0
BBX 9 14 0 0
BITMAP
1F80
3880
3880
3800
FF00
3800
3800
3800
3800
3800
3800
3800
3800
FC00
ENDCHAR
STARTCHAR g
ENCODING 103
SWIDTH 599 0
DWIDTH 11 0
BBX 11 14 0 -4
BITMAP
1FE0
3360
7380
7380
7380
3300
1E00
3000
7F80
3FC0
61C0
E1C0
F380
3F00
ENDCHAR
STARTCHAR h
ENCODING 104
SWIDTH 654 0
DWIDTH 12 0
BBX 12 14 0 0
BITMAP
F800
3800
3800
3800
39C0
3BE0
3CE0
38E0
38E0
38E0
38E0
38E0
38E0
FDF0
ENDCHAR
STARTCHAR i
ENCODING 105
SWIDTH 325 0
DWIDTH 6 0
BBX 6 14 0 0
BITMAP
38
38
38
00
F8
38
38
38
38
38
38
38
38
FC
ENDCHAR
STARTCHAR j
ENCODING 106
SWIDTH 355 0
DWIDTH 7 0
BBX 6 18 0 -4
BITMAP
1C
1C
1C
00
3C
1C
1C
1C
1C
1C
1C
1C
1C
1C
1C
9C
9C
F8
ENDCHAR
STARTCHAR k
ENCODING 107
SWIDTH 654 0
DWIDTH 12 0
BBX 12 14 0 0
BITMAP
F800
3800
3800
3800
38E0
38C0
3980
3900
3B00
3F80
3B80
3BC0
39E0
FCF0
ENDCHAR
STARTCHAR l
ENCODING 108
SWIDTH 325 0
DWIDTH 6 0
BBX 6 14 0 0
BITMAP
F8
38
38
38
38
38
38
38
38
38
38
38
38
FC
ENDCHAR
STARTCHAR m
ENCODING 109
SWIDTH 967 0
DWIDTH 18 0
BBX 18 10 0 0
BITMAP
FBCF00
3FFF80
3CF380
38E380
38E380
38E380
38E380
38E380
38E380
FDF7C0
ENDCHAR
STARTCHAR n
ENCODING 110
SWIDTH 654 0
DWIDTH 12 0
BBX 12 10 0 0
BITMAP
F9C0
7BE0
3CE0
38E0
38E0
38E0
38E0
38E0
38E0
FDF0
ENDCHAR
STARTCHAR o
ENCODING 111
SWIDTH 617 0
DWIDTH 12 0
BBX 11 10 0 0
BITMAP
1F00
71C0
60C0
E0E0
E0E0
E0E0
E0E0
60C0
71C0
1F00
ENDCHAR
STARTCHAR p
ENCODING 112
SWIDTH 652 0
DWIDTH 12 0
BBX 11 14 0 -4
BITMAP
F380
77C0
79E0
70E0
70E0
70E0
70E0
70C0
79C0
7780
7000
7000
7000
F800
ENDCHAR
STARTCHAR q
ENCODING 113
SWIDTH 640 0
DWIDTH 12 0
BBX 11 14 1 -4
BITMAP
3DC0
73C0
61C0
E1C0
E1C0
E1C0
E1C0
F3C0
7DC0
39C0
01C0
01C0
01C0
07E0
ENDCHAR
STARTCHAR r
ENCODING 114
SWIDTH 462 0
DWIDTH 9 0
BBX 9 10 0 0
BITMAP
F980
3F80
3C80
3800
3800
3800
3800
3800
3800
FE00
ENDCHAR
STARTCHAR s
ENCODING 115
SWIDTH 525 0
DWIDTH 10 0
BBX 8 10 1 0
BITMAP
3E
E2
E2
F0
FE
7F
0F
87
87
FC
ENDCHAR
STARTCHAR t
ENCODING 116
SWIDTH 389 0
DWIDTH 7 0
BBX 6 13 1 0
BITMAP
30
70
70
FC
70
70
70
70
70
70
70
70
3C
ENDCHAR
STARTCHAR u
ENCODING 117
SWIDTH 654 0
DWIDTH 12 0
BBX 11 10 1 0
BITMAP
F7C0
71C0
71C0
71C0
71C0
71C0
71C0
73C0
7DC0
39E0
ENDCHAR
STARTCHAR v
ENCODING 118
SWIDTH 657 0
DWIDTH 12 0
BBX 12 10 0 0
BITMAP
F8F0
7860
3840
3840
1C80
1D80
0F00
0F00
0600
0600
ENDCHAR
STARTCHAR w
ENCODING 119
SWIDTH 880 0
DWIDTH 17 0
BBX 17 10 0 0
BITMAP
F84780
70E300
78E200
39F200
397400
1F7400
1E3C00
1E3800
0C3800
0C1000
ENDCHAR
STARTCHAR x
ENCODING 120
SWIDTH 608 0
DWIDTH 12 0
BBX 12 10 0 0
BITMAP
FCF0
7840
3C80
1F00
0F00
0F00
1F80
13C0
61E0
F3F0
ENDCHAR
STARTCHAR y
ENCODING 121
SWIDTH 654 0
DWIDTH 12 0
BBX 12 14 0 -4
BITMAP
FCF0
7020
3840
3840
1C80
1C80
1F00
0F00
0E00
0600
0400
0800
1800
3000
ENDCHAR
STARTCHAR z
ENCODING 122
SWIDTH 584 0
DWIDTH 11 0
BBX 9 10 1 0
BITMAP
FF80
C780
8F00
0E00
1E00
3C00
7800
7080
F080
FF80
ENDCHAR
STARTCHAR braceleft
ENCODING 123
SWIDTH 366 0
DWIDTH 7 0
BBX 5 18 1 -4
BITMAP
38
70
70
70
70
70
70
70
E0
60
70
70
70
70
70
70
70
38
ENDCHAR
STARTCHAR bar
ENCODING 124
SWIDTH 259 0
DWIDTH 5 0
BBX 1 18 2 -4
BITMAP
80
80
80
80
80
80
80
80
80
80
80
80
80
80
80
80
80
80
ENDCHAR
STARTCHAR braceright
ENCODING 125
SWIDTH 366 0
DWIDTH 7 0
BBX 5 18 1 -4
BITMAP
E0
70
70
70
70
70
70
70
38
30
70
70
70
70
70
70
70
E0
ENDCHAR
STARTCHAR asciitilde
ENCODING 126
SWIDTH 623 0
DWIDTH 12 0
BBX 11 4 0 3
BITMAP
7020
4C20
8640
81C0
ENDCHAR
STARTCHAR space
ENCODING 160
SWIDTH 333 0
DWIDTH 6 0
BBX 1 1 0 0
BITMAP
00
ENDCHAR
STARTCHAR exclamdown
ENCODING 161
SWIDTH 265 0
DWIDTH 5 0
BBX 3 14 1 -4
BITMAP
E0
E0
E0
00
40
40
40
40
E0
E0
E0
E0
E0
E0
ENDCHAR
STARTCHAR cent
ENCODING 162
SWIDTH 623 0
DWIDTH 12 0
BBX 9 14 1 0
BITMAP
0400
0400
1F80
7480
6480
E400
E400
E400
E400
6400
7480
1F80
0400
0400
ENDCHAR
STARTCHAR sterling
ENCODING 163
SWIDTH 623 0
DWIDTH 12 0
BBX 9 14 2 0
BITMAP
0F80
1880
3880
3800
3800
3800
FE00
3800
3800
3800
2000
FF80
FF80
FF80
ENDCHAR
STARTCHAR currency
ENCODING 164
SWIDTH 623 0
DWIDTH 12 0
BBX 12 12 0 1
BITMAP
8010
4020
3FC0
39C0
30C0
2040
2040
30C0
39C0
3FC0
4020
8010
ENDCHAR
STARTCHAR yen
ENCODING 165
SWIDTH 623 0
DWIDTH 12 0
BBX 13 14 0 0
BITMAP
FC78
7810
3C20
1E40
0E80
0F00
3FC0
0700
0700
3FC0
0700
0700
0700
0F80
ENDCHAR
STARTCHAR brokenbar
ENCODING 166
SWIDTH 259 0
DWIDTH 5 0
BBX 1 18 2 -4
BITMAP
80
80
80
80
80
80
80
80
00
00
80
80
80
80
80
80
80
80
ENDCHAR
STARTCHAR section
ENCODING 167
SWIDTH 623 0
DWIDTH 12 0
BBX 9 18 2 -4
BITMAP
3F00
7100
E100
E000
F000
7E00
3F00
CF80
C380
E180
F980
7F00
3F00
0F80
0380
8380
C700
FE00
ENDCHAR
STARTCHAR dieresis
ENCODING 168
SWIDTH 617 0
DWIDTH 12 0
BBX 6 2 3 12
BITMAP
CC
CC
ENDCHAR
STARTCHAR copyright
ENCODING 169
SWIDTH 855 0
DWIDTH 16 0
BBX 15 14 1 0
BITMAP
07C0
1830
2008
43E4
4644
8C02
8C02
8C02
8C02
4644
43C4
2008
1830
07C0
ENDCHAR
STARTCHAR ordfeminine
ENCODING 170
SWIDTH 488 0
DWIDTH 9 0
BBX 8 8 1 6
BITMAP
FC
8E
0E
7E
EE
EE
EE
77
ENDCHAR
STARTCHAR guillemotleft
ENCODING 171
SWIDTH 566 0
DWIDTH 11 0
BBX 9 8 1 1
BITMAP
1880
3100
7300
EE00
E600
7300
3100
1880
ENDCHAR
STARTCHAR logicalnot
ENCODING 172
SWIDTH 623 0
DWIDTH 12 0
BBX 11 5 0 3
BITMAP
FFE0
0020
0020
0020
0020
ENDCHAR
STARTCHAR hyphen
ENCODING 173
SWIDTH 289 0
DWIDTH 5 0
BBX 4 2 1 5
BITMAP
F0
F0
ENDCHAR
STARTCHAR registered
ENCODING 174
SWIDTH 623 0
DWIDTH 12 0
BBX 9 9 1 5
BITMAP
3E00
6300
DF80
9280
9C80
9480
D780
6300
3E00
ENDCHAR
STARTCHAR macron
ENCODING 175
SWIDTH 617 0
DWIDTH 12 0
BBX 6 1 3 13
BITMAP
FC
ENDCHAR
STARTCHAR degree
ENCODING 176
SWIDTH 259 0
DWIDTH 5 0
BBX 3 3 1 11
BITMAP
E0
A0
E0
ENDCHAR
STARTCHAR plusminus
ENCODING 177
SWIDTH 623 0
DWIDTH 12 0
BBX 11 12 0 0
BITMAP
0400
0400
0400
0400
FFE0
0400
0400
0400
0400
0000
0000
FFE0
ENDCHAR
STARTCHAR twosuperior
ENCODING 178
SWIDTH 374 0
DWIDTH 7 0
BBX 6 9 -10 5
BITMAP
F8
8C
0C
0C
18
20
40
FC
FC
ENDCHAR
STARTCHAR threesuperior
ENCODING 179
SWIDTH 374 0
DWIDTH 7 0
BBX 6 9 -10 5
BITMAP
F8
8C
0C
08
70
1C
0C
8C
F8
ENDCHAR
STARTCHAR acute
ENCODING 180
SWIDTH 617 0
DWIDTH 12 0
BBX 5 3 4 11
BITMAP
38
60
C0
ENDCHAR
STARTCHAR mu
ENCODING 181
SWIDTH 705 0
DWIDTH 13 0
BBX 12 14 1 -4
BITMAP
F9E0
38E0
38E0
38E0
38E0
38E0
38E0
39E0
3FE0
3EF0
3800
3800
3800
3800
ENDCHAR
STARTCHAR paragraph
ENCODING 182
SWIDTH 623 0
DWIDTH 12 0
BBX 8 18 1 -4
BITMAP
7F
F9
F9
F9
F9
79
39
09
09
09
09
09
09
09
09
09
09
09
ENDCHAR
STARTCHAR periodcentered
ENCODING 183
SWIDTH 623 0
DWIDTH 12 0
BBX 2 3 5 4
BITMAP
C0
C0
C0
ENDCHAR
STARTCHAR cedilla
ENCODING 184
SWIDTH 617 0
DWIDTH 12 0
BBX 3 4 5 -4
BITMAP
40
E0
60
E0
ENDCHAR
STARTCHAR onesuperior
ENCODING 185
SWIDTH 374 0
DWIDTH 7 0
BBX 4 9 -11 5
BITMAP
E0
60
60
60
60
60
60
60
F0
ENDCHAR
STARTCHAR ordmasculine
ENCODING 186
SWIDTH 488 0
DWIDTH 9 0
BBX 8 8 1 6
BITMAP
3C
66
E7
E7
E7
E7
66
3C
ENDCHAR
STARTCHAR guillemotright
ENCODING 187
SWIDTH 566 0
DWIDTH 11 0
BBX 9 8 1 1
BITMAP
8800
4400
6600
3300
3B80
6600
4400
8800
ENDCHAR
STARTCHAR onequarter
ENCODING 188
SWIDTH 803 0
DWIDTH 15 0
BBX 14 14 4 0
BITMAP
E070
6060
60C0
61C0
6180
6318
6738
6E58
FC98
19FC
39FC
3018
6018
E03C
ENDCHAR
STARTCHAR onehalf
ENCODING 189
SWIDTH 803 0
DWIDTH 15 0
BBX 13 14 4 0
BITMAP
E070
6060
60C0
61C0
6180
63F0
6718
6E18
FC18
1830
3840
3080
61F8
E1F8
ENDCHAR
STARTCHAR threequarters
ENCODING 190
SWIDTH 803 0
DWIDTH 15 0
BBX 15 14 5 0
BITMAP
F838
8C30
0C60
08E0
70C0
1D8C
0F9C
8F2C
FE4C
0CFE
1CFE
180C
300C
701E
ENDCHAR
STARTCHAR questiondown
ENCODING 191
SWIDTH 505 0
DWIDTH 10 0
BBX 9 14 0 -4
BITMAP
0E00
0E00
0E00
0000
0E00
0E00
0C00
1000
3000
6000
E000
E080
7180
3F80
ENDCHAR
STARTCHAR Agrave
ENCODING 192
SWIDTH 795 0
DWIDTH 15 0
BBX 15 18 0 0
BITMAP
0E00
0300
0180
0000
0100
0380
0380
03C0
05C0
05E0
08E0
08F0
1070
1FF0
2038
2038
601C
F07E
ENDCHAR
STARTCHAR Aacute
ENCODING 193
SWIDTH 795 0
DWIDTH 15 0
BBX 15 18 0 0
BITMAP
00E0
0180
0300
0000
0100
0380
0380
03C0
05C0
05E0
08E0
08F0
1070
1FF0
2038
2038
601C
F07E
ENDCHAR
STARTCHAR Acircumflex
ENCODING 194
SWIDTH 795 0
DWIDTH 15 0
BBX 15 18 0 0
BITMAP
0180
03C0
0660
0000
0100
0380
0380
03C0
05C0
05E0
08E0
08F0
1070
1FF0
2038
2038
601C
F07E
ENDCHAR
STARTCHAR Atilde
ENCODING 195
SWIDTH 795 0
DWIDTH 15 0
BBX 15 18 0 0
BITMAP
0320
07E0
04C0
0000
0100
0380
0380
03C0
05C0
05E0
08E0
08F0
1070
1FF0
2038
2038
601C
F07E
ENDCHAR
STARTCHAR Adieresis
ENCODING 196
SWIDTH 795 0
DWIDTH 15 0
BBX 15 17 0 0
BITMAP
0660
0660
0000
0100
0380
0380
03C0
05C0
05E0
08E0
08F0
1070
1FF0
2038
2038
601C
F07E
ENDCHAR
STARTCHAR Aring
ENCODING 197
SWIDTH 795 0
DWIDTH 15 0
BBX 15 18 0 0
BITMAP
0380
0280
0380
0000
0100
0380
0380
03C0
05C0
05E0
08E0
08F0
1070
1FF0
2038
2038
601C
F07E
ENDCHAR
STARTCHAR AE
ENCODING 198
SWIDTH 959 0
DWIDTH 18 0
BBX 18 14 0 0
BITMAP
007FC0
00F040
01F040
017000
027000
027080
047F80
0C7080
087000
1FF000
307000
207000
407040
E1FFC0
ENDCHAR
STARTCHAR Ccedilla
ENCODING 199
SWIDTH 711 0
DWIDTH 13 0
BBX 12 18 1 -4
BITMAP
0FE0
3C30
7010
7010
E000
E000
E000
E000
E000
E000
7000
7000
3C10
0FE0
0200
0700
0300
0700
ENDCHAR
STARTCHAR Egrave
ENCODING 200
SWIDTH 601 0
DWIDTH 11 0
BBX 10 18 1 0
BITMAP
3800
0C00
0600
0000
FF80
7080
7080
7000
7000
7100
7F00
7100
7000
7000
7000
7040
70C0
FFC0
ENDCHAR
STARTCHAR Eacute
ENCODING 201
SWIDTH 601 0
DWIDTH 11 0
BBX 10 18 1 0
BITMAP
0700
0C00
1800
0000
FF80
7080
7080
7000
7000
7100
7F00
7100
7000
7000
7000
7040
70C0
FFC0
ENDCHAR
STARTCHAR Ecircumflex
ENCODING 202
SWIDTH 601 0
DWIDTH 11 0
BBX 10 18 1 0
BITMAP
0C00
1E00
3300
0000
FF80
7080
7080
7000
7000
7100
7F00
7100
7000
7000
7000
7040
70C0
FFC0
ENDCHAR
STARTCHAR Edieresis
ENCODING 203
SWIDTH 601 0
DWIDTH 11 0
BBX 10 17 1 0
BITMAP
3300
3300
0000
FF80
7080
7080
7000
7000
7100
7F00
7100
7000
7000
7000
7040
70C0
FFC0
ENDCHAR
STARTCHAR Igrave
ENCODING 204
SWIDTH 349 0
DWIDTH 7 0
BBX 6 18 2 0
BITMAP
E0
30
18
00
7C
38
38
38
38
38
38
38
38
38
38
38
38
7C
ENDCHAR
STARTCHAR Iacute
ENCODING 205
SWIDTH 349 0
DWIDTH 7 0
BBX 6 18 1 0
BITMAP
1C
30
60
00
F8
70
70
70
70
70
70
70
70
70
70
70
70
F8
ENDCHAR
STARTCHAR Icircumflex
ENCODING 206
SWIDTH 349 0
DWIDTH 7 0
BBX 6 18 2 0
BITMAP
30
78
CC
00
7C
38
38
38
38
38
38
38
38
38
38
38
38
7C
ENDCHAR
STARTCHAR Idieresis
ENCODING 207
SWIDTH 349 0
DWIDTH 7 0
BBX 6 17 2 0
BITMAP
CC
CC
00
7C
38
38
38
38
38
38
38
38
38
38
38
38
7C
ENDCHAR
STARTCHAR Eth
ENCODING 208
SWIDTH 794 0
DWIDTH 15 0
BBX 14 14 0 0
BITMAP
FFC0
3870
3838
3818
381C
381C
FF1C
381C
381C
381C
3818
3838
3870
FFC0
ENDCHAR
STARTCHAR Ntilde
ENCODING 209
SWIDTH 788 0
DWIDTH 15 0
BBX 13 18 1 0
BITMAP
0640
0FC0
0980
0000
F038
7010
7810
7C10
5E10
5E10
4F10
4790
4390
41D0
41F0
40F0
4070
E030
ENDCHAR
STARTCHAR Ograve
ENCODING 210
SWIDTH 810 0
DWIDTH 15 0
BBX 14 18 1 0
BITMAP
0E00
0300
0180
0000
0FC0
3870
7038
7038
E01C
E01C
E01C
E01C
E01C
E01C
7038
7038
3870
0FC0
ENDCHAR
STARTCHAR Oacute
ENCODING 211
SWIDTH 810 0
DWIDTH 15 0
BBX 14 18 1 0
BITMAP
01C0
0300
0600
0000
0FC0
3870
7038
7038
E01C
E01C
E01C
E01C
E01C
E01C
7038
7038
3870
0FC0
ENDCHAR
STARTCHAR Ocircumflex
ENCODING 212
SWIDTH 810 0
DWIDTH 15 0
BBX 14 18 1 0
BITMAP
0300
0780
0CC0
0000
0FC0
3870
7038
7038
E01C
E01C
E01C
E01C
E01C
E01C
7038
7038
3870
0FC0
ENDCHAR
STARTCHAR Otilde
ENCODING 213
SWIDTH 810 0
DWIDTH 15 0
BBX 14 18 1 0
BITMAP
0640
0FC0
0980
0000
0FC0
3870
7038
7038
E01C
E01C
E01C
E01C
E01C
E01C
7038
7038
3870
0FC0
ENDCHAR
STARTCHAR Odieresis
ENCODING 214
SWIDTH 810 0
DWIDTH 15 0
BBX 14 17 1 0
BITMAP
0CC0
0CC0
0000
0FC0
3870
7038
7038
E01C
E01C
E01C
E01C
E01C
E01C
7038
7038
3870
0FC0
ENDCHAR
STARTCHAR multiply
ENCODING 215
SWIDTH 623 0
DWIDTH 12 0
BBX 11 12 0 0
BITMAP
C020
4060
2080
1100
1B00
0E00
0E00
1B00
1100
2080
C040
8060
ENDCHAR
STARTCHAR Oslash
ENCODING 216
SWIDTH 810 0
DWIDTH 15 0
BBX 14 14 1 0
BITMAP
0FCC
3878
7038
7038
E05C
E09C
E11C
E21C
E41C
E81C
7038
7038
7870
CFC0
ENDCHAR
STARTCHAR Ugrave
ENCODING 217
SWIDTH 747 0
DWIDTH 14 0
BBX 14 18 0 0
BITMAP
0E00
0300
0180
0000
F83C
7010
7010
7010
7010
7010
7010
7010
7010
7010
7010
7030
3820
1FC0
ENDCHAR
STARTCHAR Uacute
ENCODING 218
SWIDTH 747 0
DWIDTH 14 0
BBX 14 18 0 0
BITMAP
01C0
0300
0600
0000
F83C
7010
7010
7010
7010
7010
7010
7010
7010
7010
7010
7030
3820
1FC0
ENDCHAR
STARTCHAR Ucircumflex
ENCODING 219
SWIDTH 747 0
DWIDTH 14 0
BBX 14 18 0 0
BITMAP
0300
0780
0CC0
0000
F83C
7010
7010
7010
7010
7010
7010
7010
7010
7010
7010
7030
3820
1FC0
ENDCHAR
STARTCHAR Udieresis
ENCODING 220
SWIDTH 747 0
DWIDTH 14 0
BBX 14 17 0 0
BITMAP
0CC0
0CC0
0000
F83C
7010
7010
7010
7010
7010
7010
7010
7010
7010
7010
7030
3820
1FC0
ENDCHAR
STARTCHAR Yacute
ENCODING 221
SWIDTH 717 0
DWIDTH 14 0
BBX 13 18 0 0
BITMAP
01C0
0300
0600
0000
FC38
7030
3820
3C60
1C40
1E80
0F80
0700
0700
0700
0700
0700
0700
1F80
ENDCHAR
STARTCHAR Thorn
ENCODING 222
SWIDTH 614 0
DWIDTH 12 0
BBX 10 14 1 0
BITMAP
F800
7000
7000
7F00
7180
71C0
71C0
71C0
71C0
7380
7E00
7000
7000
F800
ENDCHAR
STARTCHAR germandbls
ENCODING 223
SWIDTH 700 0
DWIDTH 13 0
BBX 12 14 1 0
BITMAP
1F80
31C0
71C0
7180
7300
7200
7700
7780
73E0
71F0
70F0
7270
7270
FBE0
ENDCHAR
STARTCHAR agrave
ENCODING 224
SWIDTH 556 0
DWIDTH 11 0
BBX 10 14 0 0
BITMAP
3800
0C00
0600
0000
3E00
6380
4380
0380
3F80
F380
E380
E380
E380
7DC0
ENDCHAR
STARTCHAR aacute
ENCODING 225
SWIDTH 556 0
DWIDTH 11 0
BBX 10 14 0 0
BITMAP
0700
0C00
1800
0000
3E00
6380
4380
0380
3F80
F380
E380
E380
E380
7DC0
ENDCHAR
STARTCHAR acircumflex
ENCODING 226
SWIDTH 556 0
DWIDTH 11 0
BBX 10 14 0 0
BITMAP
0C00
1E00
3300
0000
3E00
6380
4380
0380
3F80
F380
E380
E380
E380
7DC0
ENDCHAR
STARTCHAR atilde
ENCODING 227
SWIDTH 556 0
DWIDTH 11 0
BBX 10 14 0 0
BITMAP
1900
3F00
2600
0000
3E00
6380
4380
0380
3F80
F380
E380
E380
E380
7DC0
ENDCHAR
STARTCHAR adieresis
ENCODING 228
SWIDTH 556 0
DWIDTH 11 0
BBX 10 13 0 0
BITMAP
3300
3300
0000
3E00
6380
4380
0380
3F80
F380
E380
E380
E380
7DC0
ENDCHAR
STARTCHAR aring
ENCODING 229
SWIDTH 556 0
DWIDTH 11 0
BBX 10 14 0 0
BITMAP
1C00
1400
1C00
0000
3E00
6380
4380
0380
3F80
F380
E380
E380
E380
7DC0
ENDCHAR
STARTCHAR ae
ENCODING 230
SWIDTH 858 0
DWIDTH 16 0
BBX 15 10 0 0
BITMAP
3E78
638C
038E
038E
3FFE
F380
E380
E3C0
F3E2
7CFE
ENDCHAR
STARTCHAR ccedilla
ENCODING 231
SWIDTH 541 0
DWIDTH 10 0
BBX 9 14 0 -4
BITMAP
1F80
7080
6080
E000
E000
E000
E000
7000
7880
1F80
0800
1C00
0C00
1C00
ENDCHAR
STARTCHAR egrave
ENCODING 232
SWIDTH 568 0
DWIDTH 11 0
BBX 9 14 1 0
BITMAP
3800
0C00
0600
0000
1E00
6300
6380
E380
FF80
E000
E000
7000
7880
1F80
ENDCHAR
STARTCHAR eacute
ENCODING 233
SWIDTH 568 0
DWIDTH 11 0
BBX 9 14 1 0
BITMAP
0700
0C00
1800
0000
1E00
6300
6380
E380
FF80
E000
E000
7000
7880
1F80
ENDCHAR
STARTCHAR ecircumflex
ENCODING 234
SWIDTH 568 0
DWIDTH 11 0
BBX 9 14 1 0
BITMAP
0C00
1E00
3300
0000
1E00
6300
6380
E380
FF80
E000
E000
7000
7880
1F80
ENDCHAR
STARTCHAR edieresis
ENCODING 235
SWIDTH 568 0
DWIDTH 11 0
BBX 9 13 1 0
BITMAP
3300
3300
0000
1E00
6300
6380
E380
FF80
E000
E000
7000
7880
1F80
ENDCHAR
STARTCHAR igrave
ENCODING 236
SWIDTH 325 0
DWIDTH 6 0
BBX 6 14 0 0
BITMAP
E0
30
18
00
F8
38
38
38
38
38
38
38
38
FC
ENDCHAR
STARTCHAR iacute
ENCODING 237
SWIDTH 325 0
DWIDTH 6 0
BBX 6 14 0 0
BITMAP
1C
30
60
00
F8
38
38
38
38
38
38
38
38
FC
ENDCHAR
STARTCHAR icircumflex
ENCODING 238
SWIDTH 325 0
DWIDTH 6 0
BBX 6 14 0 0
BITMAP
30
78
CC
00
F8
38
38
38
38
38
38
38
38
FC
ENDCHAR
STARTCHAR idieresis
ENCODING 239
SWIDTH 325 0
DWIDTH 6 0
BBX 6 13 0 0
BITMAP
CC
CC
00
F8
38
38
38
38
38
38
38
38
FC
ENDCHAR
STARTCHAR eth
ENCODING 240
SWIDTH 652 0
DWIDTH 12 0
BBX 11 16 1 0
BITMAP
0300
0600
FC00
1F00
3780
43C0
1FC0
71E0
60E0
E0E0
E0E0
E0E0
E0E0
60C0
7180
1F00
ENDCHAR
STARTCHAR ntilde
ENCODING 241
SWIDTH 654 0
DWIDTH 12 0
BBX 12 14 0 0
BITMAP
0C80
1F80
1300
0000
F9C0
7BE0
3CE0
38E0
38E0
38E0
38E0
38E0
38E0
FDF0
ENDCHAR
STARTCHAR ograve
ENCODING 242
SWIDTH 617 0
DWIDTH 12 0
BBX 11 14 0 0
BITMAP
3800
0C00
0600
0000
1F00
71C0
60C0
E0E0
E0E0
E0E0
E0E0
60C0
71C0
1F00
ENDCHAR
STARTCHAR oacute
ENCODING 243
SWIDTH 617 0
DWIDTH 12 0
BBX 11 14 0 0
BITMAP
0380
0600
0C00
0000
1F00
71C0
60C0
E0E0
E0E0
E0E0
E0E0
60C0
71C0
1F00
ENDCHAR
STARTCHAR ocircumflex
ENCODING 244
SWIDTH 617 0
DWIDTH 12 0
BBX 11 14 0 0
BITMAP
0C00
1E00
3300
0000
1F00
71C0
60C0
E0E0
E0E0
E0E0
E0E0
60C0
71C0
1F00
ENDCHAR
STARTCHAR otilde
ENCODING 245
SWIDTH 617 0
DWIDTH 12 0
BBX 11 14 0 0
BITMAP
1900
3F00
2600
0000
1F00
71C0
60C0
E0E0
E0E0
E0E0
E0E0
60C0
71C0
1F00
ENDCHAR
STARTCHAR odieresis
ENCODING 246
SWIDTH 617 0
DWIDTH 12 0
BBX 11 13 0 0
BITMAP
3300
3300
0000
1F00
71C0
60C0
E0E0
E0E0
E0E0
E0E0
60C0
71C0
1F00
ENDCHAR
STARTCHAR divide
ENCODING 247
SWIDTH 623 0
DWIDTH 12 0
BBX 10 10 1 0
BITMAP
0C00
0C00
0000
0000
0000
FFC0
0000
0000
0C00
0C00
ENDCHAR
STARTCHAR oslash
ENCODING 248
SWIDTH 617 0
DWIDTH 12 0
BBX 12 10 0 0
BITMAP
0FB0
38E0
3060
71F0
7370
7670
7870
3060
38E0
CF80
ENDCHAR
STARTCHAR ugrave
ENCODING 249
SWIDTH 654 0
DWIDTH 12 0
BBX 11 14 1 0
BITMAP
1C00
0600
0300
0000
F7C0
71C0
71C0
71C0
71C0
71C0
71C0
73C0
7DC0
39E0
ENDCHAR
STARTCHAR uacute
ENCODING 250
SWIDTH 654 0
DWIDTH 12 0
BBX 11 14 1 0
BITMAP
0380
0600
0C00
0000
F7C0
71C0
71C0
71C0
71C0
71C0
71C0
73C0
7DC0
39E0
ENDCHAR
STARTCHAR ucircumflex
ENCODING 251
SWIDTH 654 0
DWIDTH 12 0
BBX 11 14 1 0
BITMAP
0600
0F00
1980
0000
F7C0
71C0
71C0
71C0
71C0
71C0
71C0
73C0
7DC0
39E0
ENDCHAR
STARTCHAR udieresis
ENCODING 252
SWIDTH 654 0
DWIDTH 12 0
BBX 11 13 1 0
BITMAP
1980
1980
0000
F7C0
71C0
71C0
71C0
71C0
71C0
71C0
73C0
7DC0
39E0
ENDCHAR
STARTCHAR yacute
ENCODING 253
SWIDTH 654 0
DWIDTH 12 0
BBX 12 18 0 -4
BITMAP
0380
0600
0C00
0000
FCF0
7020
3840
3840
1C80
1C80
1F00
0F00
0E00
0600
0400
0800
1800
3000
ENDCHAR
STARTCHAR thorn
ENCODING 254
SWIDTH 652 0
DWIDTH 12 0
BBX 11 18 0 -4
BITMAP
F000
7000
7000
7000
7380
77C0
79E0
70E0
70E0
70E0
70E0
70C0
79C0
7780
7000
7000
7000
F800
ENDCHAR
STARTCHAR ydieresis
ENCODING 255
SWIDTH 654 0
DWIDTH 12 0
BBX 12 17 0 -4
BITMAP
1980
1980
0000
FCF0
7020
3840
3840
1C80
1C80
1F00
0F00
0E00
0600
0400
0800
1800
3000
ENDCHAR
STARTCHAR Amacron
ENCODING 256
SWIDTH 795 0
DWIDTH 15 0
BBX 15 16 0 0
BITMAP
07E0
0000
0100
0380
0380
03C0
05C0
05E0
08E0
08F0
1070
1FF0
2038
2038
601C
F07E
ENDCHAR
STARTCHAR amacron
ENCODING 257
SWIDTH 556 0
DWIDTH 11 0
BBX 10 12 0 0
BITMAP
3F00
0000
3E00
6380
4380
0380
3F80
F380
E380
E380
E380
7DC0
ENDCHAR
STARTCHAR Abreve
ENCODING 258
SWIDTH 795 0
DWIDTH 15 0
BBX 15 18 0 0
BITMAP
0820
07C0
0380
0000
0100
0380
0380
03C0
05C0
05E0
08E0
08F0
1070
1FF0
2038
2038
601C
F07E
ENDCHAR
STARTCHAR abreve
ENCODING 259
SWIDTH 556 0
DWIDTH 11 0
BBX 10 14 0 0
BITMAP
2080
1F00
0E00
0000
3E00
6380
4380
0380
3F80
F380
E380
E380
E380
7DC0
ENDCHAR
STARTCHAR Aogonek
ENCODING 260
SWIDTH 795 0
DWIDTH 15 0
BBX 15 18 0 -4
BITMAP
0100
0380
0380
03C0
05C0
05E0
08E0
08F0
1070
1FF0
2038
2038
601C
F07E
0000
0080
0100
01C0
ENDCHAR
STARTCHAR aogonek
ENCODING 261
SWIDTH 556 0
DWIDTH 11 0
BBX 10 14 0 -4
BITMAP
3E00
6380
4380
0380
3F80
F380
E380
E380
E380
7DC0
0000
0800
1000
1C00
ENDCHAR
STARTCHAR Cacute
ENCODING 262
SWIDTH 711 0
DWIDTH 13 0
BBX 12 18 1 0
BITMAP
01C0
0300
0600
0000
0FE0
3C30
7010
7010
E000
E000
E000
E000
E000
E000
7000
7000
3C10
0FE0
ENDCHAR
STARTCHAR cacute
ENCODING 263
SWIDTH 541 0
DWIDTH 10 0
BBX 9 14 0 0
BITMAP
0700
0C00
1800
0000
1F80
7080
6080
E000
E000
E000
E000
7000
7880
1F80
ENDCHAR
STARTCHAR Ccircumflex
ENCODING 264
SWIDTH 711 0
DWIDTH 13 0
BBX 12 18 1 0
BITMAP
0600
0F00
1980
0000
0FE0
3C30
7010
7010
E000
E000
E000
E000
E000
E000
7000
7000
3C10
0FE0
ENDCHAR
STARTCHAR ccircumflex
ENCODING 265
SWIDTH 541 0
DWIDTH 10 0
BBX 9 14 0 0
BITMAP
0C00
1E00
3300
0000
1F80
7080
6080
E000
E000
E000
E000
7000
7880
1F80
ENDCHAR
STARTCHAR Cdotaccent
ENCODING 266
SWIDTH 711 0
DWIDTH 13 0
BBX 12 18 1 0
BITMAP
0600
0600
0600
0000
0FE0
3C30
7010
7010
E000
E000
E000
E000
E000
E000
7000
7000
3C10
0FE0
ENDCHAR
STARTCHAR cdotaccent
ENCODING 267
SWIDTH 541 0
DWIDTH 10 0
BBX 9 14 0 0
BITMAP
0C00
0C00
0C00
0000
1F80
7080
6080
E000
E000
E000
E000
7000
7880
1F80
ENDCHAR
STARTCHAR Ccaron
ENCODING 268
SWIDTH 711 0
DWIDTH 13 0
BBX 12 18 1 0
BITMAP
1980
0F00
0600
0000
0FE0
3C30
7010
7010
E000
E000
E000
E000
E000
E000
7000
7000
3C10
0FE0
ENDCHAR
STARTCHAR ccaron
ENCODING 269
SWIDTH 541 0
DWIDTH 10 0
BBX 9 14 0 0
BITMAP
3300
1E00
0C00
0000
1F80
7080
6080
E000
E000
E000
E000
7000
7880
1F80
ENDCHAR
STARTCHAR Dcaron
ENCODING 270
SWIDTH 794 0
DWIDTH 15 0
BBX 13 18 1 0
BITMAP
1980
0F00
0600
0000
FF80
70E0
7070
7030
7038
7038
7038
7038
7038
7038
7030
7070
70E0
FF80
ENDCHAR
STARTCHAR dcaron
ENCODING 271
SWIDTH 884 0
DWIDTH 16 0
BBX 14 14 1 0
BITMAP
07DC
01DC
01CC
01CC
3DD8
73C0
61C0
E1C0
E1C0
E1C0
E1C0
F3C0
7DC0
39E0
ENDCHAR
STARTCHAR Dcroat
ENCODING 272
SWIDTH 794 0
DWIDTH 15 0
BBX 14 14 0 0
BITMAP
FFC0
3870
3838
3818
381C
381C
FF1C
381C
381C
381C
3818
3838
3870
FFC0
ENDCHAR
STARTCHAR dcroat
ENCODING 273
SWIDTH 652 0
DWIDTH 12 0
BBX 11 14 1 0
BITMAP
07C0
01C0
03E0
01C0
3DC0
73C0
61C0
E1C0
E1C0
E1C0
E1C0
F3C0
7DC0
39E0
ENDCHAR
STARTCHAR Emacron
ENCODING 274
SWIDTH 601 0
DWIDTH 11 0
BBX 10 16 1 0
BITMAP
7E00
0000
FF80
7080
7080
7000
7000
7100
7F00
7100
7000
7000
7000
7040
70C0
FFC0
ENDCHAR
STARTCHAR emacron
ENCODING 275
SWIDTH 568 0
DWIDTH 11 0
BBX 9 12 1 0
BITMAP
3F00
0000
1E00
6300
6380
E380
FF80
E000
E000
7000
7880
1F80
ENDCHAR
STARTCHAR Ebreve
ENCODING 276
SWIDTH 601 0
DWIDTH 11 0
BBX 10 18 1 0
BITMAP
4100
3E00
1C00
0000
FF80
7080
7080
7000
7000
7100
7F00
7100
7000
7000
7000
7040
70C0
FFC0
ENDCHAR
STARTCHAR ebreve
ENCODING 277
SWIDTH 568 0
DWIDTH 11 0
BBX 9 14 1 0
BITMAP
4100
3E00
1C00
0000
1E00
6300
6380
E380
FF80
E000
E000
7000
7880
1F80
ENDCHAR
STARTCHAR Edotaccent
ENCODING 278
SWIDTH 601 0
DWIDTH 11 0
BBX 10 18 1 0
BITMAP
1800
1800
1800
0000
FF80
7080
7080
7000
7000
7100
7F00
7100
7000
7000
7000
7040
70C0
FFC0
ENDCHAR
STARTCHAR edotaccent
ENCODING 279
SWIDTH 568 0
DWIDTH 11 0
BBX 9 14 1 0
BITMAP
0C00
0C00
0C00
0000
1E00
6300
6380
E380
FF80
E000
E000
7000
7880
1F80
ENDCHAR
STARTCHAR Eogonek
ENCODING 280
SWIDTH 601 0
DWIDTH 11 0
BBX 10 18 1 -4
BITMAP
FF80
7080
7080
7000
7000
7100
7F00
7100
7000
7000
7000
7040
70C0
FFC0
0000
0800
1000
1C00
ENDCHAR
STARTCHAR eogonek
ENCODING 281
SWIDTH 568 0
DWIDTH 11 0
BBX 9 14 1 -4
BITMAP
1E00
6300
6380
E380
FF80
E000
E000
7000
7880
1F80
0000
0800
1000
1C00
ENDCHAR
STARTCHAR Ecaron
ENCODING 282
SWIDTH 601 0
DWIDTH 11 0
BBX 10 18 1 0
BITMAP
6600
3C00
1800
0000
FF80
7080
7080
7000
7000
7100
7F00
7100
7000
7000
7000
7040
70C0
FFC0
ENDCHAR
STARTCHAR ecaron
ENCODING 283
SWIDTH 568 0
DWIDTH 11 0
BBX 9 14 1 0
BITMAP
3300
1E00
0C00
0000
1E00
6300
6380
E380
FF80
E000
E000
7000
7880
1F80
ENDCHAR
STARTCHAR Gcircumflex
ENCODING 284
SWIDTH 753 0
DWIDTH 14 0
BBX 13 18 1 0
BITMAP
0600
0F00
1980
0000
0FF0
3C30
7010
7000
E000
E000
E000
E000
E0F8
E070
7070
7070
3870
0FF0
ENDCHAR
STARTCHAR gcircumflex
ENCODING 285
SWIDTH 599 0
DWIDTH 11 0
BBX 11 18 0 -4
BITMAP
0600
0F00
1980
0000
1FE0
3360
7380
7380
7380
3300
1E00
3000
7F80
3FC0
61C0
E1C0
F380
3F00
ENDCHAR
STARTCHAR Gbreve
ENCODING 286
SWIDTH 753 0
DWIDTH 14 0
BBX 13 18 1 0
BITMAP
1040
0F80
0700
0000
0FF0
3C30
7010
7000
E000
E000
E000
E000
E0F8
E070
7070
7070
3870
0FF0
ENDCHAR
STARTCHAR gbreve
ENCODING 287
SWIDTH 599 0
DWIDTH 11 0
BBX 11 18 0 -4
BITMAP
2080
1F00
0E00
0000
1FE0
3360
7380
7380
7380
3300
1E00
3000
7F80
3FC0
61C0
E1C0
F380
3F00
ENDCHAR
STARTCHAR Gdotaccent
ENCODING 288
SWIDTH 753 0
DWIDTH 14 0
BBX 13 18 1 0
BITMAP
0600
0600
0600
0000
0FF0
3C30
7010
7000
E000
E000
E000
E000
E0F8
E070
7070
7070
3870
0FF0
ENDCHAR
STARTCHAR gdotaccent
ENCODING 289
SWIDTH 599 0
DWIDTH 11 0
BBX 11 18 0 -4
BITMAP
0600
0600
0600
0000
1FE0
3360
7380
7380
7380
3300
1E00
3000
7F80
3FC0
61C0
E1C0
F380
3F00
ENDCHAR
STARTCHAR Gcommaaccent
ENCODING 290
SWIDTH 753 0
DWIDTH 14 0
BBX 13 22 1 -8
BITMAP
0FF0
3C30
7010
7000
E000
E000
E000
E000
E0F8
E070
7070
7070
3870
0FF0
0000
0700
0700
0700
0300
0300
0300
0600
ENDCHAR
STARTCHAR gcommaaccent
ENCODING 291
SWIDTH 599 0
DWIDTH 11 0
BBX 11 20 0 -4
BITMAP
0600
0C00
0C00
0E00
0E00
0000
1FE0
3360
7380
7380
7380
3300
1E00
3000
7F80
3FC0
61C0
E1C0
F380
3F00
ENDCHAR
STARTCHAR Hcircumflex
ENCODING 292
SWIDTH 798 0
DWIDTH 15 0
BBX 13 18 1 0
BITMAP
0300
0780
0CC0
0000
F8F8
7070
7070
7070
7070
7070
7FF0
7070
7070
7070
7070
7070
7070
F8F8
ENDCHAR
STARTCHAR hcircumflex
ENCODING 293
SWIDTH 654 0
DWIDTH 12 0
BBX 12 18 0 0
BITMAP
1800
3C00
6600
0000
F800
3800
3800
3800
39C0
3BE0
3CE0
38E0
38E0
38E0
38E0
38E0
38E0
FDF0
ENDCHAR
STARTCHAR Hbar
ENCODING 294
SWIDTH 798 0
DWIDTH 15 0
BBX 13 14 1 0
BITMAP
F8F8
7070
7070
FFF8
7070
7070
7FF0
7070
7070
7070
7070
7070
7070
F8F8
ENDCHAR
STARTCHAR hbar
ENCODING 295
SWIDTH 654 0
DWIDTH 12 0
BBX 12 14 0 0
BITMAP
F800
3800
7C00
3800
39C0
3BE0
3CE0
38E0
38E0
38E0
38E0
38E0
38E0
FDF0
ENDCHAR
STARTCHAR Itilde
ENCODING 296
SWIDTH 349 0
DWIDTH 7 0
BBX 6 18 1 0
BITMAP
64
FC
98
00
F8
70
70
70
70
70
70
70
70
70
70
70
70
F8
ENDCHAR
STARTCHAR itilde
ENCODING 297
SWIDTH 325 0
DWIDTH 6 0
BBX 6 14 0 0
BITMAP
64
FC
98
00
F8
38
38
38
38
38
38
38
38
FC
ENDCHAR
STARTCHAR Imacron
ENCODING 298
SWIDTH 349 0
DWIDTH 7 0
BBX 6 16 1 0
BITMAP
FC
00
F8
70
70
70
70
70
70
70
70
70
70
70
70
F8
ENDCHAR
STARTCHAR imacron
ENCODING 299
SWIDTH 325 0
DWIDTH 6 0
BBX 6 12 0 0
BITMAP
FC
00
F8
38
38
38
38
38
38
38
38
FC
ENDCHAR
STARTCHAR Ibreve
ENCODING 300
SWIDTH 349 0
DWIDTH 7 0
BBX 7 18 0 0
BITMAP
82
7C
38
00
7C
38
38
38
38
38
38
38
38
38
38
38
38
7C
ENDCHAR
STARTCHAR ibreve
ENCODING 301
SWIDTH 325 0
DWIDTH 6 0
BBX 7 14 0 0
BITMAP
82
7C
38
00
F8
38
38
38
38
38
38
38
38
FC
ENDCHAR
STARTCHAR Iogonek
ENCODING 302
SWIDTH 349 0
DWIDTH 7 0
BBX 5 18 1 -4
BITMAP
F8
70
70
70
70
70
70
70
70
70
70
70
70
F8
00
20
40
70
ENDCHAR
STARTCHAR iogonek
ENCODING 303
SWIDTH 325 0
DWIDTH 6 0
BBX 6 18 0 -4
BITMAP
38
38
38
00
F8
38
38
38
38
38
38
38
38
FC
00
10
20
38
ENDCHAR
STARTCHAR Idotaccent
ENCODING 304
SWIDTH 349 0
DWIDTH 7 0
BBX 5 18 1 0
BITMAP
30
30
30
00
F8
70
70
70
70
70
70
70
70
70
70
70
70
F8
ENDCHAR
STARTCHAR dotlessi
ENCODING 305
SWIDTH 325 0
DWIDTH 6 0
BBX 6 10 0 0
BITMAP
F8
38
38
38
38
38
38
38
38
FC
ENDCHAR
STARTCHAR IJ
ENCODING 306
SWIDTH 784 0
DWIDTH 16 0
BBX 14 18 1 -4
BITMAP
F87C
7038
7038
7038
7038
7038
7038
7038
7038
7038
7038
7038
7038
F838
0038
0238
0270
03E0
ENDCHAR
STARTCHAR ij
ENCODING 307
SWIDTH 664 0
DWIDTH 13 0
BBX 12 18 0 -4
BITMAP
3870
3870
3870
0000
F8F0
3870
3870
3870
3870
3870
3870
3870
3870
FC70
0070
0270
0270
03E0
ENDCHAR
STARTCHAR Jcircumflex
ENCODING 308
SWIDTH 452 0
DWIDTH 9 0
BBX 8 22 0 -4
BITMAP
0C
1E
33
00
1F
0E
0E
0E
0E
0E
0E
0E
0E
0E
0E
0E
0E
0E
0E
8E
9C
F8
ENDCHAR
STARTCHAR jcircumflex
ENCODING 309
SWIDTH 355 0
DWIDTH 7 0
BBX 7 18 0 -4
BITMAP
18
3C
66
00
3C
1C
1C
1C
1C
1C
1C
1C
1C
1C
1C
9C
9C
F8
ENDCHAR
STARTCHAR Kcommaaccent
ENCODING 310
SWIDTH 747 0
DWIDTH 14 0
BBX 14 22 0 -8
BITMAP
F8F8
7020
7040
7180
7300
7600
7E00
7F00
7780
73C0
71E0
71E0
70F8
F9FC
0000
0700
0700
0700
0300
0300
0300
0600
ENDCHAR
STARTCHAR kcommaaccent
ENCODING 311
SWIDTH 654 0
DWIDTH 12 0
BBX 12 22 0 -8
BITMAP
F800
3800
3800
3800
38E0
38C0
3980
3900
3B00
3F80
3B80
3BC0
39E0
FCF0
0000
0700
0700
0700
0300
0300
0300
0600
ENDCHAR
STARTCHAR kgreenlandic
ENCODING 312
SWIDTH 654 0
DWIDTH 12 0
BBX 12 10 0 0
BITMAP
38E0
38C0
3980
3900
3B00
3F80
3B80
3BC0
39E0
FCF0
ENDCHAR
STARTCHAR Lacute
ENCODING 313
SWIDTH 584 0
DWIDTH 11 0
BBX 10 18 1 0
BITMAP
0E00
1800
3000
0000
F800
7000
7000
7000
7000
7000
7000
7000
7000
7000
7000
7040
7040
FFC0
ENDCHAR
STARTCHAR lacute
ENCODING 314
SWIDTH 325 0
DWIDTH 6 0
BBX 7 18 0 0
BITMAP
0E
18
30
00
F8
38
38
38
38
38
38
38
38
38
38
38
38
FC
ENDCHAR
STARTCHAR Lcommaaccent
ENCODING 315
SWIDTH 584 0
DWIDTH 11 0
BBX 10 22 1 -8
BITMAP
F800
7000
7000
7000
7000
7000
7000
7000
7000
7000
7000
7040
7040
FFC0
0000
1C00
1C00
1C00
0C00
0C00
0C00
1800
ENDCHAR
STARTCHAR lcommaaccent
ENCODING 316
SWIDTH 325 0
DWIDTH 6 0
BBX 6 22 0 -8
BITMAP
F8
38
38
38
38
38
38
38
38
38
38
38
38
FC
00
38
38
38
18
18
18
30
ENDCHAR
STARTCHAR Lcaron
ENCODING 317
SWIDTH 820 0
DWIDTH 15 0
BBX 13 14 1 0
BITMAP
F838
7038
7018
7018
7030
7000
7000
7000
7000
7000
7000
7040
7040
FFC0
ENDCHAR
STARTCHAR lcaron
ENCODING 318
SWIDTH 574 0
DWIDTH 11 0
BBX 10 14 0 0
BITMAP
F9C0
39C0
38C0
38C0
3980
3800
3800
3800
3800
3800
3800
3800
3800
FC00
ENDCHAR
STARTCHAR Ldot
ENCODING 319
SWIDTH 1178 0
DWIDTH 22 0
BBX 16 14 1 0
BITMAP
F800
7000
7000
7000
7000
7000
7000
7003
7003
7003
7000
7040
7040
FFC0
ENDCHAR
STARTCHAR ldot
ENCODING 320
SWIDTH 932 0
DWIDTH 18 0
BBX 13 14 0 0
BITMAP
F800
3800
3800
3800
3800
3800
3800
3818
3818
3818
3800
3800
3800
FC00
ENDCHAR
STARTCHAR Lslash
ENCODING 321
SWIDTH 584 0
DWIDTH 11 0
BBX 11 14 0 0
BITMAP
FC00
3800
3800
3800
3A00
3C00
3800
F800
B800
3800
3800
3820
3820
FFE0
ENDCHAR
STARTCHAR lslash
ENCODING 322
SWIDTH 325 0
DWIDTH 6 0
BBX 7 14 0 0
BITMAP
F8
38
38
38
38
3E
38
78
B8
38
38
38
38
FE
ENDCHAR
STARTCHAR Nacute
ENCODING 323
SWIDTH 788 0
DWIDTH 15 0
BBX 13 18 1 0
BITMAP
0380
0600
0C00
0000
F038
7010
7810
7C10
5E10
5E10
4F10
4790
4390
41D0
41F0
40F0
4070
E030
ENDCHAR
STARTCHAR nacute
ENCODING 324
SWIDTH 654 0
DWIDTH 12 0
BBX 12 14 0 0
BITMAP
0380
0600
0C00
0000
F9C0
7BE0
3CE0
38E0
38E0
38E0
38E0
38E0
38E0
FDF0
ENDCHAR
STARTCHAR Ncommaaccent
ENCODING 325
SWIDTH 788 0
DWIDTH 15 0
BBX 13 22 1 -8
BITMAP
F038
7010
7810
7C10
5E10
5E10
4F10
4790
4390
41D0
41F0
40F0
4070
E030
0000
0380
0380
0380
0180
0180
0180
0300
ENDCHAR
STARTCHAR ncommaaccent
ENCODING 326
SWIDTH 654 0
DWIDTH 12 0
BBX 12 18 0 -8
BITMAP
F9C0
7BE0
3CE0
38E0
38E0
38E0
38E0
38E0
38E0
FDF0
0000
0700
0700
0700
0300
0300
0300
0600
ENDCHAR
STARTCHAR Ncaron
ENCODING 327
SWIDTH 788 0
DWIDTH 15 0
BBX 13 18 1 0
BITMAP
1980
0F00
0600
0000
F038
7010
7810
7C10
5E10
5E10
4F10
4790
4390
41D0
41F0
40F0
4070
E030
ENDCHAR
STARTCHAR ncaron
ENCODING 328
SWIDTH 654 0
DWIDTH 12 0
BBX 12 14 0 0
BITMAP
1980
0F00
0600
0000
F9C0
7BE0
3CE0
38E0
38E0
38E0
38E0
38E0
38E0
FDF0
ENDCHAR
STARTCHAR napostrophe
ENCODING 329
SWIDTH 906 0
DWIDTH 17 0
BBX 16 14 1 0
BITMAP
E000
E000
6000
6000
CF9C
07BE
03CE
038E
038E
038E
038E
038E
038E
0FDF
ENDCHAR
STARTCHAR Eng
ENCODING 330
SWIDTH 788 0
DWIDTH 15 0
BBX 13 18 1 -4
BITMAP
F038
7010
7810
7C10
5E10
5E10
4F10
4790
4390
41D0
41F0
40F0
4070
E070
0070
0270
0270
03E0
ENDCHAR
STARTCHAR eng
ENCODING 331
SWIDTH 654 0
DWIDTH 12 0
BBX 11 14 0 -4
BITMAP
F9C0
7BE0
3CE0
38E0
38E0
38E0
38E0
38E0
38E0
FCE0
00E0
04E0
04E0
07C0
ENDCHAR
STARTCHAR Omacron
ENCODING 332
SWIDTH 810 0
DWIDTH 15 0
BBX 14 16 1 0
BITMAP
0FC0
0000
0FC0
3870
7038
7038
E01C
E01C
E01C
E01C
E01C
E01C
7038
7038
3870
0FC0
ENDCHAR
STARTCHAR omacron
ENCODING 333
SWIDTH 617 0
DWIDTH 12 0
BBX 11 12 0 0
BITMAP
1F80
0000
1F00
71C0
60C0
E0E0
E0E0
E0E0
E0E0
60C0
71C0
1F00
ENDCHAR
STARTCHAR Obreve
ENCODING 334
SWIDTH 810 0
DWIDTH 15 0
BBX 14 18 1 0
BITMAP
0820
07C0
0380
0000
0FC0
3870
7038
7038
E01C
E01C
E01C
E01C
E01C
E01C
7038
7038
3870
0FC0
ENDCHAR
STARTCHAR obreve
ENCODING 335
SWIDTH 617 0
DWIDTH 12 0
BBX 11 14 0 0
BITMAP
2080
1F00
0E00
0000
1F00
71C0
60C0
E0E0
E0E0
E0E0
E0E0
60C0
71C0
1F00
ENDCHAR
STARTCHAR Ohungarumlaut
ENCODING 336
SWIDTH 810 0
DWIDTH 15 0
BBX 14 18 1 0
BITMAP
01B0
0340
0480
0000
0FC0
3870
7038
7038
E01C
E01C
E01C
E01C
E01C
E01C
7038
7038
3870
0FC0
ENDCHAR
STARTCHAR ohungarumlaut
ENCODING 337
SWIDTH 617 0
DWIDTH 12 0
BBX 11 14 0 0
BITMAP
06C0
0D00
1200
0000
1F00
71C0
60C0
E0E0
E0E0
E0E0
E0E0
60C0
71C0
1F00
ENDCHAR
STARTCHAR OE
ENCODING 338
SWIDTH 1044 0
DWIDTH 20 0
BBX 19 14 1 0
BITMAP
0FBFE0
387820
703820
703800
E03800
E03840
E03FC0
E03840
E03800
E03800
703800
703820
387820
0FBFE0
ENDCHAR
STARTCHAR oe
ENCODING 339
SWIDTH 943 0
DWIDTH 18 0
BBX 16 10 1 0
BITMAP
1E3C
7346
61C7
E1C7
E1FF
E1C0
E1C0
61E0
73F1
1F3F
ENDCHAR
STARTCHAR Racute
ENCODING 340
SWIDTH 720 0
DWIDTH 14 0
BBX 13 18 1 0
BITMAP
0380
0600
0C00
0000
FF00
7180
71C0
71C0
71C0
71C0
7380
7F00
7700
7380
73C0
71E0
70F0
F8F8
ENDCHAR
STARTCHAR racute
ENCODING 341
SWIDTH 462 0
DWIDTH 9 0
BBX 9 14 0 0
BITMAP
0700
0C00
1800
0000
F980
3F80
3C80
3800
3800
3800
3800
3800
3800
FE00
ENDCHAR
STARTCHAR Rcommaaccent
ENCODING 342
SWIDTH 720 0
DWIDTH 14 0
BBX 13 22 1 -8
BITMAP
FF00
7180
71C0
71C0
71C0
71C0
7380
7F00
7700
7380
73C0
71E0
70F0
F8F8
0000
0700
0700
0700
0300
0300
0300
0600
ENDCHAR
STARTCHAR rcommaaccent
ENCODING 343
SWIDTH 462 0
DWIDTH 9 0
BBX 9 18 0 -8
BITMAP
F980
3F80
3C80
3800
3800
3800
3800
3800
3800
FE00
0000
3800
3800
3800
1800
1800
1800
3000
ENDCHAR
STARTCHAR Rcaron
ENCODING 344
SWIDTH 720 0
DWIDTH 14 0
BBX 13 18 1 0
BITMAP
3300
1E00
0C00
0000
FF00
7180
71C0
71C0
71C0
71C0
7380
7F00
7700
7380
73C0
71E0
70F0
F8F8
ENDCHAR
STARTCHAR rcaron
ENCODING 345
SWIDTH 462 0
DWIDTH 9 0
BBX 9 14 0 0
BITMAP
3300
1E00
0C00
0000
F980
3F80
3C80
3800
3800
3800
3800
3800
3800
FE00
ENDCHAR
STARTCHAR Sacute
ENCODING 346
SWIDTH 556 0
DWIDTH 11 0
BBX 9 18 1 0
BITMAP
0E00
1800
3000
0000
3F00
7100
E100
E000
F000
F800
7E00
1F00
0780
0380
0380
8380
C700
FE00
ENDCHAR
STARTCHAR sacute
ENCODING 347
SWIDTH 525 0
DWIDTH 10 0
BBX 8 14 1 0
BITMAP
0E
18
30
00
3E
E2
E2
F0
FE
7F
0F
87
87
FC
ENDCHAR
STARTCHAR Scircumflex
ENCODING 348
SWIDTH 556 0
DWIDTH 11 0
BBX 9 18 1 0
BITMAP
1800
3C00
6600
0000
3F00
7100
E100
E000
F000
F800
7E00
1F00
0780
0380
0380
8380
C700
FE00
ENDCHAR
STARTCHAR scircumflex
ENCODING 349
SWIDTH 525 0
DWIDTH 10 0
BBX 8 14 1 0
BITMAP
18
3C
66
00
3E
E2
E2
F0
FE
7F
0F
87
87
FC
ENDCHAR
STARTCHAR Scedilla
ENCODING 350
SWIDTH 556 0
DWIDTH 11 0
BBX 9 18 1 -4
BITMAP
3F00
7100
E100
E000
F000
F800
7E00
1F00
0780
0380
0380
8380
C700
FE00
0800
1C00
0C00
1C00
ENDCHAR
STARTCHAR scedilla
ENCODING 351
SWIDTH 525 0
DWIDTH 10 0
BBX 8 14 1 -4
BITMAP
3E
E2
E2
F0
FE
7F
0F
87
87
FC
08
1C
0C
1C
ENDCHAR
STARTCHAR Scaron
ENCODING 352
SWIDTH 556 0
DWIDTH 11 0
BBX 9 18 1 0
BITMAP
6600
3C00
1800
0000
3F00
7100
E100
E000
F000
F800
7E00
1F00
0780
0380
0380
8380
C700
FE00
ENDCHAR
STARTCHAR scaron
ENCODING 353
SWIDTH 525 0
DWIDTH 10 0
BBX 8 14 1 0
BITMAP
66
3C
18
00
3E
E2
E2
F0
FE
7F
0F
87
87
FC
ENDCHAR
STARTCHAR Tcommaaccent
ENCODING 354
SWIDTH 714 0
DWIDTH 14 0
BBX 13 18 0 -4
BITMAP
FFF8
C708
8708
0700
0700
0700
0700
0700
0700
0700
0700
0700
0700
1FC0
0200
0700
0300
0700
ENDCHAR
STARTCHAR tcommaaccent
ENCODING 355
SWIDTH 389 0
DWIDTH 7 0
BBX 6 17 1 -4
BITMAP
30
70
70
FC
70
70
70
70
70
70
70
70
3C
20
70
30
70
ENDCHAR
STARTCHAR Tcaron
ENCODING 356
SWIDTH 714 0
DWIDTH 14 0
BBX 13 18 0 0
BITMAP
1980
0F00
0600
0000
FFF8
C708
8708
0700
0700
0700
0700
0700
0700
0700
0700
0700
0700
1FC0
ENDCHAR
STARTCHAR tcaron
ENCODING 357
SWIDTH 635 0
DWIDTH 12 0
BBX 10 14 1 0
BITMAP
01C0
31C0
70C0
70C0
FD80
7000
7000
7000
7000
7000
7000
7000
7000
3C00
ENDCHAR
STARTCHAR Tbar
ENCODING 358
SWIDTH 714 0
DWIDTH 14 0
BBX 13 14 0 0
BITMAP
FFF8
C708
8708
0700
0700
0700
0F80
0700
0700
0700
0700
0700
0700
1FC0
ENDCHAR
STARTCHAR tbar
ENCODING 359
SWIDTH 389 0
DWIDTH 7 0
BBX 6 13 1 0
BITMAP
30
70
70
FC
70
70
70
7C
70
70
70
70
3C
ENDCHAR
STARTCHAR Utilde
ENCODING 360
SWIDTH 747 0
DWIDTH 14 0
BBX 14 18 0 0
BITMAP
0C80
1F80
1300
0000
F83C
7010
7010
7010
7010
7010
7010
7010
7010
7010
7010
7030
3820
1FC0
ENDCHAR
STARTCHAR utilde
ENCODING 361
SWIDTH 654 0
DWIDTH 12 0
BBX 11 14 1 0
BITMAP
1900
3F00
2600
0000
F7C0
71C0
71C0
71C0
71C0
71C0
71C0
73C0
7DC0
39E0
ENDCHAR
STARTCHAR Umacron
ENCODING 362
SWIDTH 747 0
DWIDTH 14 0
BBX 14 16 0 0
BITMAP
1F80
0000
F83C
7010
7010
7010
7010
7010
7010
7010
7010
7010
7010
7030
3820
1FC0
ENDCHAR
STARTCHAR umacron
ENCODING 363
SWIDTH 654 0
DWIDTH 12 0
BBX 11 12 1 0
BITMAP
3F00
0000
F7C0
71C0
71C0
71C0
71C0
71C0
71C0
73C0
7DC0
39E0
ENDCHAR
STARTCHAR Ubreve
ENCODING 364
SWIDTH 747 0
DWIDTH 14 0
BBX 14 18 0 0
BITMAP
1040
0F80
0700
0000
F83C
7010
7010
7010
7010
7010
7010
7010
7010
7010
7010
7030
3820
1FC0
ENDCHAR
STARTCHAR ubreve
ENCODING 365
SWIDTH 654 0
DWIDTH 12 0
BBX 11 14 1 0
BITMAP
2080
1F00
0E00
0000
F7C0
71C0
71C0
71C0
71C0
71C0
71C0
73C0
7DC0
39E0
ENDCHAR
STARTCHAR Uring
ENCODING 366
SWIDTH 747 0
DWIDTH 14 0
BBX 14 18 0 0
BITMAP
0700
0500
0700
0000
F83C
7010
7010
7010
7010
7010
7010
7010
7010
7010
7010
7030
3820
1FC0
ENDCHAR
STARTCHAR uring
ENCODING 367
SWIDTH 654 0
DWIDTH 12 0
BBX 11 14 1 0
BITMAP
0E00
0A00
0E00
0000
F7C0
71C0
71C0
71C0
71C0
71C0
71C0
73C0
7DC0
39E0
ENDCHAR
STARTCHAR Uhungarumlaut
ENCODING 368
SWIDTH 747 0
DWIDTH 14 0
BBX 14 18 0 0
BITMAP
0360
0680
0900
0000
F83C
7010
7010
7010
7010
7010
7010
7010
7010
7010
7010
7030
3820
1FC0
ENDCHAR
STARTCHAR uhungarumlaut
ENCODING 369
SWIDTH 654 0
DWIDTH 12 0
BBX 11 14 1 0
BITMAP
06C0
0D00
1200
0000
F7C0
71C0
71C0
71C0
71C0
71C0
71C0
73C0
7DC0
39E0
ENDCHAR
STARTCHAR Uogonek
ENCODING 370
SWIDTH 747 0
DWIDTH 14 0
BBX 14 18 0 -4
BITMAP
F83C
7010
7010
7010
7010
7010
7010
7010
7010
7010
7010
7030
3820
1FC0
0000
0200
0400
0700
ENDCHAR
STARTCHAR uogonek
ENCODING 371
SWIDTH 654 0
DWIDTH 12 0
BBX 11 14 1 -4
BITMAP
F7C0
71C0
71C0
71C0
71C0
71C0
71C0
73C0
7DC0
39E0
0000
0400
0800
0E00
ENDCHAR
STARTCHAR Wcircumflex
ENCODING 372
SWIDTH 955 0
DWIDTH 18 0
BBX 18 18 0 0
BITMAP
018000
03C000
066000
000000
F843C0
706080
78E100
38E100
38F100
397200
3D7200
1D7A00
1E3C00
1E3C00
0E3C00
0C1C00
0C1800
0C1800
ENDCHAR
STARTCHAR wcircumflex
ENCODING 373
SWIDTH 880 0
DWIDTH 17 0
BBX 17 14 0 0
BITMAP
018000
03C000
066000
000000
F84780
70E300
78E200
39F200
397400
1F7400
1E3C00
1E3800
0C3800
0C1000
ENDCHAR
STARTCHAR Ycircumflex
ENCODING 374
SWIDTH 717 0
DWIDTH 14 0
BBX 13 18 0 0
BITMAP
0600
0F00
1980
0000
FC38
7030
3820
3C60
1C40
1E80
0F80
0700
0700
0700
0700
0700
0700
1F80
ENDCHAR
STARTCHAR ycircumflex
ENCODING 375
SWIDTH 654 0
DWIDTH 12 0
BBX 12 18 0 -4
BITMAP
0600
0F00
1980
0000
FCF0
7020
3840
3840
1C80
1C80
1F00
0F00
0E00
0600
0400
0800
1800
3000
ENDCHAR
STARTCHAR Ydieresis
ENCODING 376
SWIDTH 717 0
DWIDTH 14 0
BBX 13 17 0 0
BITMAP
1980
1980
0000
FC38
7030
3820
3C60
1C40
1E80
0F80
0700
0700
0700
0700
0700
0700
1F80
ENDCHAR
STARTCHAR Zacute
ENCODING 377
SWIDTH 639 0
DWIDTH 12 0
BBX 10 18 1 0
BITMAP
0380
0600
0C00
0000
7FC0
43C0
4380
0780
0700
0F00
0E00
1C00
3C00
3800
7800
7040
F0C0
FFC0
ENDCHAR
STARTCHAR zacute
ENCODING 378
SWIDTH 584 0
DWIDTH 11 0
BBX 9 14 1 0
BITMAP
0700
0C00
1800
0000
FF80
C780
8F00
0E00
1E00
3C00
7800
7080
F080
FF80
ENDCHAR
STARTCHAR Zdotaccent
ENCODING 379
SWIDTH 639 0
DWIDTH 12 0
BBX 10 18 1 0
BITMAP
0600
0600
0600
0000
7FC0
43C0
4380
0780
0700
0F00
0E00
1C00
3C00
3800
7800
7040
F0C0
FFC0
ENDCHAR
STARTCHAR zdotaccent
ENCODING 380
SWIDTH 584 0
DWIDTH 11 0
BBX 9 14 1 0
BITMAP
0C00
0C00
0C00
0000
FF80
C780
8F00
0E00
1E00
3C00
7800
7080
F080
FF80
ENDCHAR
STARTCHAR Zcaron
ENCODING 381
SWIDTH 639 0
DWIDTH 12 0
BBX 10 18 1 0
BITMAP
3300
1E00
0C00
0000
7FC0
43C0
4380
0780
0700
0F00
0E00
1C00
3C00
3800
7800
7040
F0C0
FFC0
ENDCHAR
STARTCHAR zcaron
ENCODING 382
SWIDTH 584 0
DWIDTH 11 0
BBX 9 14 1 0
BITMAP
3300
1E00
0C00
0000
FF80
C780
8F00
0E00
1E00
3C00
7800
7080
F080
FF80
ENDCHAR
STARTCHAR uni0186
ENCODING 390
SWIDTH 711 0
DWIDTH 13 0
BBX 12 14 1 0
BITMAP
7F00
83C0
00E0
00E0
0070
0070
0070
0070
0070
0070
80E0
80E0
C3C0
7F00
ENDCHAR
STARTCHAR uni0189
ENCODING 393
SWIDTH 794 0
DWIDTH 15 0
BBX 14 14 0 0
BITMAP
FFC0
3870
3838
3818
381C
381C
FF1C
381C
381C
381C
3818
3838
3870
FFC0
ENDCHAR
STARTCHAR uni018E
ENCODING 398
SWIDTH 601 0
DWIDTH 11 0
BBX 10 14 1 0
BITMAP
FFC0
C380
8380
0380
0380
0380
2380
3F80
2380
0380
0380
4380
4380
7FC0
ENDCHAR
STARTCHAR florin
ENCODING 402
SWIDTH 623 0
DWIDTH 12 0
BBX 10 18 2 -4
BITMAP
03C0
0E40
0C40
1C00
1C00
3800
3800
7E00
3800
3800
7000
7000
7000
7000
7000
E000
E000
E000
ENDCHAR
STARTCHAR uni0197
ENCODING 407
SWIDTH 349 0
DWIDTH 7 0
BBX 5 14 1 0
BITMAP
F8
70
70
70
70
70
F8
70
70
70
70
70
70
F8
ENDCHAR
STARTCHAR uni019A
ENCODING 410
SWIDTH 325 0
DWIDTH 6 0
BBX 6 14 0 0
BITMAP
F8
38
38
38
38
38
7C
38
38
38
38
38
38
FC
ENDCHAR
STARTCHAR uni019D
ENCODING 413
SWIDTH 788 0
DWIDTH 15 0
BBX 15 18 -1 -4
BITMAP
3C0E
1C04
1E04
1F04
1784
1784
13C4
11E4
10E4
1074
1C7C
1C3C
1C1C
1C0C
1C00
9C00
9C00
F800
ENDCHAR
STARTCHAR uni019F
ENCODING 415
SWIDTH 810 0
DWIDTH 15 0
BBX 14 14 1 0
BITMAP
0FC0
3870
7038
7038
E01C
E01C
FFFC
E01C
E01C
E01C
7038
7038
3870
0FC0
ENDCHAR
STARTCHAR Ohorn
ENCODING 416
SWIDTH 810 0
DWIDTH 15 0
BBX 16 14 1 0
BITMAP
0FC7
3877
703B
703B
E01E
E01C
E01C
E01C
E01C
E01C
7038
7038
3870
0FC0
ENDCHAR
STARTCHAR ohorn
ENCODING 417
SWIDTH 617 0
DWIDTH 12 0
BBX 13 10 0 0
BITMAP
1F38
71F8
60D8
E0F8
E0F0
E0E0
E0E0
60C0
71C0
1F00
ENDCHAR
STARTCHAR uni01A7
ENCODING 423
SWIDTH 556 0
DWIDTH 11 0
BBX 9 14 1 0
BITMAP
7E00
4700
4380
0380
0780
0F80
3F00
7C00
F000
E000
E000
E080
7180
3F80
ENDCHAR
STARTCHAR uni01A8
ENCODING 424
SWIDTH 525 0
DWIDTH 10 0
BBX 8 10 1 0
BITMAP
7C
47
47
0F
7F
FE
F0
E1
E1
3F
ENDCHAR
STARTCHAR uni01AE
ENCODING 430
SWIDTH 714 0
DWIDTH 14 0
BBX 13 18 0 -4
BITMAP
FFF8
C708
8708
0700
0700
0700
0700
0700
0700
0700
0700
0700
0700
0700
0700
0720
0720
03E0
ENDCHAR
STARTCHAR Uhorn
ENCODING 431
SWIDTH 747 0
DWIDTH 14 0
BBX 16 14 0 0
BITMAP
F83F
7017
7013
7013
7016
7010
7010
7010
7010
7010
7010
7030
3820
1FC0
ENDCHAR
STARTCHAR uhorn
ENCODING 432
SWIDTH 654 0
DWIDTH 12 0
BBX 13 10 1 0
BITMAP
F7F8
71F8
71D8
71D8
71F0
71C0
71C0
73C0
7DC0
39E0
ENDCHAR
STARTCHAR uni01B5
ENCODING 437
SWIDTH 639 0
DWIDTH 12 0
BBX 10 14 1 0
BITMAP
7FC0
43C0
4380
0780
0700
0F00
1F00
1C00
3C00
3800
7800
7040
F0C0
FFC0
ENDCHAR
STARTCHAR uni01B6
ENCODING 438
SWIDTH 584 0
DWIDTH 11 0
BBX 9 10 1 0
BITMAP
FF80
C780
8F00
0E00
3E00
3C00
7800
7080
F080
FF80
ENDCHAR
STARTCHAR uni01BB
ENCODING 443
SWIDTH 623 0
DWIDTH 12 0
BBX 9 14 1 0
BITMAP
7E00
C700
8380
0380
0380
0300
FF80
0C00
1800
2000
6000
7F80
FF80
FF80
ENDCHAR
STARTCHAR uni01BC
ENCODING 444
SWIDTH 623 0
DWIDTH 12 0
BBX 8 14 2 0
BITMAP
FF
FF
80
80
80
F8
1E
0F
07
07
07
87
8E
F8
ENDCHAR
STARTCHAR uni01C0
ENCODING 448
SWIDTH 259 0
DWIDTH 5 0
BBX 1 18 2 -4
BITMAP
80
80
80
80
80
80
80
80
80
80
80
80
80
80
80
80
80
80
ENDCHAR
STARTCHAR uni01C2
ENCODING 450
SWIDTH 623 0
DWIDTH 12 0
BBX 11 18 0 -3
BITMAP
0400
0400
0400
0400
0400
0400
0400
FFE0
0400
0400
0400
FFE0
0400
0400
0400
0400
0400
0400
ENDCHAR
STARTCHAR uni01C3
ENCODING 451
SWIDTH 265 0
DWIDTH 5 0
BBX 3 14 1 0
BITMAP
E0
E0
E0
E0
E0
E0
40
40
40
40
00
E0
E0
E0
ENDCHAR
STARTCHAR uni01CD
ENCODING 461
SWIDTH 795 0
DWIDTH 15 0
BBX 15 18 0 0
BITMAP
0660
03C0
0180
0000
0100
0380
0380
03C0
05C0
05E0
08E0
08F0
1070
1FF0
2038
2038
601C
F07E
ENDCHAR
STARTCHAR uni01CE
ENCODING 462
SWIDTH 556 0
DWIDTH 11 0
BBX 10 14 0 0
BITMAP
3300
1E00
0C00
0000
3E00
6380
4380
0380
3F80
F380
E380
E380
E380
7DC0
ENDCHAR
STARTCHAR uni01CF
ENCODING 463
SWIDTH 349 0
DWIDTH 7 0
BBX 6 18 1 0
BITMAP
CC
78
30
00
F8
70
70
70
70
70
70
70
70
70
70
70
70
F8
ENDCHAR
STARTCHAR uni01D0
ENCODING 464
SWIDTH 325 0
DWIDTH 6 0
BBX 6 14 0 0
BITMAP
CC
78
30
00
F8
38
38
38
38
38
38
38
38
FC
ENDCHAR
STARTCHAR uni01D1
ENCODING 465
SWIDTH 810 0
DWIDTH 15 0
BBX 14 18 1 0
BITMAP
0CC0
0780
0300
0000
0FC0
3870
7038
7038
E01C
E01C
E01C
E01C
E01C
E01C
7038
7038
3870
0FC0
ENDCHAR
STARTCHAR uni01D2
ENCODING 466
SWIDTH 617 0
DWIDTH 12 0
BBX 11 14 0 0
BITMAP
1980
0F00
0600
0000
1F00
71C0
60C0
E0E0
E0E0
E0E0
E0E0
60C0
71C0
1F00
ENDCHAR
STARTCHAR uni01D3
ENCODING 467
SWIDTH 747 0
DWIDTH 14 0
BBX 14 18 0 0
BITMAP
1980
0F00
0600
0000
F83C
7010
7010
7010
7010
7010
7010
7010
7010
7010
7010
7030
3820
1FC0
ENDCHAR
STARTCHAR uni01D4
ENCODING 468
SWIDTH 654 0
DWIDTH 12 0
BBX 11 14 1 0
BITMAP
3300
1E00
0C00
0000
F7C0
71C0
71C0
71C0
71C0
71C0
71C0
73C0
7DC0
39E0
ENDCHAR
STARTCHAR uni01D5
ENCODING 469
SWIDTH 747 0
DWIDTH 14 0
BBX 14 19 0 0
BITMAP
0FC0
0000
0CC0
0CC0
0000
F83C
7010
7010
7010
7010
7010
7010
7010
7010
7010
7010
7030
3820
1FC0
ENDCHAR
STARTCHAR uni01D6
ENCODING 470
SWIDTH 654 0
DWIDTH 12 0
BBX 11 15 1 0
BITMAP
1F80
0000
1980
1980
0000
F7C0
71C0
71C0
71C0
71C0
71C0
71C0
73C0
7DC0
39E0
ENDCHAR
STARTCHAR uni01D7
ENCODING 471
SWIDTH 747 0
DWIDTH 14 0
BBX 14 21 0 0
BITMAP
01C0
0300
0600
0000
0CC0
0CC0
0000
F83C
7010
7010
7010
7010
7010
7010
7010
7010
7010
7010
7030
3820
1FC0
ENDCHAR
STARTCHAR uni01D8
ENCODING 472
SWIDTH 654 0
DWIDTH 12 0
BBX 11 17 1 0
BITMAP
0380
0600
0C00
0000
1980
1980
0000
F7C0
71C0
71C0
71C0
71C0
71C0
71C0
73C0
7DC0
39E0
ENDCHAR
STARTCHAR uni01D9
ENCODING 473
SWIDTH 747 0
DWIDTH 14 0
BBX 14 21 0 0
BITMAP
0CC0
0780
0300
0000
0CC0
0CC0
0000
F83C
7010
7010
7010
7010
7010
7010
7010
7010
7010
7010
7030
3820
1FC0
ENDCHAR
STARTCHAR uni01DA
ENCODING 474
SWIDTH 654 0
DWIDTH 12 0
BBX 11 17 1 0
BITMAP
1980
0F00
0600
0000
1980
1980
0000
F7C0
71C0
71C0
71C0
71C0
71C0
71C0
73C0
7DC0
39E0
ENDCHAR
STARTCHAR uni01DB
ENCODING 475
SWIDTH 747 0
DWIDTH 14 0
BBX 14 21 0 0
BITMAP
1C00
0600
0300
0000
0CC0
0CC0
0000
F83C
7010
7010
7010
7010
7010
7010
7010
7010
7010
7010
7030
3820
1FC0
ENDCHAR
STARTCHAR uni01DC
ENCODING 476
SWIDTH 654 0
DWIDTH 12 0
BBX 11 17 1 0
BITMAP
3800
0C00
0600
0000
1980
1980
0000
F7C0
71C0
71C0
71C0
71C0
71C0
71C0
73C0
7DC0
39E0
ENDCHAR
STARTCHAR uni01DD
ENCODING 477
SWIDTH 568 0
DWIDTH 11 0
BBX 9 10 1 0
BITMAP
FC00
8F00
0700
0380
0380
FF80
E380
E300
6300
3C00
ENDCHAR
STARTCHAR uni01DE
ENCODING 478
SWIDTH 795 0
DWIDTH 15 0
BBX 15 19 0 0
BITMAP
07E0
0000
0660
0660
0000
0100
0380
0380
03C0
05C0
05E0
08E0
08F0
1070
1FF0
2038
2038
601C
F07E
ENDCHAR
STARTCHAR uni01DF
ENCODING 479
SWIDTH 556 0
DWIDTH 11 0
BBX 10 15 0 0
BITMAP
3F00
0000
3300
3300
0000
3E00
6380
4380
0380
3F80
F380
E380
E380
E380
7DC0
ENDCHAR
STARTCHAR uni01E0
ENCODING 480
SWIDTH 795 0
DWIDTH 15 0
BBX 15 20 0 0
BITMAP
07E0
0000
0180
0180
0180
0000
0100
0380
0380
03C0
05C0
05E0
08E0
08F0
1070
1FF0
2038
2038
601C
F07E
ENDCHAR
STARTCHAR uni01E1
ENCODING 481
SWIDTH 556 0
DWIDTH 11 0
BBX 10 16 0 0
BITMAP
3F00
0000
0C00
0C00
0C00
0000
3E00
6380
4380
0380
3F80
F380
E380
E380
E380
7DC0
ENDCHAR
STARTCHAR uni01E2
ENCODING 482
SWIDTH 959 0
DWIDTH 18 0
BBX 18 16 0 0
BITMAP
00FC00
000000
007FC0
00F040
01F040
017000
027000
027080
047F80
0C7080
087000
1FF000
307000
207000
407040
E1FFC0
ENDCHAR
STARTCHAR uni01E3
ENCODING 483
SWIDTH 858 0
DWIDTH 16 0
BBX 15 12 0 0
BITMAP
07E0
0000
3E78
638C
038E
038E
3FFE
F380
E380
E3C0
F3E2
7CFE
ENDCHAR
STARTCHAR uni01E4
ENCODING 484
SWIDTH 753 0
DWIDTH 14 0
BBX 14 14 1 0
BITMAP
0FF0
3C30
7010
7000
E000
E000
E000
E000
E0F8
E070
707C
7070
3870
0FF0
ENDCHAR
STARTCHAR uni01E5
ENCODING 485
SWIDTH 599 0
DWIDTH 11 0
BBX 11 14 0 -4
BITMAP
1FE0
3360
7380
7380
7380
3300
1E00
3000
7F80
3FC0
FFE0
E1C0
F380
3F00
ENDCHAR
STARTCHAR Gcaron
ENCODING 486
SWIDTH 753 0
DWIDTH 14 0
BBX 13 18 1 0
BITMAP
1980
0F00
0600
0000
0FF0
3C30
7010
7000
E000
E000
E000
E000
E0F8
E070
7070
7070
3870
0FF0
ENDCHAR
STARTCHAR gcaron
ENCODING 487
SWIDTH 599 0
DWIDTH 11 0
BBX 11 18 0 -4
BITMAP
1980
0F00
0600
0000
1FE0
3360
7380
7380
7380
3300
1E00
3000
7F80
3FC0
61C0
E1C0
F380
3F00
ENDCHAR
STARTCHAR uni01E8
ENCODING 488
SWIDTH 747 0
DWIDTH 14 0
BBX 14 18 0 0
BITMAP
1980
0F00
0600
0000
F8F8
7020
7040
7180
7300
7600
7E00
7F00
7780
73C0
71E0
71E0
70F8
F9FC
ENDCHAR
STARTCHAR uni01E9
ENCODING 489
SWIDTH 654 0
DWIDTH 12 0
BBX 12 18 0 0
BITMAP
6600
3C00
1800
0000
F800
3800
3800
3800
38E0
38C0
3980
3900
3B00
3F80
3B80
3BC0
39E0
FCF0
ENDCHAR
STARTCHAR uni01EA
ENCODING 490
SWIDTH 810 0
DWIDTH 15 0
BBX 14 18 1 -4
BITMAP
0FC0
3870
7038
7038
E01C
E01C
E01C
E01C
E01C
E01C
7038
7038
3870
0FC0
0000
0100
0200
0380
ENDCHAR
STARTCHAR uni01EB
ENCODING 491
SWIDTH 617 0
DWIDTH 12 0
BBX 11 14 0 -4
BITMAP
1F00
71C0
60C0
E0E0
E0E0
E0E0
E0E0
60C0
71C0
1F00
0000
0400
0800
0E00
ENDCHAR
STARTCHAR uni01EC
ENCODING 492
SWIDTH 810 0
DWIDTH 15 0
BBX 14 20 1 -4
BITMAP
0FC0
0000
0FC0
3870
7038
7038
E01C
E01C
E01C
E01C
E01C
E01C
7038
7038
3870
0FC0
0000
0100
0200
0380
ENDCHAR
STARTCHAR uni01ED
ENCODING 493
SWIDTH 617 0
DWIDTH 12 0
BBX 11 16 0 -4
BITMAP
1F80
0000
1F00
71C0
60C0
E0E0
E0E0
E0E0
E0E0
60C0
71C0
1F00
0000
0400
0800
0E00
ENDCHAR
STARTCHAR uni01F0
ENCODING 496
SWIDTH 355 0
DWIDTH 7 0
BBX 7 18 0 -4
BITMAP
66
3C
18
00
3C
1C
1C
1C
1C
1C
1C
1C
1C
1C
1C
9C
9C
F8
ENDCHAR
STARTCHAR uni01F4
ENCODING 500
SWIDTH 753 0
DWIDTH 14 0
BBX 13 18 1 0
BITMAP
01C0
0300
0600
0000
0FF0
3C30
7010
7000
E000
E000
E000
E000
E0F8
E070
7070
7070
3870
0FF0
ENDCHAR
STARTCHAR uni01F5
ENCODING 501
SWIDTH 599 0
DWIDTH 11 0
BBX 11 18 0 -4
BITMAP
0380
0600
0C00
0000
1FE0
3360
7380
7380
7380
3300
1E00
3000
7F80
3FC0
61C0
E1C0
F380
3F00
ENDCHAR
STARTCHAR uni01F8
ENCODING 504
SWIDTH 788 0
DWIDTH 15 0
BBX 13 18 1 0
BITMAP
3800
0C00
0600
0000
F038
7010
7810
7C10
5E10
5E10
4F10
4790
4390
41D0
41F0
40F0
4070
E030
ENDCHAR
STARTCHAR uni01F9
ENCODING 505
SWIDTH 654 0
DWIDTH 12 0
BBX 12 14 0 0
BITMAP
3800
0C00
0600
0000
F9C0
7BE0
3CE0
38E0
38E0
38E0
38E0
38E0
38E0
FDF0
ENDCHAR
STARTCHAR Aringacute
ENCODING 506
SWIDTH 795 0
DWIDTH 15 0
BBX 15 22 0 0
BITMAP
00E0
0180
0300
0000
0380
0280
0380
0000
0100
0380
0380
03C0
05C0
05E0
08E0
08F0
1070
1FF0
2038
2038
601C
F07E
ENDCHAR
STARTCHAR aringacute
ENCODING 507
SWIDTH 556 0
DWIDTH 11 0
BBX 10 18 0 0
BITMAP
0700
0C00
1800
0000
1C00
1400
1C00
0000
3E00
6380
4380
0380
3F80
F380
E380
E380
E380
7DC0
ENDCHAR
STARTCHAR AEacute
ENCODING 508
SWIDTH 959 0
DWIDTH 18 0
BBX 18 18 0 0
BITMAP
001C00
003000
006000
000000
007FC0
00F040
01F040
017000
027000
027080
047F80
0C7080
087000
1FF000
307000
207000
407040
E1FFC0
ENDCHAR
STARTCHAR aeacute
ENCODING 509
SWIDTH 858 0
DWIDTH 16 0
BBX 15 14 0 0
BITMAP
0070
00C0
0180
0000
3E78
638C
038E
038E
3FFE
F380
E380
E3C0
F3E2
7CFE
ENDCHAR
STARTCHAR Oslashacute
ENCODING 510
SWIDTH 810 0
DWIDTH 15 0
BBX 14 18 1 0
BITMAP
00E0
0180
0300
0000
0FCC
3878
7038
7038
E05C
E09C
E11C
E21C
E41C
E81C
7038
7038
7870
CFC0
ENDCHAR
STARTCHAR oslashacute
ENCODING 511
SWIDTH 617 0
DWIDTH 12 0
BBX 12 14 0 0
BITMAP
01C0
0300
0600
0000
0FB0
38E0
3060
71F0
7370
7670
7870
3060
38E0
CF80
ENDCHAR
STARTCHAR uni0200
ENCODING 512
SWIDTH 795 0
DWIDTH 15 0
BBX 15 18 0 0
BITMAP
1B00
0580
0240
0000
0100
0380
0380
03C0
05C0
05E0
08E0
08F0
1070
1FF0
2038
2038
601C
F07E
ENDCHAR
STARTCHAR uni0201
ENCODING 513
SWIDTH 556 0
DWIDTH 11 0
BBX 10 14 0 0
BITMAP
6C00
1600
0900
0000
3E00
6380
4380
0380
3F80
F380
E380
E380
E380
7DC0
ENDCHAR
STARTCHAR uni0202
ENCODING 514
SWIDTH 795 0
DWIDTH 15 0
BBX 15 18 0 0
BITMAP
0380
07C0
0820
0000
0100
0380
0380
03C0
05C0
05E0
08E0
08F0
1070
1FF0
2038
2038
601C
F07E
ENDCHAR
STARTCHAR uni0203
ENCODING 515
SWIDTH 556 0
DWIDTH 11 0
BBX 10 14 0 0
BITMAP
0E00
1F00
2080
0000
3E00
6380
4380
0380
3F80
F380
E380
E380
E380
7DC0
ENDCHAR
STARTCHAR uni0204
ENCODING 516
SWIDTH 601 0
DWIDTH 11 0
BBX 10 18 1 0
BITMAP
D800
2C00
1200
0000
FF80
7080
7080
7000
7000
7100
7F00
7100
7000
7000
7000
7040
70C0
FFC0
ENDCHAR
STARTCHAR uni0205
ENCODING 517
SWIDTH 568 0
DWIDTH 11 0
BBX 9 14 1 0
BITMAP
D800
2C00
1200
0000
1E00
6300
6380
E380
FF80
E000
E000
7000
7880
1F80
ENDCHAR
STARTCHAR uni0206
ENCODING 518
SWIDTH 601 0
DWIDTH 11 0
BBX 10 18 1 0
BITMAP
1C00
3E00
4100
0000
FF80
7080
7080
7000
7000
7100
7F00
7100
7000
7000
7000
7040
70C0
FFC0
ENDCHAR
STARTCHAR uni0207
ENCODING 519
SWIDTH 568 0
DWIDTH 11 0
BBX 9 14 1 0
BITMAP
1C00
3E00
4100
0000
1E00
6300
6380
E380
FF80
E000
E000
7000
7880
1F80
ENDCHAR
STARTCHAR uni0208
ENCODING 520
SWIDTH 349 0
DWIDTH 7 0
BBX 7 18 -1 0
BITMAP
D8
2C
12
00
3E
1C
1C
1C
1C
1C
1C
1C
1C
1C
1C
1C
1C
3E
ENDCHAR
STARTCHAR uni0209
ENCODING 521
SWIDTH 325 0
DWIDTH 6 0
BBX 7 14 -1 0
BITMAP
D8
2C
12
00
7C
1C
1C
1C
1C
1C
1C
1C
1C
7E
ENDCHAR
STARTCHAR uni020A
ENCODING 522
SWIDTH 349 0
DWIDTH 7 0
BBX 7 18 0 0
BITMAP
38
7C
82
00
7C
38
38
38
38
38
38
38
38
38
38
38
38
7C
ENDCHAR
STARTCHAR uni020B
ENCODING 523
SWIDTH 325 0
DWIDTH 6 0
BBX 7 14 0 0
BITMAP
38
7C
82
00
F8
38
38
38
38
38
38
38
38
FC
ENDCHAR
STARTCHAR uni020C
ENCODING 524
SWIDTH 810 0
DWIDTH 15 0
BBX 14 18 1 0
BITMAP
1B00
0580
0240
0000
0FC0
3870
7038
7038
E01C
E01C
E01C
E01C
E01C
E01C
7038
7038
3870
0FC0
ENDCHAR
STARTCHAR uni020D
ENCODING 525
SWIDTH 617 0
DWIDTH 12 0
BBX 11 14 0 0
BITMAP
6C00
1600
0900
0000
1F00
71C0
60C0
E0E0
E0E0
E0E0
E0E0
60C0
71C0
1F00
ENDCHAR
STARTCHAR uni020E
ENCODING 526
SWIDTH 810 0
DWIDTH 15 0
BBX 14 18 1 0
BITMAP
0380
07C0
0820
0000
0FC0
3870
7038
7038
E01C
E01C
E01C
E01C
E01C
E01C
7038
7038
3870
0FC0
ENDCHAR
STARTCHAR uni020F
ENCODING 527
SWIDTH 617 0
DWIDTH 12 0
BBX 11 14 0 0
BITMAP
0E00
1F00
2080
0000
1F00
71C0
60C0
E0E0
E0E0
E0E0
E0E0
60C0
71C0
1F00
ENDCHAR
STARTCHAR uni0210
ENCODING 528
SWIDTH 720 0
DWIDTH 14 0
BBX 13 18 1 0
BITMAP
6C00
1600
0900
0000
FF00
7180
71C0
71C0
71C0
71C0
7380
7F00
7700
7380
73C0
71E0
70F0
F8F8
ENDCHAR
STARTCHAR uni0211
ENCODING 529
SWIDTH 462 0
DWIDTH 9 0
BBX 9 14 0 0
BITMAP
D800
2C00
1200
0000
F980
3F80
3C80
3800
3800
3800
3800
3800
3800
FE00
ENDCHAR
STARTCHAR uni0212
ENCODING 530
SWIDTH 720 0
DWIDTH 14 0
BBX 13 18 1 0
BITMAP
0E00
1F00
2080
0000
FF00
7180
71C0
71C0
71C0
71C0
7380
7F00
7700
7380
73C0
71E0
70F0
F8F8
ENDCHAR
STARTCHAR uni0213
ENCODING 531
SWIDTH 462 0
DWIDTH 9 0
BBX 9 14 0 0
BITMAP
1C00
3E00
4100
0000
F980
3F80
3C80
3800
3800
3800
3800
3800
3800
FE00
ENDCHAR
STARTCHAR uni0214
ENCODING 532
SWIDTH 747 0
DWIDTH 14 0
BBX 14 18 0 0
BITMAP
3600
0B00
0480
0000
F83C
7010
7010
7010
7010
7010
7010
7010
7010
7010
7010
7030
3820
1FC0
ENDCHAR
STARTCHAR uni0215
ENCODING 533
SWIDTH 654 0
DWIDTH 12 0
BBX 11 14 1 0
BITMAP
6C00
1600
0900
0000
F7C0
71C0
71C0
71C0
71C0
71C0
71C0
73C0
7DC0
39E0
ENDCHAR
STARTCHAR uni0216
ENCODING 534
SWIDTH 747 0
DWIDTH 14 0
BBX 14 18 0 0
BITMAP
0700
0F80
1040
0000
F83C
7010
7010
7010
7010
7010
7010
7010
7010
7010
7010
7030
3820
1FC0
ENDCHAR
STARTCHAR uni0217
ENCODING 535
SWIDTH 654 0
DWIDTH 12 0
BBX 11 14 1 0
BITMAP
0E00
1F00
2080
0000
F7C0
71C0
71C0
71C0
71C0
71C0
71C0
73C0
7DC0
39E0
ENDCHAR
STARTCHAR Scommaaccent
ENCODING 536
SWIDTH 556 0
DWIDTH 11 0
BBX 9 22 1 -8
BITMAP
3F00
7100
E100
E000
F000
F800
7E00
1F00
0780
0380
0380
8380
C700
FE00
0000
1C00
1C00
1C00
0C00
0C00
0C00
1800
ENDCHAR
STARTCHAR scommaaccent
ENCODING 537
SWIDTH 525 0
DWIDTH 10 0
BBX 8 18 1 -8
BITMAP
3E
E2
E2
F0
FE
7F
0F
87
87
FC
00
1C
1C
1C
0C
0C
0C
18
ENDCHAR
STARTCHAR Tcommaaccent
ENCODING 538
SWIDTH 714 0
DWIDTH 14 0
BBX 13 22 0 -8
BITMAP
FFF8
C708
8708
0700
0700
0700
0700
0700
0700
0700
0700
0700
0700
1FC0
0000
0700
0700
0700
0300
0300
0300
0600
ENDCHAR
STARTCHAR tcommaaccent
ENCODING 539
SWIDTH 389 0
DWIDTH 7 0
BBX 6 21 1 -8
BITMAP
30
70
70
FC
70
70
70
70
70
70
70
70
3C
00
70
70
70
30
30
30
60
ENDCHAR
STARTCHAR uni021E
ENCODING 542
SWIDTH 798 0
DWIDTH 15 0
BBX 13 18 1 0
BITMAP
0CC0
0780
0300
0000
F8F8
7070
7070
7070
7070
7070
7FF0
7070
7070
7070
7070
7070
7070
F8F8
ENDCHAR
STARTCHAR uni021F
ENCODING 543
SWIDTH 654 0
DWIDTH 12 0
BBX 12 18 0 0
BITMAP
6600
3C00
1800
0000
F800
3800
3800
3800
39C0
3BE0
3CE0
38E0
38E0
38E0
38E0
38E0
38E0
FDF0
ENDCHAR
STARTCHAR uni0226
ENCODING 550
SWIDTH 795 0
DWIDTH 15 0
BBX 15 18 0 0
BITMAP
0180
0180
0180
0000
0100
0380
0380
03C0
05C0
05E0
08E0
08F0
1070
1FF0
2038
2038
601C
F07E
ENDCHAR
STARTCHAR uni0227
ENCODING 551
SWIDTH 556 0
DWIDTH 11 0
BBX 10 14 0 0
BITMAP
0C00
0C00
0C00
0000
3E00
6380
4380
0380
3F80
F380
E380
E380
E380
7DC0
ENDCHAR
STARTCHAR uni0228
ENCODING 552
SWIDTH 601 0
DWIDTH 11 0
BBX 10 18 1 -4
BITMAP
FF80
7080
7080
7000
7000
7100
7F00
7100
7000
7000
7000
7040
70C0
FFC0
0800
1C00
0C00
1C00
ENDCHAR
STARTCHAR uni0229
ENCODING 553
SWIDTH 568 0
DWIDTH 11 0
BBX 9 14 1 -4
BITMAP
1E00
6300
6380
E380
FF80
E000
E000
7000
7880
1F80
0800
1C00
0C00
1C00
ENDCHAR
STARTCHAR uni022A
ENCODING 554
SWIDTH 810 0
DWIDTH 15 0
BBX 14 19 1 0
BITMAP
0FC0
0000
0CC0
0CC0
0000
0FC0
3870
7038
7038
E01C
E01C
E01C
E01C
E01C
E01C
7038
7038
3870
0FC0
ENDCHAR
STARTCHAR uni022B
ENCODING 555
SWIDTH 617 0
DWIDTH 12 0
BBX 11 15 0 0
BITMAP
3F00
0000
3300
3300
0000
1F00
71C0
60C0
E0E0
E0E0
E0E0
E0E0
60C0
71C0
1F00
ENDCHAR
STARTCHAR uni022C
ENCODING 556
SWIDTH 810 0
DWIDTH 15 0
BBX 14 20 1 0
BITMAP
0FC0
0000
0640
0FC0
0980
0000
0FC0
3870
7038
7038
E01C
E01C
E01C
E01C
E01C
E01C
7038
7038
3870
0FC0
ENDCHAR
STARTCHAR uni022D
ENCODING 557
SWIDTH 617 0
DWIDTH 12 0
BBX 11 16 0 0
BITMAP
3F00
0000
1900
3F00
2600
0000
1F00
71C0
60C0
E0E0
E0E0
E0E0
E0E0
60C0
71C0
1F00
ENDCHAR
STARTCHAR uni022E
ENCODING 558
SWIDTH 810 0
DWIDTH 15 0
BBX 14 18 1 0
BITMAP
0300
0300
0300
0000
0FC0
3870
7038
7038
E01C
E01C
E01C
E01C
E01C
E01C
7038
7038
3870
0FC0
ENDCHAR
STARTCHAR uni022F
ENCODING 559
SWIDTH 617 0
DWIDTH 12 0
BBX 11 14 0 0
BITMAP
0600
0600
0600
0000
1F00
71C0
60C0
E0E0
E0E0
E0E0
E0E0
60C0
71C0
1F00
ENDCHAR
STARTCHAR uni0230
ENCODING 560
SWIDTH 810 0
DWIDTH 15 0
BBX 14 20 1 0
BITMAP
0FC0
0000
0300
0300
0300
0000
0FC0
3870
7038
7038
E01C
E01C
E01C
E01C
E01C
E01C
7038
7038
3870
0FC0
ENDCHAR
STARTCHAR uni0231
ENCODING 561
SWIDTH 617 0
DWIDTH 12 0
BBX 11 16 0 0
BITMAP
1F80
0000
0600
0600
0600
0000
1F00
71C0
60C0
E0E0
E0E0
E0E0
E0E0
60C0
71C0
1F00
ENDCHAR
STARTCHAR uni0232
ENCODING 562
SWIDTH 717 0
DWIDTH 14 0
BBX 13 16 0 0
BITMAP
1F80
0000
FC38
7030
3820
3C60
1C40
1E80
0F80
0700
0700
0700
0700
0700
0700
1F80
ENDCHAR
STARTCHAR uni0233
ENCODING 563
SWIDTH 654 0
DWIDTH 12 0
BBX 12 16 0 -4
BITMAP
1F80
0000
FCF0
7020
3840
3840
1C80
1C80
1F00
0F00
0E00
0600
0400
0800
1800
3000
ENDCHAR
STARTCHAR uni0250
ENCODING 592
SWIDTH 556 0
DWIDTH 11 0
BBX 10 10 0 0
BITMAP
EF80
71C0
71C0
71C0
73C0
7F00
7000
7080
7180
1F00
ENDCHAR
STARTCHAR uni0254
ENCODING 596
SWIDTH 541 0
DWIDTH 10 0
BBX 9 10 0 0
BITMAP
FC00
8700
8300
0380
0380
0380
0380
0700
8F00
FC00
ENDCHAR
STARTCHAR uni0258
ENCODING 600
SWIDTH 568 0
DWIDTH 11 0
BBX 9 10 1 0
BITMAP
3C00
6300
E300
E380
FF80
0380
0380
0700
8F00
FC00
ENDCHAR
STARTCHAR uni0259
ENCODING 601
SWIDTH 568 0
DWIDTH 11 0
BBX 9 10 1 0
BITMAP
FC00
8F00
0700
0380
0380
FF80
E380
E300
6300
3C00
ENDCHAR
STARTCHAR uni025F
ENCODING 607
SWIDTH 416 0
DWIDTH 8 0
BBX 9 14 0 -4
BITMAP
1F80
0E00
0E00
0E00
0E00
0E00
0E00
0E00
0E00
7F80
0E00
8E00
8E00
FC00
ENDCHAR
STARTCHAR uni0265
ENCODING 613
SWIDTH 654 0
DWIDTH 12 0
BBX 12 14 0 -4
BITMAP
FBF0
71C0
71C0
71C0
71C0
71C0
71C0
73C0
7DC0
39C0
01C0
01C0
01C0
01F0
ENDCHAR
STARTCHAR uni0275
ENCODING 629
SWIDTH 617 0
DWIDTH 12 0
BBX 11 10 0 0
BITMAP
1F00
71C0
60C0
E0E0
FFE0
E0E0
E0E0
60C0
71C0
1F00
ENDCHAR
STARTCHAR uni0279
ENCODING 633
SWIDTH 462 0
DWIDTH 9 0
BBX 9 10 0 0
BITMAP
3F80
0E00
0E00
0E00
0E00
0E00
0E00
9E00
FE00
CF80
ENDCHAR
STARTCHAR uni0287
ENCODING 647
SWIDTH 389 0
DWIDTH 7 0
BBX 6 13 1 0
BITMAP
F0
38
38
38
38
38
38
38
38
FC
38
38
30
ENDCHAR
STARTCHAR uni0288
ENCODING 648
SWIDTH 389 0
DWIDTH 7 0
BBX 7 17 1 -4
BITMAP
30
70
70
FC
70
70
70
70
70
70
70
70
70
70
72
72
3E
ENDCHAR
STARTCHAR uni0289
ENCODING 649
SWIDTH 654 0
DWIDTH 12 0
BBX 11 10 1 0
BITMAP
F7C0
71C0
71C0
71C0
FFE0
71C0
71C0
73C0
7DC0
39E0
ENDCHAR
STARTCHAR uni028C
ENCODING 652
SWIDTH 657 0
DWIDTH 12 0
BBX 12 10 0 0
BITMAP
0600
0600
0F00
0F00
1B80
1380
21C0
21C0
61E0
F1F0
ENDCHAR
STARTCHAR uni028D
ENCODING 653
SWIDTH 880 0
DWIDTH 17 0
BBX 17 10 0 0
BITMAP
041800
0E1800
0E3C00
1E3C00
177C00
174E00
27CE00
238F00
638700
F10F80
ENDCHAR
STARTCHAR uni028E
ENCODING 654
SWIDTH 654 0
DWIDTH 12 0
BBX 12 14 0 0
BITMAP
00C0
0180
0100
0200
0600
0700
0F00
0F80
1380
1380
21C0
21C0
40E0
F3F0
ENDCHAR
STARTCHAR uni029E
ENCODING 670
SWIDTH 654 0
DWIDTH 12 0
BBX 12 14 0 -4
BITMAP
F3F0
79C0
3DC0
1DC0
1FC0
0DC0
09C0
19C0
31C0
71C0
01C0
01C0
01C0
01F0
ENDCHAR
STARTCHAR uni02BB
ENCODING 699
SWIDTH 265 0
DWIDTH 5 0
BBX 3 5 1 9
BITMAP
60
C0
C0
E0
E0
ENDCHAR
STARTCHAR afii57929
ENCODING 700
SWIDTH 265 0
DWIDTH 5 0
BBX 3 5 1 9
BITMAP
E0
E0
60
60
C0
ENDCHAR
STARTCHAR afii64937
ENCODING 701
SWIDTH 265 0
DWIDTH 5 0
BBX 3 5 1 9
BITMAP
E0
E0
C0
C0
60
ENDCHAR
STARTCHAR circumflex
ENCODING 710
SWIDTH 617 0
DWIDTH 12 0
BBX 6 3 3 11
BITMAP
30
78
CC
ENDCHAR
STARTCHAR caron
ENCODING 711
SWIDTH 617 0
DWIDTH 12 0
BBX 6 3 3 11
BITMAP
CC
78
30
ENDCHAR
STARTCHAR uni02C8
ENCODING 712
SWIDTH 253 0
DWIDTH 5 0
BBX 3 5 1 9
BITMAP
E0
E0
E0
40
40
ENDCHAR
STARTCHAR macron
ENCODING 713
SWIDTH 617 0
DWIDTH 12 0
BBX 6 1 3 13
BITMAP
FC
ENDCHAR
STARTCHAR uni02CA
ENCODING 714
SWIDTH 617 0
DWIDTH 12 0
BBX 5 3 4 11
BITMAP
38
60
C0
ENDCHAR
STARTCHAR uni02CB
ENCODING 715
SWIDTH 617 0
DWIDTH 12 0
BBX 5 3 3 11
BITMAP
E0
30
18
ENDCHAR
STARTCHAR uni02CD
ENCODING 717
SWIDTH 617 0
DWIDTH 12 0
BBX 6 1 3 -2
BITMAP
FC
ENDCHAR
STARTCHAR uni02CE
ENCODING 718
SWIDTH 617 0
DWIDTH 12 0
BBX 5 3 3 -4
BITMAP
E0
30
18
ENDCHAR
STARTCHAR uni02CF
ENCODING 719
SWIDTH 617 0
DWIDTH 12 0
BBX 5 3 4 -4
BITMAP
38
60
C0
ENDCHAR
STARTCHAR breve
ENCODING 728
SWIDTH 617 0
DWIDTH 12 0
BBX 7 3 2 11
BITMAP
82
7C
38
ENDCHAR
STARTCHAR dotaccent
ENCODING 729
SWIDTH 617 0
DWIDTH 12 0
BBX 2 3 5 11
BITMAP
C0
C0
C0
ENDCHAR
STARTCHAR ring
ENCODING 730
SWIDTH 617 0
DWIDTH 12 0
BBX 3 3 4 11
BITMAP
E0
A0
E0
ENDCHAR
STARTCHAR ogonek
ENCODING 731
SWIDTH 617 0
DWIDTH 12 0
BBX 3 3 5 -4
BITMAP
40
80
E0
ENDCHAR
STARTCHAR tilde
ENCODING 732
SWIDTH 617 0
DWIDTH 12 0
BBX 6 3 3 11
BITMAP
64
FC
98
ENDCHAR
STARTCHAR hungarumlaut
ENCODING 733
SWIDTH 617 0
DWIDTH 12 0
BBX 7 3 3 11
BITMAP
36
68
90
ENDCHAR
STARTCHAR uni02EE
ENCODING 750
SWIDTH 470 0
DWIDTH 9 0
BBX 7 5 1 9
BITMAP
EE
EE
EE
66
CC
ENDCHAR
STARTCHAR uni037E
ENCODING 894
SWIDTH 265 0
DWIDTH 5 0
BBX 3 14 1 -4
BITMAP
E0
E0
E0
00
00
00
00
E0
E0
E0
60
60
60
80
ENDCHAR
STARTCHAR tonos
ENCODING 900
SWIDTH 617 0
DWIDTH 12 0
BBX 5 3 4 11
BITMAP
38
60
C0
ENDCHAR
STARTCHAR dieresistonos
ENCODING 901
SWIDTH 617 0
DWIDTH 12 0
BBX 7 6 3 12
BITMAP
0E
18
30
00
CC
CC
ENDCHAR
STARTCHAR anoteleia
ENCODING 903
SWIDTH 623 0
DWIDTH 12 0
BBX 2 3 5 4
BITMAP
C0
C0
C0
ENDCHAR
STARTCHAR mu
ENCODING 956
SWIDTH 705 0
DWIDTH 13 0
BBX 12 14 1 -4
BITMAP
F9E0
38E0
38E0
38E0
38E0
38E0
38E0
39E0
3FE0
3EF0
3800
3800
3800
3800
ENDCHAR
STARTCHAR uni1E00
ENCODING 7680
SWIDTH 795 0
DWIDTH 15 0
BBX 15 18 0 -4
BITMAP
0100
0380
0380
03C0
05C0
05E0
08E0
08F0
1070
1FF0
2038
2038
601C
F07E
0000
01C0
0140
01C0
ENDCHAR
STARTCHAR uni1E01
ENCODING 7681
SWIDTH 556 0
DWIDTH 11 0
BBX 10 14 0 -4
BITMAP
3E00
6380
4380
0380
3F80
F380
E380
E380
E380
7DC0
0000
1C00
1400
1C00
ENDCHAR
STARTCHAR uni1E02
ENCODING 7682
SWIDTH 639 0
DWIDTH 12 0
BBX 10 18 1 0
BITMAP
0C00
0C00
0C00
0000
FF00
73C0
71C0
71C0
71C0
7380
7E00
7300
7180
71C0
71C0
71C0
7380
FF00
ENDCHAR
STARTCHAR uni1E03
ENCODING 7683
SWIDTH 640 0
DWIDTH 12 0
BBX 11 18 0 0
BITMAP
3000
3000
3000
0000
F000
7000
7000
7000
7380
77C0
79E0
70E0
70E0
70E0
70E0
70C0
79C0
7F80
ENDCHAR
STARTCHAR uni1E04
ENCODING 7684
SWIDTH 639 0
DWIDTH 12 0
BBX 10 18 1 -4
BITMAP
FF00
73C0
71C0
71C0
71C0
7380
7E00
7300
7180
71C0
71C0
71C0
7380
FF00
0000
0C00
0C00
0C00
ENDCHAR
STARTCHAR uni1E05
ENCODING 7685
SWIDTH 640 0
DWIDTH 12 0
BBX 11 18 0 -4
BITMAP
F000
7000
7000
7000
7380
77C0
79E0
70E0
70E0
70E0
70E0
70C0
79C0
7F80
0000
0C00
0C00
0C00
ENDCHAR
STARTCHAR uni1E06
ENCODING 7686
SWIDTH 639 0
DWIDTH 12 0
BBX 10 16 1 -2
BITMAP
FF00
73C0
71C0
71C0
71C0
7380
7E00
7300
7180
71C0
71C0
71C0
7380
FF00
0000
3F00
ENDCHAR
STARTCHAR uni1E07
ENCODING 7687
SWIDTH 640 0
DWIDTH 12 0
BBX 11 16 0 -2
BITMAP
F000
7000
7000
7000
7380
77C0
79E0
70E0
70E0
70E0
70E0
70C0
79C0
7F80
0000
3F00
ENDCHAR
STARTCHAR uni1E08
ENCODING 7688
SWIDTH 711 0
DWIDTH 13 0
BBX 12 22 1 -4
BITMAP
0380
0600
0C00
0000
0FE0
3C30
7010
7010
E000
E000
E000
E000
E000
E000
7000
7000
3C10
0FE0
0200
0700
0300
0700
ENDCHAR
STARTCHAR uni1E09
ENCODING 7689
SWIDTH 541 0
DWIDTH 10 0
BBX 9 18 0 -4
BITMAP
0700
0C00
1800
0000
1F80
7080
6080
E000
E000
E000
E000
7000
7880
1F80
0800
1C00
0C00
1C00
ENDCHAR
STARTCHAR uni1E0A
ENCODING 7690
SWIDTH 794 0
DWIDTH 15 0
BBX 13 18 1 0
BITMAP
0600
0600
0600
0000
FF80
70E0
7070
7030
7038
7038
7038
7038
7038
7038
7030
7070
70E0
FF80
ENDCHAR
STARTCHAR uni1E0B
ENCODING 7691
SWIDTH 652 0
DWIDTH 12 0
BBX 11 18 1 0
BITMAP
0300
0300
0300
0000
07C0
01C0
01C0
01C0
3DC0
73C0
61C0
E1C0
E1C0
E1C0
E1C0
F3C0
7DC0
39E0
ENDCHAR
STARTCHAR uni1E0C
ENCODING 7692
SWIDTH 794 0
DWIDTH 15 0
BBX 13 18 1 -4
BITMAP
FF80
70E0
7070
7030
7038
7038
7038
7038
7038
7038
7030
7070
70E0
FF80
0000
0600
0600
0600
ENDCHAR
STARTCHAR uni1E0D
ENCODING 7693
SWIDTH 652 0
DWIDTH 12 0
BBX 11 18 1 -4
BITMAP
07C0
01C0
01C0
01C0
3DC0
73C0
61C0
E1C0
E1C0
E1C0
E1C0
F3C0
7DC0
39E0
0000
0600
0600
0600
ENDCHAR
STARTCHAR uni1E0E
ENCODING 7694
SWIDTH 794 0
DWIDTH 15 0
BBX 13 16 1 -2
BITMAP
FF80
70E0
7070
7030
7038
7038
7038
7038
7038
7038
7030
7070
70E0
FF80
0000
1F80
ENDCHAR
STARTCHAR uni1E0F
ENCODING 7695
SWIDTH 652 0
DWIDTH 12 0
BBX 11 16 1 -2
BITMAP
07C0
01C0
01C0
01C0
3DC0
73C0
61C0
E1C0
E1C0
E1C0
E1C0
F3C0
7DC0
39E0
0000
1F80
ENDCHAR
STARTCHAR uni1E10
ENCODING 7696
SWIDTH 794 0
DWIDTH 15 0
BBX 13 18 1 -4
BITMAP
FF80
70E0
7070
7030
7038
7038
7038
7038
7038
7038
7030
7070
70E0
FF80
0400
0E00
0600
0E00
ENDCHAR
STARTCHAR uni1E11
ENCODING 7697
SWIDTH 652 0
DWIDTH 12 0
BBX 11 18 1 -4
BITMAP
07C0
01C0
01C0
01C0
3DC0
73C0
61C0
E1C0
E1C0
E1C0
E1C0
F3C0
7DC0
39E0
0400
0E00
0600
0E00
ENDCHAR
STARTCHAR uni1E12
ENCODING 7698
SWIDTH 794 0
DWIDTH 15 0
BBX 13 18 1 -4
BITMAP
FF80
70E0
7070
7030
7038
7038
7038
7038
7038
7038
7030
7070
70E0
FF80
0000
0600
0F00
1980
ENDCHAR
STARTCHAR uni1E13
ENCODING 7699
SWIDTH 652 0
DWIDTH 12 0
BBX 11 18 1 -4
BITMAP
07C0
01C0
01C0
01C0
3DC0
73C0
61C0
E1C0
E1C0
E1C0
E1C0
F3C0
7DC0
39E0
0000
0600
0F00
1980
ENDCHAR
STARTCHAR uni1E14
ENCODING 7700
SWIDTH 601 0
DWIDTH 11 0
BBX 10 20 1 0
BITMAP
7000
1800
0C00
0000
7E00
0000
FF80
7080
7080
7000
7000
7100
7F00
7100
7000
7000
7000
7040
70C0
FFC0
ENDCHAR
STARTCHAR uni1E15
ENCODING 7701
SWIDTH 568 0
DWIDTH 11 0
BBX 9 16 1 0
BITMAP
7000
1800
0C00
0000
3F00
0000
1E00
6300
6380
E380
FF80
E000
E000
7000
7880
1F80
ENDCHAR
STARTCHAR uni1E16
ENCODING 7702
SWIDTH 601 0
DWIDTH 11 0
BBX 10 20 1 0
BITMAP
0700
0C00
1800
0000
7E00
0000
FF80
7080
7080
7000
7000
7100
7F00
7100
7000
7000
7000
7040
70C0
FFC0
ENDCHAR
STARTCHAR uni1E17
ENCODING 7703
SWIDTH 568 0
DWIDTH 11 0
BBX 9 16 1 0
BITMAP
0700
0C00
1800
0000
3F00
0000
1E00
6300
6380
E380
FF80
E000
E000
7000
7880
1F80
ENDCHAR
STARTCHAR uni1E18
ENCODING 7704
SWIDTH 601 0
DWIDTH 11 0
BBX 10 18 1 -4
BITMAP
FF80
7080
7080
7000
7000
7100
7F00
7100
7000
7000
7000
7040
70C0
FFC0
0000
0C00
1E00
3300
ENDCHAR
STARTCHAR uni1E19
ENCODING 7705
SWIDTH 568 0
DWIDTH 11 0
BBX 9 14 1 -4
BITMAP
1E00
6300
6380
E380
FF80
E000
E000
7000
7880
1F80
0000
0C00
1E00
3300
ENDCHAR
STARTCHAR uni1E1A
ENCODING 7706
SWIDTH 601 0
DWIDTH 11 0
BBX 10 18 1 -4
BITMAP
FF80
7080
7080
7000
7000
7100
7F00
7100
7000
7000
7000
7040
70C0
FFC0
0000
1900
3F00
2600
ENDCHAR
STARTCHAR uni1E1B
ENCODING 7707
SWIDTH 568 0
DWIDTH 11 0
BBX 9 14 1 -4
BITMAP
1E00
6300
6380
E380
FF80
E000
E000
7000
7880
1F80
0000
3200
7E00
4C00
ENDCHAR
STARTCHAR uni1E1C
ENCODING 7708
SWIDTH 601 0
DWIDTH 11 0
BBX 10 22 1 -4
BITMAP
4100
3E00
1C00
0000
FF80
7080
7080
7000
7000
7100
7F00
7100
7000
7000
7000
7040
70C0
FFC0
0800
1C00
0C00
1C00
ENDCHAR
STARTCHAR uni1E1D
ENCODING 7709
SWIDTH 568 0
DWIDTH 11 0
BBX 9 18 1 -4
BITMAP
4100
3E00
1C00
0000
1E00
6300
6380
E380
FF80
E000
E000
7000
7880
1F80
0800
1C00
0C00
1C00
ENDCHAR
STARTCHAR uni1E1E
ENCODING 7710
SWIDTH 584 0
DWIDTH 11 0
BBX 9 18 1 0
BITMAP
1800
1800
1800
0000
FF80
7080
7080
7000
7000
7100
7F00
7100
7000
7000
7000
7000
7000
FC00
ENDCHAR
STARTCHAR uni1E1F
ENCODING 7711
SWIDTH 416 0
DWIDTH 8 0
BBX 9 18 0 0
BITMAP
0C00
0C00
0C00
0000
1F80
3880
3880
3800
FF00
3800
3800
3800
3800
3800
3800
3800
3800
FC00
ENDCHAR
STARTCHAR uni1E20
ENCODING 7712
SWIDTH 753 0
DWIDTH 14 0
BBX 13 16 1 0
BITMAP
1F80
0000
0FF0
3C30
7010
7000
E000
E000
E000
E000
E0F8
E070
7070
7070
3870
0FF0
ENDCHAR
STARTCHAR uni1E21
ENCODING 7713
SWIDTH 599 0
DWIDTH 11 0
BBX 11 16 0 -4
BITMAP
1F80
0000
1FE0
3360
7380
7380
7380
3300
1E00
3000
7F80
3FC0
61C0
E1C0
F380
3F00
ENDCHAR
STARTCHAR uni1E22
ENCODING 7714
SWIDTH 798 0
DWIDTH 15 0
BBX 13 18 1 0
BITMAP
0300
0300
0300
0000
F8F8
7070
7070
7070
7070
7070
7FF0
7070
7070
7070
7070
7070
7070
F8F8
ENDCHAR
STARTCHAR uni1E23
ENCODING 7715
SWIDTH 654 0
DWIDTH 12 0
BBX 12 18 0 0
BITMAP
1800
1800
1800
0000
F800
3800
3800
3800
39C0
3BE0
3CE0
38E0
38E0
38E0
38E0
38E0
38E0
FDF0
ENDCHAR
STARTCHAR uni1E24
ENCODING 7716
SWIDTH 798 0
DWIDTH 15 0
BBX 13 18 1 -4
BITMAP
F8F8
7070
7070
7070
7070
7070
7FF0
7070
7070
7070
7070
7070
7070
F8F8
0000
0300
0300
0300
ENDCHAR
STARTCHAR uni1E25
ENCODING 7717
SWIDTH 654 0
DWIDTH 12 0
BBX 12 18 0 -4
BITMAP
F800
3800
3800
3800
39C0
3BE0
3CE0
38E0
38E0
38E0
38E0
38E0
38E0
FDF0
0000
0600
0600
0600
ENDCHAR
STARTCHAR uni1E26
ENCODING 7718
SWIDTH 798 0
DWIDTH 15 0
BBX 13 17 1 0
BITMAP
0CC0
0CC0
0000
F8F8
7070
7070
7070
7070
7070
7FF0
7070
7070
7070
7070
7070
7070
F8F8
ENDCHAR
STARTCHAR uni1E27
ENCODING 7719
SWIDTH 654 0
DWIDTH 12 0
BBX 12 17 0 0
BITMAP
6600
6600
0000
F800
3800
3800
3800
39C0
3BE0
3CE0
38E0
38E0
38E0
38E0
38E0
38E0
FDF0
ENDCHAR
STARTCHAR uni1E28
ENCODING 7720
SWIDTH 798 0
DWIDTH 15 0
BBX 13 18 1 -4
BITMAP
F8F8
7070
7070
7070
7070
7070
7FF0
7070
7070
7070
7070
7070
7070
F8F8
0200
0700
0300
0700
ENDCHAR
STARTCHAR uni1E29
ENCODING 7721
SWIDTH 654 0
DWIDTH 12 0
BBX 12 18 0 -4
BITMAP
F800
3800
3800
3800
39C0
3BE0
3CE0
38E0
38E0
38E0
38E0
38E0
38E0
FDF0
0200
0700
0300
0700
ENDCHAR
STARTCHAR uni1E2A
ENCODING 7722
SWIDTH 798 0
DWIDTH 15 0
BBX 13 18 1 -4
BITMAP
F8F8
7070
7070
7070
7070
7070
7FF0
7070
7070
7070
7070
7070
7070
F8F8
0000
1040
0F80
0700
ENDCHAR
STARTCHAR uni1E2B
ENCODING 7723
SWIDTH 654 0
DWIDTH 12 0
BBX 12 18 0 -4
BITMAP
F800
3800
3800
3800
39C0
3BE0
3CE0
38E0
38E0
38E0
38E0
38E0
38E0
FDF0
0000
1040
0F80
0700
ENDCHAR
STARTCHAR uni1E2C
ENCODING 7724
SWIDTH 349 0
DWIDTH 7 0
BBX 6 18 0 -4
BITMAP
7C
38
38
38
38
38
38
38
38
38
38
38
38
7C
00
64
FC
98
ENDCHAR
STARTCHAR uni1E2D
ENCODING 7725
SWIDTH 325 0
DWIDTH 6 0
BBX 6 18 0 -4
BITMAP
38
38
38
00
F8
38
38
38
38
38
38
38
38
FC
00
64
FC
98
ENDCHAR
STARTCHAR uni1E2E
ENCODING 7726
SWIDTH 349 0
DWIDTH 7 0
BBX 7 21 2 0
BITMAP
0E
18
30
00
CC
CC
00
7C
38
38
38
38
38
38
38
38
38
38
38
38
7C
ENDCHAR
STARTCHAR uni1E2F
ENCODING 7727
SWIDTH 325 0
DWIDTH 6 0
BBX 6 17 0 0
BITMAP
1C
30
60
00
CC
CC
00
F8
38
38
38
38
38
38
38
38
FC
ENDCHAR
STARTCHAR uni1E30
ENCODING 7728
SWIDTH 747 0
DWIDTH 14 0
BBX 14 18 0 0
BITMAP
0380
0600
0C00
0000
F8F8
7020
7040
7180
7300
7600
7E00
7F00
7780
73C0
71E0
71E0
70F8
F9FC
ENDCHAR
STARTCHAR uni1E31
ENCODING 7729
SWIDTH 654 0
DWIDTH 12 0
BBX 12 18 0 0
BITMAP
0700
0C00
1800
0000
F800
3800
3800
3800
38E0
38C0
3980
3900
3B00
3F80
3B80
3BC0
39E0
FCF0
ENDCHAR
STARTCHAR uni1E32
ENCODING 7730
SWIDTH 747 0
DWIDTH 14 0
BBX 14 18 0 -4
BITMAP
F8F8
7020
7040
7180
7300
7600
7E00
7F00
7780
73C0
71E0
71E0
70F8
F9FC
0000
0300
0300
0300
ENDCHAR
STARTCHAR uni1E33
ENCODING 7731
SWIDTH 654 0
DWIDTH 12 0
BBX 12 18 0 -4
BITMAP
F800
3800
3800
3800
38E0
38C0
3980
3900
3B00
3F80
3B80
3BC0
39E0
FCF0
0000
0600
0600
0600
ENDCHAR
STARTCHAR uni1E34
ENCODING 7732
SWIDTH 747 0
DWIDTH 14 0
BBX 14 16 0 -2
BITMAP
F8F8
7020
7040
7180
7300
7600
7E00
7F00
7780
73C0
71E0
71E0
70F8
F9FC
0000
0FC0
ENDCHAR
STARTCHAR uni1E35
ENCODING 7733
SWIDTH 654 0
DWIDTH 12 0
BBX 12 16 0 -2
BITMAP
F800
3800
3800
3800
38E0
38C0
3980
3900
3B00
3F80
3B80
3BC0
39E0
FCF0
0000
1F80
ENDCHAR
STARTCHAR uni1E36
ENCODING 7734
SWIDTH 584 0
DWIDTH 11 0
BBX 10 18 1 -4
BITMAP
F800
7000
7000
7000
7000
7000
7000
7000
7000
7000
7000
7040
7040
FFC0
0000
0C00
0C00
0C00
ENDCHAR
STARTCHAR uni1E37
ENCODING 7735
SWIDTH 325 0
DWIDTH 6 0
BBX 6 18 0 -4
BITMAP
F8
38
38
38
38
38
38
38
38
38
38
38
38
FC
00
30
30
30
ENDCHAR
STARTCHAR uni1E38
ENCODING 7736
SWIDTH 584 0
DWIDTH 11 0
BBX 10 20 1 -4
BITMAP
FC00
0000
F800
7000
7000
7000
7000
7000
7000
7000
7000
7000
7000
7040
7040
FFC0
0000
0C00
0C00
0C00
ENDCHAR
STARTCHAR uni1E39
ENCODING 7737
SWIDTH 325 0
DWIDTH 6 0
BBX 6 20 0 -4
BITMAP
FC
00
F8
38
38
38
38
38
38
38
38
38
38
38
38
FC
00
30
30
30
ENDCHAR
STARTCHAR uni1E3A
ENCODING 7738
SWIDTH 584 0
DWIDTH 11 0
BBX 10 16 1 -2
BITMAP
F800
7000
7000
7000
7000
7000
7000
7000
7000
7000
7000
7040
7040
FFC0
0000
3F00
ENDCHAR
STARTCHAR uni1E3B
ENCODING 7739
SWIDTH 325 0
DWIDTH 6 0
BBX 6 16 0 -2
BITMAP
F8
38
38
38
38
38
38
38
38
38
38
38
38
FC
00
FC
ENDCHAR
STARTCHAR uni1E3C
ENCODING 7740
SWIDTH 584 0
DWIDTH 11 0
BBX 10 18 1 -4
BITMAP
F800
7000
7000
7000
7000
7000
7000
7000
7000
7000
7000
7040
7040
FFC0
0000
0C00
1E00
3300
ENDCHAR
STARTCHAR uni1E3D
ENCODING 7741
SWIDTH 325 0
DWIDTH 6 0
BBX 6 18 0 -4
BITMAP
F8
38
38
38
38
38
38
38
38
38
38
38
38
FC
00
30
78
CC
ENDCHAR
STARTCHAR uni1E3E
ENCODING 7742
SWIDTH 904 0
DWIDTH 17 0
BBX 16 18 1 0
BITMAP
00E0
0180
0300
0000
F81F
781C
783C
5C3C
5C3C
5E5C
4E5C
4E9C
479C
479C
471C
431C
401C
E03F
ENDCHAR
STARTCHAR uni1E3F
ENCODING 7743
SWIDTH 967 0
DWIDTH 18 0
BBX 18 14 0 0
BITMAP
007000
00C000
018000
000000
FBCF00
3FFF80
3CF380
38E380
38E380
38E380
38E380
38E380
38E380
FDF7C0
ENDCHAR
STARTCHAR uni1E40
ENCODING 7744
SWIDTH 904 0
DWIDTH 17 0
BBX 16 18 1 0
BITMAP
0180
0180
0180
0000
F81F
781C
783C
5C3C
5C3C
5E5C
4E5C
4E9C
479C
479C
471C
431C
401C
E03F
ENDCHAR
STARTCHAR uni1E41
ENCODING 7745
SWIDTH 967 0
DWIDTH 18 0
BBX 18 14 0 0
BITMAP
00C000
00C000
00C000
000000
FBCF00
3FFF80
3CF380
38E380
38E380
38E380
38E380
38E380
38E380
FDF7C0
ENDCHAR
STARTCHAR uni1E42
ENCODING 7746
SWIDTH 904 0
DWIDTH 17 0
BBX 16 18 1 -4
BITMAP
F81F
781C
783C
5C3C
5C3C
5E5C
4E5C
4E9C
479C
479C
471C
431C
401C
E03F
0000
00C0
00C0
00C0
ENDCHAR
STARTCHAR uni1E43
ENCODING 7747
SWIDTH 967 0
DWIDTH 18 0
BBX 18 14 0 -4
BITMAP
FBCF00
3FFF80
3CF380
38E380
38E380
38E380
38E380
38E380
38E380
FDF7C0
000000
00C000
00C000
00C000
ENDCHAR
STARTCHAR uni1E44
ENCODING 7748
SWIDTH 788 0
DWIDTH 15 0
BBX 13 18 1 0
BITMAP
0600
0600
0600
0000
F038
7010
7810
7C10
5E10
5E10
4F10
4790
4390
41D0
41F0
40F0
4070
E030
ENDCHAR
STARTCHAR uni1E45
ENCODING 7749
SWIDTH 654 0
DWIDTH 12 0
BBX 12 14 0 0
BITMAP
0600
0600
0600
0000
F9C0
7BE0
3CE0
38E0
38E0
38E0
38E0
38E0
38E0
FDF0
ENDCHAR
STARTCHAR uni1E46
ENCODING 7750
SWIDTH 788 0
DWIDTH 15 0
BBX 13 18 1 -4
BITMAP
F038
7010
7810
7C10
5E10
5E10
4F10
4790
4390
41D0
41F0
40F0
4070
E030
0000
0300
0300
0300
ENDCHAR
STARTCHAR uni1E47
ENCODING 7751
SWIDTH 654 0
DWIDTH 12 0
BBX 12 14 0 -4
BITMAP
F9C0
7BE0
3CE0
38E0
38E0
38E0
38E0
38E0
38E0
FDF0
0000
0600
0600
0600
ENDCHAR
STARTCHAR uni1E48
ENCODING 7752
SWIDTH 788 0
DWIDTH 15 0
BBX 13 16 1 -2
BITMAP
F038
7010
7810
7C10
5E10
5E10
4F10
4790
4390
41D0
41F0
40F0
4070
E030
0000
0FC0
ENDCHAR
STARTCHAR uni1E49
ENCODING 7753
SWIDTH 654 0
DWIDTH 12 0
BBX 12 12 0 -2
BITMAP
F9C0
7BE0
3CE0
38E0
38E0
38E0
38E0
38E0
38E0
FDF0
0000
1F80
ENDCHAR
STARTCHAR uni1E4A
ENCODING 7754
SWIDTH 788 0
DWIDTH 15 0
BBX 13 18 1 -4
BITMAP
F038
7010
7810
7C10
5E10
5E10
4F10
4790
4390
41D0
41F0
40F0
4070
E030
0000
0300
0780
0CC0
ENDCHAR
STARTCHAR uni1E4B
ENCODING 7755
SWIDTH 654 0
DWIDTH 12 0
BBX 12 14 0 -4
BITMAP
F9C0
7BE0
3CE0
38E0
38E0
38E0
38E0
38E0
38E0
FDF0
0000
0600
0F00
1980
ENDCHAR
STARTCHAR uni1E4C
ENCODING 7756
SWIDTH 810 0
DWIDTH 15 0
BBX 14 22 1 0
BITMAP
00E0
0180
0300
0000
0640
0FC0
0980
0000
0FC0
3870
7038
7038
E01C
E01C
E01C
E01C
E01C
E01C
7038
7038
3870
0FC0
ENDCHAR
STARTCHAR uni1E4D
ENCODING 7757
SWIDTH 617 0
DWIDTH 12 0
BBX 11 18 0 0
BITMAP
0380
0600
0C00
0000
1900
3F00
2600
0000
1F00
71C0
60C0
E0E0
E0E0
E0E0
E0E0
60C0
71C0
1F00
ENDCHAR
STARTCHAR uni1E4E
ENCODING 7758
SWIDTH 810 0
DWIDTH 15 0
BBX 14 21 1 0
BITMAP
0CC0
0CC0
0000
0640
0FC0
0980
0000
0FC0
3870
7038
7038
E01C
E01C
E01C
E01C
E01C
E01C
7038
7038
3870
0FC0
ENDCHAR
STARTCHAR uni1E4F
ENCODING 7759
SWIDTH 617 0
DWIDTH 12 0
BBX 11 17 0 0
BITMAP
3300
3300
0000
1900
3F00
2600
0000
1F00
71C0
60C0
E0E0
E0E0
E0E0
E0E0
60C0
71C0
1F00
ENDCHAR
STARTCHAR uni1E50
ENCODING 7760
SWIDTH 810 0
DWIDTH 15 0
BBX 14 20 1 0
BITMAP
0E00
0300
0180
0000
0FC0
0000
0FC0
3870
7038
7038
E01C
E01C
E01C
E01C
E01C
E01C
7038
7038
3870
0FC0
ENDCHAR
STARTCHAR uni1E51
ENCODING 7761
SWIDTH 617 0
DWIDTH 12 0
BBX 11 16 0 0
BITMAP
3800
0C00
0600
0000
1F80
0000
1F00
71C0
60C0
E0E0
E0E0
E0E0
E0E0
60C0
71C0
1F00
ENDCHAR
STARTCHAR uni1E52
ENCODING 7762
SWIDTH 810 0
DWIDTH 15 0
BBX 14 20 1 0
BITMAP
00E0
0180
0300
0000
0FC0
0000
0FC0
3870
7038
7038
E01C
E01C
E01C
E01C
E01C
E01C
7038
7038
3870
0FC0
ENDCHAR
STARTCHAR uni1E53
ENCODING 7763
SWIDTH 617 0
DWIDTH 12 0
BBX 11 16 0 0
BITMAP
0380
0600
0C00
0000
1F80
0000
1F00
71C0
60C0
E0E0
E0E0
E0E0
E0E0
60C0
71C0
1F00
ENDCHAR
STARTCHAR uni1E54
ENCODING 7764
SWIDTH 614 0
DWIDTH 12 0
BBX 10 18 1 0
BITMAP
0700
0C00
1800
0000
FF00
7180
71C0
71C0
71C0
71C0
7380
7E00
7000
7000
7000
7000
7000
FC00
ENDCHAR
STARTCHAR uni1E55
ENCODING 7765
SWIDTH 652 0
DWIDTH 12 0
BBX 11 18 0 -4
BITMAP
0380
0600
0C00
0000
F380
77C0
79E0
70E0
70E0
70E0
70E0
70C0
79C0
7780
7000
7000
7000
F800
ENDCHAR
STARTCHAR uni1E56
ENCODING 7766
SWIDTH 614 0
DWIDTH 12 0
BBX 10 18 1 0
BITMAP
0C00
0C00
0C00
0000
FF00
7180
71C0
71C0
71C0
71C0
7380
7E00
7000
7000
7000
7000
7000
FC00
ENDCHAR
STARTCHAR uni1E57
ENCODING 7767
SWIDTH 652 0
DWIDTH 12 0
BBX 11 18 0 -4
BITMAP
0600
0600
0600
0000
F380
77C0
79E0
70E0
70E0
70E0
70E0
70C0
79C0
7780
7000
7000
7000
F800
ENDCHAR
STARTCHAR uni1E58
ENCODING 7768
SWIDTH 720 0
DWIDTH 14 0
BBX 13 18 1 0
BITMAP
0C00
0C00
0C00
0000
FF00
7180
71C0
71C0
71C0
71C0
7380
7F00
7700
7380
73C0
71E0
70F0
F8F8
ENDCHAR
STARTCHAR uni1E59
ENCODING 7769
SWIDTH 462 0
DWIDTH 9 0
BBX 9 14 0 0
BITMAP
0C00
0C00
0C00
0000
F980
3F80
3C80
3800
3800
3800
3800
3800
3800
FE00
ENDCHAR
STARTCHAR uni1E5A
ENCODING 7770
SWIDTH 720 0
DWIDTH 14 0
BBX 13 18 1 -4
BITMAP
FF00
7180
71C0
71C0
71C0
71C0
7380
7F00
7700
7380
73C0
71E0
70F0
F8F8
0000
0600
0600
0600
ENDCHAR
STARTCHAR uni1E5B
ENCODING 7771
SWIDTH 462 0
DWIDTH 9 0
BBX 9 14 0 -4
BITMAP
F980
3F80
3C80
3800
3800
3800
3800
3800
3800
FE00
0000
1800
1800
1800
ENDCHAR
STARTCHAR uni1E5C
ENCODING 7772
SWIDTH 720 0
DWIDTH 14 0
BBX 13 20 1 -4
BITMAP
3F00
0000
FF00
7180
71C0
71C0
71C0
71C0
7380
7F00
7700
7380
73C0
71E0
70F0
F8F8
0000
0600
0600
0600
ENDCHAR
STARTCHAR uni1E5D
ENCODING 7773
SWIDTH 462 0
DWIDTH 9 0
BBX 9 16 0 -4
BITMAP
3F00
0000
F980
3F80
3C80
3800
3800
3800
3800
3800
3800
FE00
0000
1800
1800
1800
ENDCHAR
STARTCHAR uni1E5E
ENCODING 7774
SWIDTH 720 0
DWIDTH 14 0
BBX 13 16 1 -2
BITMAP
FF00
7180
71C0
71C0
71C0
71C0
7380
7F00
7700
7380
73C0
71E0
70F0
F8F8
0000
1F80
ENDCHAR
STARTCHAR uni1E5F
ENCODING 7775
SWIDTH 462 0
DWIDTH 9 0
BBX 9 12 0 -2
BITMAP
F980
3F80
3C80
3800
3800
3800
3800
3800
3800
FE00
0000
7E00
ENDCHAR
STARTCHAR uni1E60
ENCODING 7776
SWIDTH 556 0
DWIDTH 11 0
BBX 9 18 1 0
BITMAP
1800
1800
1800
0000
3F00
7100
E100
E000
F000
F800
7E00
1F00
0780
0380
0380
8380
C700
FE00
ENDCHAR
STARTCHAR uni1E61
ENCODING 7777
SWIDTH 525 0
DWIDTH 10 0
BBX 8 14 1 0
BITMAP
18
18
18
00
3E
E2
E2
F0
FE
7F
0F
87
87
FC
ENDCHAR
STARTCHAR uni1E62
ENCODING 7778
SWIDTH 556 0
DWIDTH 11 0
BBX 9 18 1 -4
BITMAP
3F00
7100
E100
E000
F000
F800
7E00
1F00
0780
0380
0380
8380
C700
FE00
0000
0C00
0C00
0C00
ENDCHAR
STARTCHAR uni1E63
ENCODING 7779
SWIDTH 525 0
DWIDTH 10 0
BBX 8 14 1 -4
BITMAP
3E
E2
E2
F0
FE
7F
0F
87
87
FC
00
18
18
18
ENDCHAR
STARTCHAR uni1E64
ENCODING 7780
SWIDTH 556 0
DWIDTH 11 0
BBX 9 22 1 0
BITMAP
0C00
0C00
0C00
0000
0E00
1800
3000
0000
3F00
7100
E100
E000
F000
F800
7E00
1F00
0780
0380
0380
8380
C700
FE00
ENDCHAR
STARTCHAR uni1E65
ENCODING 7781
SWIDTH 525 0
DWIDTH 10 0
BBX 8 18 1 0
BITMAP
18
18
18
00
0E
18
30
00
3E
E2
E2
F0
FE
7F
0F
87
87
FC
ENDCHAR
STARTCHAR uni1E66
ENCODING 7782
SWIDTH 556 0
DWIDTH 11 0
BBX 9 22 1 0
BITMAP
1800
1800
1800
0000
6600
3C00
1800
0000
3F00
7100
E100
E000
F000
F800
7E00
1F00
0780
0380
0380
8380
C700
FE00
ENDCHAR
STARTCHAR uni1E67
ENCODING 7783
SWIDTH 525 0
DWIDTH 10 0
BBX 8 18 1 0
BITMAP
18
18
18
00
66
3C
18
00
3E
E2
E2
F0
FE
7F
0F
87
87
FC
ENDCHAR
STARTCHAR uni1E68
ENCODING 7784
SWIDTH 556 0
DWIDTH 11 0
BBX 9 22 1 -4
BITMAP
1800
1800
1800
0000
3F00
7100
E100
E000
F000
F800
7E00
1F00
0780
0380
0380
8380
C700
FE00
0000
0C00
0C00
0C00
ENDCHAR
STARTCHAR uni1E69
ENCODING 7785
SWIDTH 525 0
DWIDTH 10 0
BBX 8 18 1 -4
BITMAP
30
30
30
00
3E
E2
E2
F0
FE
7F
0F
87
87
FC
00
18
18
18
ENDCHAR
STARTCHAR uni1E6A
ENCODING 7786
SWIDTH 714 0
DWIDTH 14 0
BBX 13 18 0 0
BITMAP
0600
0600
0600
0000
FFF8
C708
8708
0700
0700
0700
0700
0700
0700
0700
0700
0700
0700
1FC0
ENDCHAR
STARTCHAR uni1E6B
ENCODING 7787
SWIDTH 389 0
DWIDTH 7 0
BBX 6 17 1 0
BITMAP
30
30
30
00
30
70
70
FC
70
70
70
70
70
70
70
70
3C
ENDCHAR
STARTCHAR uni1E6C
ENCODING 7788
SWIDTH 714 0
DWIDTH 14 0
BBX 13 18 0 -4
BITMAP
FFF8
C708
8708
0700
0700
0700
0700
0700
0700
0700
0700
0700
0700
1FC0
0000
0300
0300
0300
ENDCHAR
STARTCHAR uni1E6D
ENCODING 7789
SWIDTH 389 0
DWIDTH 7 0
BBX 6 17 1 -4
BITMAP
30
70
70
FC
70
70
70
70
70
70
70
70
3C
00
30
30
30
ENDCHAR
STARTCHAR uni1E6E
ENCODING 7790
SWIDTH 714 0
DWIDTH 14 0
BBX 13 16 0 -2
BITMAP
FFF8
C708
8708
0700
0700
0700
0700
0700
0700
0700
0700
0700
0700
1FC0
0000
0FC0
ENDCHAR
STARTCHAR uni1E6F
ENCODING 7791
SWIDTH 389 0
DWIDTH 7 0
BBX 6 15 1 -2
BITMAP
30
70
70
FC
70
70
70
70
70
70
70
70
3C
00
FC
ENDCHAR
STARTCHAR uni1E70
ENCODING 7792
SWIDTH 714 0
DWIDTH 14 0
BBX 13 18 0 -4
BITMAP
FFF8
C708
8708
0700
0700
0700
0700
0700
0700
0700
0700
0700
0700
1FC0
0000
0300
0780
0CC0
ENDCHAR
STARTCHAR uni1E71
ENCODING 7793
SWIDTH 389 0
DWIDTH 7 0
BBX 6 17 1 -4
BITMAP
30
70
70
FC
70
70
70
70
70
70
70
70
3C
00
30
78
CC
ENDCHAR
STARTCHAR uni1E72
ENCODING 7794
SWIDTH 747 0
DWIDTH 14 0
BBX 14 17 0 -3
BITMAP
F83C
7010
7010
7010
7010
7010
7010
7010
7010
7010
7010
7030
3820
1FC0
0000
1980
1980
ENDCHAR
STARTCHAR uni1E73
ENCODING 7795
SWIDTH 654 0
DWIDTH 12 0
BBX 11 13 1 -3
BITMAP
F7C0
71C0
71C0
71C0
71C0
71C0
71C0
73C0
7DC0
39E0
0000
1980
1980
ENDCHAR
STARTCHAR uni1E74
ENCODING 7796
SWIDTH 747 0
DWIDTH 14 0
BBX 14 18 0 -4
BITMAP
F83C
7010
7010
7010
7010
7010
7010
7010
7010
7010
7010
7030
3820
1FC0
0000
0C80
1F80
1300
ENDCHAR
STARTCHAR uni1E75
ENCODING 7797
SWIDTH 654 0
DWIDTH 12 0
BBX 11 14 1 -4
BITMAP
F7C0
71C0
71C0
71C0
71C0
71C0
71C0
73C0
7DC0
39E0
0000
0C80
1F80
1300
ENDCHAR
STARTCHAR uni1E76
ENCODING 7798
SWIDTH 747 0
DWIDTH 14 0
BBX 14 18 0 -4
BITMAP
F83C
7010
7010
7010
7010
7010
7010
7010
7010
7010
7010
7030
3820
1FC0
0000
0600
0F00
1980
ENDCHAR
STARTCHAR uni1E77
ENCODING 7799
SWIDTH 654 0
DWIDTH 12 0
BBX 11 14 1 -4
BITMAP
F7C0
71C0
71C0
71C0
71C0
71C0
71C0
73C0
7DC0
39E0
0000
0600
0F00
1980
ENDCHAR
STARTCHAR uni1E78
ENCODING 7800
SWIDTH 747 0
DWIDTH 14 0
BBX 14 22 0 0
BITMAP
01C0
0300
0600
0000
0C80
1F80
1300
0000
F83C
7010
7010
7010
7010
7010
7010
7010
7010
7010
7010
7030
3820
1FC0
ENDCHAR
STARTCHAR uni1E79
ENCODING 7801
SWIDTH 654 0
DWIDTH 12 0
BBX 11 18 1 0
BITMAP
0380
0600
0C00
0000
1900
3F00
2600
0000
F7C0
71C0
71C0
71C0
71C0
71C0
71C0
73C0
7DC0
39E0
ENDCHAR
STARTCHAR uni1E7A
ENCODING 7802
SWIDTH 747 0
DWIDTH 14 0
BBX 14 19 0 0
BITMAP
1980
1980
0000
1F80
0000
F83C
7010
7010
7010
7010
7010
7010
7010
7010
7010
7010
7030
3820
1FC0
ENDCHAR
STARTCHAR uni1E7B
ENCODING 7803
SWIDTH 654 0
DWIDTH 12 0
BBX 11 15 1 0
BITMAP
3300
3300
0000
3F00
0000
F7C0
71C0
71C0
71C0
71C0
71C0
71C0
73C0
7DC0
39E0
ENDCHAR
STARTCHAR uni1E7C
ENCODING 7804
SWIDTH 753 0
DWIDTH 14 0
BBX 14 18 0 0
BITMAP
0640
0FC0
0980
0000
FC3C
7818
3810
3810
1C20
1C20
1E60
0E40
0E40
0780
0780
0380
0300
0300
ENDCHAR
STARTCHAR uni1E7D
ENCODING 7805
SWIDTH 657 0
DWIDTH 12 0
BBX 12 14 0 0
BITMAP
0C80
1F80
1300
0000
F8F0
7860
3840
3840
1C80
1D80
0F00
0F00
0600
0600
ENDCHAR
STARTCHAR uni1E7E
ENCODING 7806
SWIDTH 753 0
DWIDTH 14 0
BBX 14 18 0 -4
BITMAP
FC3C
7818
3810
3810
1C20
1C20
1E60
0E40
0E40
0780
0780
0380
0300
0300
0000
0300
0300
0300
ENDCHAR
STARTCHAR uni1E7F
ENCODING 7807
SWIDTH 657 0
DWIDTH 12 0
BBX 12 14 0 -4
BITMAP
F8F0
7860
3840
3840
1C80
1D80
0F00
0F00
0600
0600
0000
0600
0600
0600
ENDCHAR
STARTCHAR Wgrave
ENCODING 7808
SWIDTH 955 0
DWIDTH 18 0
BBX 18 18 0 0
BITMAP
070000
018000
00C000
000000
F843C0
706080
78E100
38E100
38F100
397200
3D7200
1D7A00
1E3C00
1E3C00
0E3C00
0C1C00
0C1800
0C1800
ENDCHAR
STARTCHAR wgrave
ENCODING 7809
SWIDTH 880 0
DWIDTH 17 0
BBX 17 14 0 0
BITMAP
070000
018000
00C000
000000
F84780
70E300
78E200
39F200
397400
1F7400
1E3C00
1E3800
0C3800
0C1000
ENDCHAR
STARTCHAR Wacute
ENCODING 7810
SWIDTH 955 0
DWIDTH 18 0
BBX 18 18 0 0
BITMAP
007000
00C000
018000
000000
F843C0
706080
78E100
38E100
38F100
397200
3D7200
1D7A00
1E3C00
1E3C00
0E3C00
0C1C00
0C1800
0C1800
ENDCHAR
STARTCHAR wacute
ENCODING 7811
SWIDTH 880 0
DWIDTH 17 0
BBX 17 14 0 0
BITMAP
007000
00C000
018000
000000
F84780
70E300
78E200
39F200
397400
1F7400
1E3C00
1E3800
0C3800
0C1000
ENDCHAR
STARTCHAR Wdieresis
ENCODING 7812
SWIDTH 955 0
DWIDTH 18 0
BBX 18 17 0 0
BITMAP
066000
066000
000000
F843C0
706080
78E100
38E100
38F100
397200
3D7200
1D7A00
1E3C00
1E3C00
0E3C00
0C1C00
0C1800
0C1800
ENDCHAR
STARTCHAR wdieresis
ENCODING 7813
SWIDTH 880 0
DWIDTH 17 0
BBX 17 13 0 0
BITMAP
066000
066000
000000
F84780
70E300
78E200
39F200
397400
1F7400
1E3C00
1E3800
0C3800
0C1000
ENDCHAR
STARTCHAR uni1E86
ENCODING 7814
SWIDTH 955 0
DWIDTH 18 0
BBX 18 18 0 0
BITMAP
018000
018000
018000
000000
F843C0
706080
78E100
38E100
38F100
397200
3D7200
1D7A00
1E3C00
1E3C00
0E3C00
0C1C00
0C1800
0C1800
ENDCHAR
STARTCHAR uni1E87
ENCODING 7815
SWIDTH 880 0
DWIDTH 17 0
BBX 17 14 0 0
BITMAP
018000
018000
018000
000000
F84780
70E300
78E200
39F200
397400
1F7400
1E3C00
1E3800
0C3800
0C1000
ENDCHAR
STARTCHAR uni1E88
ENCODING 7816
SWIDTH 955 0
DWIDTH 18 0
BBX 18 18 0 -4
BITMAP
F843C0
706080
78E100
38E100
38F100
397200
3D7200
1D7A00
1E3C00
1E3C00
0E3C00
0C1C00
0C1800
0C1800
000000
00C000
00C000
00C000
ENDCHAR
STARTCHAR uni1E89
ENCODING 7817
SWIDTH 880 0
DWIDTH 17 0
BBX 17 14 0 -4
BITMAP
F84780
70E300
78E200
39F200
397400
1F7400
1E3C00
1E3800
0C3800
0C1000
000000
018000
018000
018000
ENDCHAR
STARTCHAR uni1E8A
ENCODING 7818
SWIDTH 702 0
DWIDTH 13 0
BBX 13 18 0 0
BITMAP
0600
0600
0600
0000
FC78
7830
3C20
1C40
1EC0
0E80
0F00
0780
0B80
19C0
11E0
20E0
60F0
F1F8
ENDCHAR
STARTCHAR uni1E8B
ENCODING 7819
SWIDTH 608 0
DWIDTH 12 0
BBX 12 14 0 0
BITMAP
0C00
0C00
0C00
0000
FCF0
7840
3C80
1F00
0F00
0F00
1F80
13C0
61E0
F3F0
ENDCHAR
STARTCHAR uni1E8C
ENCODING 7820
SWIDTH 702 0
DWIDTH 13 0
BBX 13 17 0 0
BITMAP
1980
1980
0000
FC78
7830
3C20
1C40
1EC0
0E80
0F00
0780
0B80
19C0
11E0
20E0
60F0
F1F8
ENDCHAR
STARTCHAR uni1E8D
ENCODING 7821
SWIDTH 608 0
DWIDTH 12 0
BBX 12 13 0 0
BITMAP
3300
3300
0000
FCF0
7840
3C80
1F00
0F00
0F00
1F80
13C0
61E0
F3F0
ENDCHAR
STARTCHAR uni1E8E
ENCODING 7822
SWIDTH 717 0
DWIDTH 14 0
BBX 13 18 0 0
BITMAP
0600
0600
0600
0000
FC38
7030
3820
3C60
1C40
1E80
0F80
0700
0700
0700
0700
0700
0700
1F80
ENDCHAR
STARTCHAR uni1E8F
ENCODING 7823
SWIDTH 654 0
DWIDTH 12 0
BBX 12 18 0 -4
BITMAP
0600
0600
0600
0000
FCF0
7020
3840
3840
1C80
1C80
1F00
0F00
0E00
0600
0400
0800
1800
3000
ENDCHAR
STARTCHAR uni1E90
ENCODING 7824
SWIDTH 639 0
DWIDTH 12 0
BBX 10 18 1 0
BITMAP
0600
0F00
1980
0000
7FC0
43C0
4380
0780
0700
0F00
0E00
1C00
3C00
3800
7800
7040
F0C0
FFC0
ENDCHAR
STARTCHAR uni1E91
ENCODING 7825
SWIDTH 584 0
DWIDTH 11 0
BBX 9 14 1 0
BITMAP
0C00
1E00
3300
0000
FF80
C780
8F00
0E00
1E00
3C00
7800
7080
F080
FF80
ENDCHAR
STARTCHAR uni1E92
ENCODING 7826
SWIDTH 639 0
DWIDTH 12 0
BBX 10 18 1 -4
BITMAP
7FC0
43C0
4380
0780
0700
0F00
0E00
1C00
3C00
3800
7800
7040
F0C0
FFC0
0000
0C00
0C00
0C00
ENDCHAR
STARTCHAR uni1E93
ENCODING 7827
SWIDTH 584 0
DWIDTH 11 0
BBX 9 14 1 -4
BITMAP
FF80
C780
8F00
0E00
1E00
3C00
7800
7080
F080
FF80
0000
1800
1800
1800
ENDCHAR
STARTCHAR uni1E94
ENCODING 7828
SWIDTH 639 0
DWIDTH 12 0
BBX 10 16 1 -2
BITMAP
7FC0
43C0
4380
0780
0700
0F00
0E00
1C00
3C00
3800
7800
7040
F0C0
FFC0
0000
3F00
ENDCHAR
STARTCHAR uni1E95
ENCODING 7829
SWIDTH 584 0
DWIDTH 11 0
BBX 9 12 1 -2
BITMAP
FF80
C780
8F00
0E00
1E00
3C00
7800
7080
F080
FF80
0000
7E00
ENDCHAR
STARTCHAR uni1E96
ENCODING 7830
SWIDTH 654 0
DWIDTH 12 0
BBX 12 16 0 -2
BITMAP
F800
3800
3800
3800
39C0
3BE0
3CE0
38E0
38E0
38E0
38E0
38E0
38E0
FDF0
0000
1F80
ENDCHAR
STARTCHAR uni1E97
ENCODING 7831
SWIDTH 389 0
DWIDTH 7 0
BBX 6 16 1 0
BITMAP
CC
CC
00
30
70
70
FC
70
70
70
70
70
70
70
70
3C
ENDCHAR
STARTCHAR uni1E98
ENCODING 7832
SWIDTH 880 0
DWIDTH 17 0
BBX 17 14 0 0
BITMAP
01C000
014000
01C000
000000
F84780
70E300
78E200
39F200
397400
1F7400
1E3C00
1E3800
0C3800
0C1000
ENDCHAR
STARTCHAR uni1E99
ENCODING 7833
SWIDTH 654 0
DWIDTH 12 0
BBX 12 18 0 -4
BITMAP
0E00
0A00
0E00
0000
FCF0
7020
3840
3840
1C80
1C80
1F00
0F00
0E00
0600
0400
0800
1800
3000
ENDCHAR
STARTCHAR uni1EA0
ENCODING 7840
SWIDTH 795 0
DWIDTH 15 0
BBX 15 18 0 -4
BITMAP
0100
0380
0380
03C0
05C0
05E0
08E0
08F0
1070
1FF0
2038
2038
601C
F07E
0000
0180
0180
0180
ENDCHAR
STARTCHAR uni1EA1
ENCODING 7841
SWIDTH 556 0
DWIDTH 11 0
BBX 10 14 0 -4
BITMAP
3E00
6380
4380
0380
3F80
F380
E380
E380
E380
7DC0
0000
0C00
0C00
0C00
ENDCHAR
STARTCHAR uni1EA4
ENCODING 7844
SWIDTH 795 0
DWIDTH 15 0
BBX 15 22 0 0
BITMAP
00E0
0180
0300
0000
0180
03C0
0660
0000
0100
0380
0380
03C0
05C0
05E0
08E0
08F0
1070
1FF0
2038
2038
601C
F07E
ENDCHAR
STARTCHAR uni1EA5
ENCODING 7845
SWIDTH 556 0
DWIDTH 11 0
BBX 10 18 0 0
BITMAP
0380
0600
0C00
0000
0C00
1E00
3300
0000
3E00
6380
4380
0380
3F80
F380
E380
E380
E380
7DC0
ENDCHAR
STARTCHAR uni1EA6
ENCODING 7846
SWIDTH 795 0
DWIDTH 15 0
BBX 15 22 0 0
BITMAP
0E00
0300
0180
0000
0180
03C0
0660
0000
0100
0380
0380
03C0
05C0
05E0
08E0
08F0
1070
1FF0
2038
2038
601C
F07E
ENDCHAR
STARTCHAR uni1EA7
ENCODING 7847
SWIDTH 556 0
DWIDTH 11 0
BBX 10 18 0 0
BITMAP
3800
0C00
0600
0000
0C00
1E00
3300
0000
3E00
6380
4380
0380
3F80
F380
E380
E380
E380
7DC0
ENDCHAR
STARTCHAR uni1EAA
ENCODING 7850
SWIDTH 795 0
DWIDTH 15 0
BBX 15 22 0 0
BITMAP
0320
07E0
04C0
0000
0180
03C0
0660
0000
0100
0380
0380
03C0
05C0
05E0
08E0
08F0
1070
1FF0
2038
2038
601C
F07E
ENDCHAR
STARTCHAR uni1EAB
ENCODING 7851
SWIDTH 556 0
DWIDTH 11 0
BBX 10 18 0 0
BITMAP
1900
3F00
2600
0000
0C00
1E00
3300
0000
3E00
6380
4380
0380
3F80
F380
E380
E380
E380
7DC0
ENDCHAR
STARTCHAR uni1EAC
ENCODING 7852
SWIDTH 795 0
DWIDTH 15 0
BBX 15 22 0 -4
BITMAP
0180
03C0
0660
0000
0100
0380
0380
03C0
05C0
05E0
08E0
08F0
1070
1FF0
2038
2038
601C
F07E
0000
0180
0180
0180
ENDCHAR
STARTCHAR uni1EAD
ENCODING 7853
SWIDTH 556 0
DWIDTH 11 0
BBX 10 18 0 -4
BITMAP
0C00
1E00
3300
0000
3E00
6380
4380
0380
3F80
F380
E380
E380
E380
7DC0
0000
0C00
0C00
0C00
ENDCHAR
STARTCHAR uni1EAE
ENCODING 7854
SWIDTH 795 0
DWIDTH 15 0
BBX 15 22 0 0
BITMAP
00E0
0180
0300
0000
0820
07C0
0380
0000
0100
0380
0380
03C0
05C0
05E0
08E0
08F0
1070
1FF0
2038
2038
601C
F07E
ENDCHAR
STARTCHAR uni1EAF
ENCODING 7855
SWIDTH 556 0
DWIDTH 11 0
BBX 10 18 0 0
BITMAP
0380
0600
0C00
0000
2080
1F00
0E00
0000
3E00
6380
4380
0380
3F80
F380
E380
E380
E380
7DC0
ENDCHAR
STARTCHAR uni1EB0
ENCODING 7856
SWIDTH 795 0
DWIDTH 15 0
BBX 15 22 0 0
BITMAP
0E00
0300
0180
0000
0820
07C0
0380
0000
0100
0380
0380
03C0
05C0
05E0
08E0
08F0
1070
1FF0
2038
2038
601C
F07E
ENDCHAR
STARTCHAR uni1EB1
ENCODING 7857
SWIDTH 556 0
DWIDTH 11 0
BBX 10 18 0 0
BITMAP
3800
0C00
0600
0000
2080
1F00
0E00
0000
3E00
6380
4380
0380
3F80
F380
E380
E380
E380
7DC0
ENDCHAR
STARTCHAR uni1EB4
ENCODING 7860
SWIDTH 795 0
DWIDTH 15 0
BBX 15 22 0 0
BITMAP
0320
07E0
04C0
0000
0820
07C0
0380
0000
0100
0380
0380
03C0
05C0
05E0
08E0
08F0
1070
1FF0
2038
2038
601C
F07E
ENDCHAR
STARTCHAR uni1EB5
ENCODING 7861
SWIDTH 556 0
DWIDTH 11 0
BBX 10 18 0 0
BITMAP
1900
3F00
2600
0000
2080
1F00
0E00
0000
3E00
6380
4380
0380
3F80
F380
E380
E380
E380
7DC0
ENDCHAR
STARTCHAR uni1EB6
ENCODING 7862
SWIDTH 795 0
DWIDTH 15 0
BBX 15 22 0 -4
BITMAP
0820
07C0
0380
0000
0100
0380
0380
03C0
05C0
05E0
08E0
08F0
1070
1FF0
2038
2038
601C
F07E
0000
0180
0180
0180
ENDCHAR
STARTCHAR uni1EB7
ENCODING 7863
SWIDTH 556 0
DWIDTH 11 0
BBX 10 18 0 -4
BITMAP
2080
1F00
0E00
0000
3E00
6380
4380
0380
3F80
F380
E380
E380
E380
7DC0
0000
0C00
0C00
0C00
ENDCHAR
STARTCHAR uni1EB8
ENCODING 7864
SWIDTH 601 0
DWIDTH 11 0
BBX 10 18 1 -4
BITMAP
FF80
7080
7080
7000
7000
7100
7F00
7100
7000
7000
7000
7040
70C0
FFC0
0000
0C00
0C00
0C00
ENDCHAR
STARTCHAR uni1EB9
ENCODING 7865
SWIDTH 568 0
DWIDTH 11 0
BBX 9 14 1 -4
BITMAP
1E00
6300
6380
E380
FF80
E000
E000
7000
7880
1F80
0000
0C00
0C00
0C00
ENDCHAR
STARTCHAR uni1EBC
ENCODING 7868
SWIDTH 601 0
DWIDTH 11 0
BBX 10 18 1 0
BITMAP
3200
7E00
4C00
0000
FF80
7080
7080
7000
7000
7100
7F00
7100
7000
7000
7000
7040
70C0
FFC0
ENDCHAR
STARTCHAR uni1EBD
ENCODING 7869
SWIDTH 568 0
DWIDTH 11 0
BBX 9 14 1 0
BITMAP
1900
3F00
2600
0000
1E00
6300
6380
E380
FF80
E000
E000
7000
7880
1F80
ENDCHAR
STARTCHAR uni1EBE
ENCODING 7870
SWIDTH 601 0
DWIDTH 11 0
BBX 10 22 1 0
BITMAP
0700
0C00
1800
0000
0C00
1E00
3300
0000
FF80
7080
7080
7000
7000
7100
7F00
7100
7000
7000
7000
7040
70C0
FFC0
ENDCHAR
STARTCHAR uni1EBF
ENCODING 7871
SWIDTH 568 0
DWIDTH 11 0
BBX 9 18 1 0
BITMAP
0700
0C00
1800
0000
0C00
1E00
3300
0000
1E00
6300
6380
E380
FF80
E000
E000
7000
7880
1F80
ENDCHAR
STARTCHAR uni1EC0
ENCODING 7872
SWIDTH 601 0
DWIDTH 11 0
BBX 10 22 1 0
BITMAP
7000
1800
0C00
0000
0C00
1E00
3300
0000
FF80
7080
7080
7000
7000
7100
7F00
7100
7000
7000
7000
7040
70C0
FFC0
ENDCHAR
STARTCHAR uni1EC1
ENCODING 7873
SWIDTH 568 0
DWIDTH 11 0
BBX 9 18 1 0
BITMAP
7000
1800
0C00
0000
0C00
1E00
3300
0000
1E00
6300
6380
E380
FF80
E000
E000
7000
7880
1F80
ENDCHAR
STARTCHAR uni1EC4
ENCODING 7876
SWIDTH 601 0
DWIDTH 11 0
BBX 10 22 1 0
BITMAP
1900
3F00
2600
0000
0C00
1E00
3300
0000
FF80
7080
7080
7000
7000
7100
7F00
7100
7000
7000
7000
7040
70C0
FFC0
ENDCHAR
STARTCHAR uni1EC5
ENCODING 7877
SWIDTH 568 0
DWIDTH 11 0
BBX 9 18 1 0
BITMAP
1900
3F00
2600
0000
0C00
1E00
3300
0000
1E00
6300
6380
E380
FF80
E000
E000
7000
7880
1F80
ENDCHAR
STARTCHAR uni1EC6
ENCODING 7878
SWIDTH 601 0
DWIDTH 11 0
BBX 10 22 1 -4
BITMAP
1800
3C00
6600
0000
FF80
7080
7080
7000
7000
7100
7F00
7100
7000
7000
7000
7040
70C0
FFC0
0000
0C00
0C00
0C00
ENDCHAR
STARTCHAR uni1EC7
ENCODING 7879
SWIDTH 568 0
DWIDTH 11 0
BBX 9 18 1 -4
BITMAP
0C00
1E00
3300
0000
1E00
6300
6380
E380
FF80
E000
E000
7000
7880
1F80
0000
0C00
0C00
0C00
ENDCHAR
STARTCHAR uni1ECA
ENCODING 7882
SWIDTH 349 0
DWIDTH 7 0
BBX 5 18 1 -4
BITMAP
F8
70
70
70
70
70
70
70
70
70
70
70
70
F8
00
30
30
30
ENDCHAR
STARTCHAR uni1ECB
ENCODING 7883
SWIDTH 325 0
DWIDTH 6 0
BBX 6 18 0 -4
BITMAP
38
38
38
00
F8
38
38
38
38
38
38
38
38
FC
00
30
30
30
ENDCHAR
STARTCHAR uni1ECC
ENCODING 7884
SWIDTH 810 0
DWIDTH 15 0
BBX 14 18 1 -4
BITMAP
0FC0
3870
7038
7038
E01C
E01C
E01C
E01C
E01C
E01C
7038
7038
3870
0FC0
0000
0300
0300
0300
ENDCHAR
STARTCHAR uni1ECD
ENCODING 7885
SWIDTH 617 0
DWIDTH 12 0
BBX 11 14 0 -4
BITMAP
1F00
71C0
60C0
E0E0
E0E0
E0E0
E0E0
60C0
71C0
1F00
0000
0600
0600
0600
ENDCHAR
STARTCHAR uni1ED0
ENCODING 7888
SWIDTH 810 0
DWIDTH 15 0
BBX 14 22 1 0
BITMAP
00E0
0180
0300
0000
0300
0780
0CC0
0000
0FC0
3870
7038
7038
E01C
E01C
E01C
E01C
E01C
E01C
7038
7038
3870
0FC0
ENDCHAR
STARTCHAR uni1ED1
ENCODING 7889
SWIDTH 617 0
DWIDTH 12 0
BBX 11 18 0 0
BITMAP
0380
0600
0C00
0000
0C00
1E00
3300
0000
1F00
71C0
60C0
E0E0
E0E0
E0E0
E0E0
60C0
71C0
1F00
ENDCHAR
STARTCHAR uni1ED2
ENCODING 7890
SWIDTH 810 0
DWIDTH 15 0
BBX 14 22 1 0
BITMAP
0E00
0300
0180
0000
0300
0780
0CC0
0000
0FC0
3870
7038
7038
E01C
E01C
E01C
E01C
E01C
E01C
7038
7038
3870
0FC0
ENDCHAR
STARTCHAR uni1ED3
ENCODING 7891
SWIDTH 617 0
DWIDTH 12 0
BBX 11 18 0 0
BITMAP
3800
0C00
0600
0000
0C00
1E00
3300
0000
1F00
71C0
60C0
E0E0
E0E0
E0E0
E0E0
60C0
71C0
1F00
ENDCHAR
STARTCHAR uni1ED6
ENCODING 7894
SWIDTH 810 0
DWIDTH 15 0
BBX 14 22 1 0
BITMAP
0640
0FC0
0980
0000
0300
0780
0CC0
0000
0FC0
3870
7038
7038
E01C
E01C
E01C
E01C
E01C
E01C
7038
7038
3870
0FC0
ENDCHAR
STARTCHAR uni1ED7
ENCODING 7895
SWIDTH 617 0
DWIDTH 12 0
BBX 11 18 0 0
BITMAP
1900
3F00
2600
0000
0C00
1E00
3300
0000
1F00
71C0
60C0
E0E0
E0E0
E0E0
E0E0
60C0
71C0
1F00
ENDCHAR
STARTCHAR uni1ED8
ENCODING 7896
SWIDTH 810 0
DWIDTH 15 0
BBX 14 22 1 -4
BITMAP
0300
0780
0CC0
0000
0FC0
3870
7038
7038
E01C
E01C
E01C
E01C
E01C
E01C
7038
7038
3870
0FC0
0000
0300
0300
0300
ENDCHAR
STARTCHAR uni1ED9
ENCODING 7897
SWIDTH 617 0
DWIDTH 12 0
BBX 11 18 0 -4
BITMAP
0600
0F00
1980
0000
1F00
71C0
60C0
E0E0
E0E0
E0E0
E0E0
60C0
71C0
1F00
0000
0600
0600
0600
ENDCHAR
STARTCHAR uni1EDA
ENCODING 7898
SWIDTH 810 0
DWIDTH 15 0
BBX 16 18 1 0
BITMAP
0070
00C0
0180
0000
0FC7
3877
703B
703B
E01E
E01C
E01C
E01C
E01C
E01C
7038
7038
3870
0FC0
ENDCHAR
STARTCHAR uni1EDB
ENCODING 7899
SWIDTH 617 0
DWIDTH 12 0
BBX 13 14 0 0
BITMAP
00E0
0180
0300
0000
1F38
71F8
60D8
E0F8
E0F0
E0E0
E0E0
60C0
71C0
1F00
ENDCHAR
STARTCHAR uni1EDC
ENCODING 7900
SWIDTH 810 0
DWIDTH 15 0
BBX 16 18 1 0
BITMAP
0700
0180
00C0
0000
0FC7
3877
703B
703B
E01E
E01C
E01C
E01C
E01C
E01C
7038
7038
3870
0FC0
ENDCHAR
STARTCHAR uni1EDD
ENCODING 7901
SWIDTH 617 0
DWIDTH 12 0
BBX 13 14 0 0
BITMAP
0E00
0300
0180
0000
1F38
71F8
60D8
E0F8
E0F0
E0E0
E0E0
60C0
71C0
1F00
ENDCHAR
STARTCHAR uni1EE0
ENCODING 7904
SWIDTH 810 0
DWIDTH 15 0
BBX 16 18 1 0
BITMAP
0190
03F0
0260
0000
0FC7
3877
703B
703B
E01E
E01C
E01C
E01C
E01C
E01C
7038
7038
3870
0FC0
ENDCHAR
STARTCHAR uni1EE1
ENCODING 7905
SWIDTH 617 0
DWIDTH 12 0
BBX 13 14 0 0
BITMAP
0640
0FC0
0980
0000
1F38
71F8
60D8
E0F8
E0F0
E0E0
E0E0
60C0
71C0
1F00
ENDCHAR
STARTCHAR uni1EE2
ENCODING 7906
SWIDTH 810 0
DWIDTH 15 0
BBX 16 18 1 -4
BITMAP
0FC7
3877
703B
703B
E01E
E01C
E01C
E01C
E01C
E01C
7038
7038
3870
0FC0
0000
0300
0300
0300
ENDCHAR
STARTCHAR uni1EE3
ENCODING 7907
SWIDTH 617 0
DWIDTH 12 0
BBX 13 14 0 -4
BITMAP
1F38
71F8
60D8
E0F8
E0F0
E0E0
E0E0
60C0
71C0
1F00
0000
0600
0600
0600
ENDCHAR
STARTCHAR uni1EE4
ENCODING 7908
SWIDTH 747 0
DWIDTH 14 0
BBX 14 18 0 -4
BITMAP
F83C
7010
7010
7010
7010
7010
7010
7010
7010
7010
7010
7030
3820
1FC0
0000
0600
0600
0600
ENDCHAR
STARTCHAR uni1EE5
ENCODING 7909
SWIDTH 654 0
DWIDTH 12 0
BBX 11 14 1 -4
BITMAP
F7C0
71C0
71C0
71C0
71C0
71C0
71C0
73C0
7DC0
39E0
0000
0600
0600
0600
ENDCHAR
STARTCHAR uni1EE8
ENCODING 7912
SWIDTH 747 0
DWIDTH 14 0
BBX 16 18 0 0
BITMAP
0070
00C0
0180
0000
F83F
7017
7013
7013
7016
7010
7010
7010
7010
7010
7010
7030
3820
1FC0
ENDCHAR
STARTCHAR uni1EE9
ENCODING 7913
SWIDTH 654 0
DWIDTH 12 0
BBX 13 14 1 0
BITMAP
01C0
0300
0600
0000
F7F8
71F8
71D8
71D8
71F0
71C0
71C0
73C0
7DC0
39E0
ENDCHAR
STARTCHAR uni1EEA
ENCODING 7914
SWIDTH 747 0
DWIDTH 14 0
BBX 16 18 0 0
BITMAP
0700
0180
00C0
0000
F83F
7017
7013
7013
7016
7010
7010
7010
7010
7010
7010
7030
3820
1FC0
ENDCHAR
STARTCHAR uni1EEB
ENCODING 7915
SWIDTH 654 0
DWIDTH 12 0
BBX 13 14 1 0
BITMAP
1C00
0600
0300
0000
F7F8
71F8
71D8
71D8
71F0
71C0
71C0
73C0
7DC0
39E0
ENDCHAR
STARTCHAR uni1EEE
ENCODING 7918
SWIDTH 747 0
DWIDTH 14 0
BBX 16 18 0 0
BITMAP
0320
07E0
04C0
0000
F83F
7017
7013
7013
7016
7010
7010
7010
7010
7010
7010
7030
3820
1FC0
ENDCHAR
STARTCHAR uni1EEF
ENCODING 7919
SWIDTH 654 0
DWIDTH 12 0
BBX 13 14 1 0
BITMAP
0640
0FC0
0980
0000
F7F8
71F8
71D8
71D8
71F0
71C0
71C0
73C0
7DC0
39E0
ENDCHAR
STARTCHAR uni1EF0
ENCODING 7920
SWIDTH 747 0
DWIDTH 14 0
BBX 16 18 0 -4
BITMAP
F83F
7017
7013
7013
7016
7010
7010
7010
7010
7010
7010
7030
3820
1FC0
0000
0300
0300
0300
ENDCHAR
STARTCHAR uni1EF1
ENCODING 7921
SWIDTH 654 0
DWIDTH 12 0
BBX 13 14 1 -4
BITMAP
F7F8
71F8
71D8
71D8
71F0
71C0
71C0
73C0
7DC0
39E0
0000
0600
0600
0600
ENDCHAR
STARTCHAR Ygrave
ENCODING 7922
SWIDTH 717 0
DWIDTH 14 0
BBX 13 18 0 0
BITMAP
1C00
0600
0300
0000
FC38
7030
3820
3C60
1C40
1E80
0F80
0700
0700
0700
0700
0700
0700
1F80
ENDCHAR
STARTCHAR ygrave
ENCODING 7923
SWIDTH 654 0
DWIDTH 12 0
BBX 12 18 0 -4
BITMAP
3800
0C00
0600
0000
FCF0
7020
3840
3840
1C80
1C80
1F00
0F00
0E00
0600
0400
0800
1800
3000
ENDCHAR
STARTCHAR uni1EF4
ENCODING 7924
SWIDTH 717 0
DWIDTH 14 0
BBX 13 18 0 -4
BITMAP
FC38
7030
3820
3C60
1C40
1E80
0F80
0700
0700
0700
0700
0700
0700
1F80
0000
0600
0600
0600
ENDCHAR
STARTCHAR uni1EF5
ENCODING 7925
SWIDTH 654 0
DWIDTH 12 0
BBX 12 18 0 -8
BITMAP
FCF0
7020
3840
3840
1C80
1C80
1F00
0F00
0E00
0600
0400
0800
1800
3000
0000
0C00
0C00
0C00
ENDCHAR
STARTCHAR uni1EF8
ENCODING 7928
SWIDTH 717 0
DWIDTH 14 0
BBX 13 18 0 0
BITMAP
0C80
1F80
1300
0000
FC38
7030
3820
3C60
1C40
1E80
0F80
0700
0700
0700
0700
0700
0700
1F80
ENDCHAR
STARTCHAR uni1EF9
ENCODING 7929
SWIDTH 654 0
DWIDTH 12 0
BBX 12 18 0 -4
BITMAP
0C80
1F80
1300
0000
FCF0
7020
3840
3840
1C80
1C80
1F00
0F00
0E00
0600
0400
0800
1800
3000
ENDCHAR
STARTCHAR uni2000
ENCODING 8192
SWIDTH 500 0
DWIDTH 13 0
BBX 1 1 0 0
BITMAP
00
ENDCHAR
STARTCHAR uni2001
ENCODING 8193
SWIDTH 1000 0
DWIDTH 26 0
BBX 1 1 0 0
BITMAP
00
ENDCHAR
STARTCHAR uni2002
ENCODING 8194
SWIDTH 500 0
DWIDTH 13 0
BBX 1 1 0 0
BITMAP
00
ENDCHAR
STARTCHAR uni2003
ENCODING 8195
SWIDTH 1000 0
DWIDTH 26 0
BBX 1 1 0 0
BITMAP
00
ENDCHAR
STARTCHAR uni2004
ENCODING 8196
SWIDTH 333 0
DWIDTH 9 0
BBX 1 1 0 0
BITMAP
00
ENDCHAR
STARTCHAR uni2005
ENCODING 8197
SWIDTH 250 0
DWIDTH 7 0
BBX 1 1 0 0
BITMAP
00
ENDCHAR
STARTCHAR uni2006
ENCODING 8198
SWIDTH 167 0
DWIDTH 4 0
BBX 1 1 0 0
BITMAP
00
ENDCHAR
STARTCHAR uni2007
ENCODING 8199
SWIDTH 623 0
DWIDTH 12 0
BBX 1 1 0 0
BITMAP
00
ENDCHAR
STARTCHAR uni2008
ENCODING 8200
SWIDTH 265 0
DWIDTH 5 0
BBX 1 1 0 0
BITMAP
00
ENDCHAR
STARTCHAR uni2009
ENCODING 8201
SWIDTH 200 0
DWIDTH 5 0
BBX 1 1 0 0
BITMAP
00
ENDCHAR
STARTCHAR uni200A
ENCODING 8202
SWIDTH 100 0
DWIDTH 3 0
BBX 1 1 0 0
BITMAP
00
ENDCHAR
STARTCHAR uni200B
ENCODING 8203
SWIDTH 0 0
DWIDTH 0 0
BBX 1 1 0 0
BITMAP
00
ENDCHAR
STARTCHAR uni2010
ENCODING 8208
SWIDTH 289 0
DWIDTH 5 0
BBX 4 2 1 5
BITMAP
F0
F0
ENDCHAR
STARTCHAR uni2011
ENCODING 8209
SWIDTH 289 0
DWIDTH 5 0
BBX 4 2 1 5
BITMAP
F0
F0
ENDCHAR
STARTCHAR figuredash
ENCODING 8210
SWIDTH 500 0
DWIDTH 9 0
BBX 8 1 1 6
BITMAP
FF
ENDCHAR
STARTCHAR endash
ENCODING 8211
SWIDTH 500 0
DWIDTH 9 0
BBX 8 1 1 6
BITMAP
FF
ENDCHAR
STARTCHAR emdash
ENCODING 8212
SWIDTH 1000 0
DWIDTH 19 0
BBX 17 1 1 5
BITMAP
FFFF80
ENDCHAR
STARTCHAR afii00208
ENCODING 8213
SWIDTH 1000 0
DWIDTH 19 0
BBX 17 1 1 5
BITMAP
FFFF80
ENDCHAR
STARTCHAR quoteleft
ENCODING 8216
SWIDTH 265 0
DWIDTH 5 0
BBX 3 5 1 9
BITMAP
60
C0
C0
E0
E0
ENDCHAR
STARTCHAR quoteright
ENCODING 8217
SWIDTH 265 0
DWIDTH 5 0
BBX 3 5 1 9
BITMAP
E0
E0
60
60
C0
ENDCHAR
STARTCHAR quotesinglbase
ENCODING 8218
SWIDTH 265 0
DWIDTH 5 0
BBX 3 7 1 -4
BITMAP
E0
E0
E0
60
60
60
C0
ENDCHAR
STARTCHAR quotereversed
ENCODING 8219
SWIDTH 265 0
DWIDTH 5 0
BBX 3 5 1 9
BITMAP
E0
E0
C0
C0
60
ENDCHAR
STARTCHAR quotedblleft
ENCODING 8220
SWIDTH 470 0
DWIDTH 9 0
BBX 7 5 1 9
BITMAP
66
CC
EE
EE
EE
ENDCHAR
STARTCHAR quotedblright
ENCODING 8221
SWIDTH 470 0
DWIDTH 9 0
BBX 7 5 1 9
BITMAP
EE
EE
EE
66
CC
ENDCHAR
STARTCHAR quotedblbase
ENCODING 8222
SWIDTH 470 0
DWIDTH 9 0
BBX 7 7 1 -4
BITMAP
EE
EE
EE
66
66
66
CC
ENDCHAR
STARTCHAR uni201F
ENCODING 8223
SWIDTH 470 0
DWIDTH 9 0
BBX 7 5 1 9
BITMAP
EE
EE
EE
CC
66
ENDCHAR
STARTCHAR dagger
ENCODING 8224
SWIDTH 623 0
DWIDTH 12 0
BBX 9 18 1 -4
BITMAP
1C00
1C00
1C00
1C00
1C00
1C00
FF80
DD80
1C00
1C00
1C00
1C00
1C00
1C00
1C00
1C00
1C00
1C00
ENDCHAR
STARTCHAR daggerdbl
ENCODING 8225
SWIDTH 623 0
DWIDTH 12 0
BBX 9 18 1 -4
BITMAP
1C00
1C00
1C00
1C00
1C00
1C00
FF80
DD80
1C00
1C00
1C00
1C00
FF80
DD80
1C00
1C00
1C00
1C00
ENDCHAR
STARTCHAR bullet
ENCODING 8226
SWIDTH 623 0
DWIDTH 12 0
BBX 7 7 2 2
BITMAP
38
7C
FE
FE
FE
7C
38
ENDCHAR
STARTCHAR ellipsis
ENCODING 8230
SWIDTH 1000 0
DWIDTH 19 0
BBX 15 2 2 0
BITMAP
C186
C186
ENDCHAR
STARTCHAR perthousand
ENCODING 8240
SWIDTH 1139 0
DWIDTH 22 0
BBX 23 14 0 0
BITMAP
380600
440800
C61000
C62000
C64000
44C000
398000
033838
064444
04C6C6
08C6C6
10C6C6
204444
C03838
ENDCHAR
STARTCHAR guilsinglleft
ENCODING 8249
SWIDTH 337 0
DWIDTH 6 0
BBX 5 8 0 1
BITMAP
08
10
30
E0
60
30
10
08
ENDCHAR
STARTCHAR guilsinglright
ENCODING 8250
SWIDTH 337 0
DWIDTH 6 0
BBX 5 8 1 1
BITMAP
80
40
60
30
38
60
40
80
ENDCHAR
STARTCHAR fraction
ENCODING 8260
SWIDTH 55 0
DWIDTH 1 0
BBX 12 14 -4 0
BITMAP
0070
0060
00C0
01C0
0180
0300
0700
0E00
0C00
1800
3800
3000
6000
E000
ENDCHAR
STARTCHAR oneinferior
ENCODING 8321
SWIDTH 374 0
DWIDTH 7 0
BBX 4 9 -11 -4
BITMAP
E0
60
60
60
60
60
60
60
F0
ENDCHAR
STARTCHAR twoinferior
ENCODING 8322
SWIDTH 374 0
DWIDTH 7 0
BBX 6 9 -10 -4
BITMAP
F8
8C
0C
0C
18
20
40
FC
FC
ENDCHAR
STARTCHAR threeinferior
ENCODING 8323
SWIDTH 374 0
DWIDTH 7 0
BBX 6 9 -10 -4
BITMAP
F8
8C
0C
08
70
1C
0C
8C
F8
ENDCHAR
STARTCHAR uni20A5
ENCODING 8357
SWIDTH 967 0
DWIDTH 18 0
BBX 18 18 0 -4
BITMAP
000C00
000800
000800
001000
FBDF00
3FFF80
3CF380
38E380
38E380
38E380
38E380
39E380
39E380
FFF7C0
020000
040000
040000
0C0000
ENDCHAR
STARTCHAR uni20A6
ENCODING 8358
SWIDTH 788 0
DWIDTH 15 0
BBX 13 14 1 0
BITMAP
F038
7010
7810
7C10
7FF0
5E10
4F10
4790
7FF0
41D0
41F0
40F0
4070
E030
ENDCHAR
STARTCHAR uni20A9
ENCODING 8361
SWIDTH 955 0
DWIDTH 18 0
BBX 18 14 0 0
BITMAP
F843C0
706080
78E100
38E100
3FFF00
397200
3D7200
1D7A00
1FFE00
1E3C00
0E3C00
0C1C00
0C1800
0C1800
ENDCHAR
STARTCHAR Euro
ENCODING 8364
SWIDTH 711 0
DWIDTH 13 0
BBX 15 14 -2 0
BITMAP
01FC
0786
0E02
0E02
FFE0
1C00
1C00
1C00
FFE0
1C00
0E00
0E00
0782
01FC
ENDCHAR
STARTCHAR uni20AD
ENCODING 8365
SWIDTH 747 0
DWIDTH 14 0
BBX 14 14 0 0
BITMAP
F8F8
7020
7040
7180
7300
7600
FFFC
7F00
7780
73C0
71E0
71E0
70F8
F9FC
ENDCHAR
STARTCHAR uni2103
ENCODING 8451
SWIDTH 957 0
DWIDTH 18 0
BBX 17 14 1 0
BITMAP
E07F00
A1E180
E38080
038080
070000
070000
070000
070000
070000
070000
038000
038000
01E080
007F00
ENDCHAR
STARTCHAR uni2109
ENCODING 8457
SWIDTH 830 0
DWIDTH 16 0
BBX 14 14 1 0
BITMAP
E7FC
A384
E384
0380
0380
0388
03F8
0388
0380
0380
0380
0380
0380
07E0
ENDCHAR
STARTCHAR trademark
ENCODING 8482
SWIDTH 1044 0
DWIDTH 20 0
BBX 18 8 1 6
BITMAP
FF71C0
993B80
993B80
183B80
183D80
182D80
182D80
3C61C0
ENDCHAR
STARTCHAR uni212A
ENCODING 8490
SWIDTH 747 0
DWIDTH 14 0
BBX 14 14 0 0
BITMAP
F8F8
7020
7040
7180
7300
7600
7E00
7F00
7780
73C0
71E0
71E0
70F8
F9FC
ENDCHAR
STARTCHAR uni212B
ENCODING 8491
SWIDTH 795 0
DWIDTH 15 0
BBX 15 18 0 0
BITMAP
0380
0280
0380
0000
0100
0380
0380
03C0
05C0
05E0
08E0
08F0
1070
1FF0
2038
2038
601C
F07E
ENDCHAR
STARTCHAR uni2132
ENCODING 8498
SWIDTH 584 0
DWIDTH 11 0
BBX 9 14 1 0
BITMAP
1F80
0700
0700
0700
0700
0700
4700
7F00
4700
0700
0700
8700
8700
FF80
ENDCHAR
STARTCHAR universal
ENCODING 8704
SWIDTH 795 0
DWIDTH 15 0
BBX 15 14 0 0
BITMAP
F07E
601C
2038
2038
1FF0
1070
08F0
08E0
05E0
05C0
03C0
0380
0380
0100
ENDCHAR
STARTCHAR existential
ENCODING 8707
SWIDTH 601 0
DWIDTH 11 0
BBX 10 14 1 0
BITMAP
7FC0
4380
4380
0380
0380
2380
3F80
2380
0380
0380
0380
8380
C380
FFC0
ENDCHAR
STARTCHAR uni2204
ENCODING 8708
SWIDTH 601 0
DWIDTH 11 0
BBX 10 18 1 -2
BITMAP
00C0
0080
7FC0
4380
4380
0380
0380
2780
3F80
2B80
0B80
1380
1380
A380
E380
FFC0
4000
C000
ENDCHAR
STARTCHAR minus
ENCODING 8722
SWIDTH 623 0
DWIDTH 12 0
BBX 11 1 0 5
BITMAP
FFE0
ENDCHAR
STARTCHAR fraction
ENCODING 8725
SWIDTH 55 0
DWIDTH 1 0
BBX 12 14 -4 0
BITMAP
0070
0060
00C0
01C0
0180
0300
0700
0E00
0C00
1800
3800
3000
6000
E000
ENDCHAR
STARTCHAR periodcentered
ENCODING 8729
SWIDTH 623 0
DWIDTH 12 0
BBX 2 3 5 4
BITMAP
C0
C0
C0
ENDCHAR
STARTCHAR uni2236
ENCODING 8758
SWIDTH 265 0
DWIDTH 5 0
BBX 3 10 1 0
BITMAP
E0
E0
E0
00
00
00
00
E0
E0
E0
ENDCHAR
STARTCHAR uni2259
ENCODING 8793
SWIDTH 623 0
DWIDTH 12 0
BBX 11 9 0 3
BITMAP
0600
0F00
1980
0000
FFE0
0000
0000
0000
FFE0
ENDCHAR
STARTCHAR uni225A
ENCODING 8794
SWIDTH 623 0
DWIDTH 12 0
BBX 11 9 0 3
BITMAP
1980
0F00
0600
0000
FFE0
0000
0000
0000
FFE0
ENDCHAR
STARTCHAR notequal
ENCODING 8800
SWIDTH 623 0
DWIDTH 12 0
BBX 11 18 0 -3
BITMAP
0060
0040
0040
0080
0080
0100
0100
FFE0
0200
0400
0400
FFE0
0800
1000
1000
2000
2000
6000
ENDCHAR
STARTCHAR equivalence
ENCODING 8801
SWIDTH 623 0
DWIDTH 12 0
BBX 11 5 0 3
BITMAP
FFE0
0000
FFE0
0000
FFE0
ENDCHAR
STARTCHAR uni2262
ENCODING 8802
SWIDTH 623 0
DWIDTH 12 0
BBX 11 18 0 -3
BITMAP
0060
0040
0040
0080
0080
0100
0100
FFE0
0200
FFE0
0400
FFE0
0800
1000
1000
2000
2000
6000
ENDCHAR
STARTCHAR lessequal
ENCODING 8804
SWIDTH 623 0
DWIDTH 12 0
BBX 10 14 -1 -2
BITMAP
0040
00C0
0300
0C00
3000
C000
C000
3000
0C00
0300
00C0
0040
0000
FFC0
ENDCHAR
STARTCHAR greaterequal
ENCODING 8805
SWIDTH 623 0
DWIDTH 12 0
BBX 10 14 0 -2
BITMAP
8000
C000
3000
0C00
0300
00C0
00C0
0300
0C00
3000
C000
8000
0000
FFC0
ENDCHAR
STARTCHAR uni226E
ENCODING 8814
SWIDTH 623 0
DWIDTH 12 0
BBX 10 18 -1 -3
BITMAP
00C0
0080
0080
0140
01C0
0300
0E00
3400
C400
C800
3800
1C00
1300
20C0
2040
4000
4000
C000
ENDCHAR
STARTCHAR uni226F
ENCODING 8815
SWIDTH 623 0
DWIDTH 12 0
BBX 10 18 0 -3
BITMAP
00C0
0080
0080
8100
C100
3200
0E00
0700
04C0
08C0
0B00
1C00
3000
E000
A000
4000
4000
C000
ENDCHAR
STARTCHAR uni2270
ENCODING 8816
SWIDTH 623 0
DWIDTH 12 0
BBX 10 18 -1 -4
BITMAP
00C0
0080
00C0
01C0
0300
0E00
3200
C400
C400
3800
0C00
1300
10C0
2040
2000
FFC0
4000
C000
ENDCHAR
STARTCHAR uni2271
ENCODING 8817
SWIDTH 623 0
DWIDTH 12 0
BBX 10 18 0 -4
BITMAP
00C0
0080
8080
C100
3100
0E00
0300
04C0
04C0
0B00
0C00
3000
D000
A000
2000
FFC0
4000
C000
ENDCHAR
STARTCHAR fi
ENCODING -1
SWIDTH 672 0
DWIDTH 13 0
BBX 13 14 0 0
BITMAP
1F70
3970
3970
3800
FFF0
3870
3870
3870
3870
3870
3870
3870
3870
FDF8
ENDCHAR
STARTCHAR fl
ENCODING -1
SWIDTH 672 0
DWIDTH 13 0
BBX 12 14 1 0
BITMAP
0FE0
18E0
38E0
38E0
FEE0
38E0
38E0
38E0
38E0
38E0
38E0
38E0
38E0
FDF0
ENDCHAR
ENDFONT
